<?xml version="1.0" encoding="UTF-8" standalone="no"?>
<!-- Created with Inkscape (http://www.inkscape.org/) -->

<svg
   xmlns:dc="http://purl.org/dc/elements/1.1/"
   xmlns:cc="http://creativecommons.org/ns#"
   xmlns:rdf="http://www.w3.org/1999/02/22-rdf-syntax-ns#"
   xmlns:svg="http://www.w3.org/2000/svg"
   xmlns="http://www.w3.org/2000/svg"
   xmlns:sodipodi="http://sodipodi.sourceforge.net/DTD/sodipodi-0.dtd"
   xmlns:inkscape="http://www.inkscape.org/namespaces/inkscape"
   version="1.1"
   id="svg2"
   xml:space="preserve"
   width="1000"
   height="666.66669"
   viewBox="0 0 1000 666.66669"
   sodipodi:docname="2731068.svg"
   inkscape:version="0.92.3 (2405546, 2018-03-11)"><metadata
     id="metadata8"><rdf:RDF><cc:Work
         rdf:about=""><dc:format>image/svg+xml</dc:format><dc:type
           rdf:resource="http://purl.org/dc/dcmitype/StillImage" /><dc:title></dc:title></cc:Work></rdf:RDF></metadata><defs
     id="defs6"><clipPath
       clipPathUnits="userSpaceOnUse"
       id="clipPath20"><path
         d="M 0,500 H 750 V 0 H 0 Z"
         id="path18"
         inkscape:connector-curvature="0" /></clipPath><clipPath
       clipPathUnits="userSpaceOnUse"
       id="clipPath548"><path
         d="M 0,500 H 750 V 0 H 0 Z"
         id="path546"
         inkscape:connector-curvature="0" /></clipPath></defs><sodipodi:namedview
     pagecolor="#ffffff"
     bordercolor="#666666"
     borderopacity="1"
     objecttolerance="10"
     gridtolerance="10"
     guidetolerance="10"
     inkscape:pageopacity="0"
     inkscape:pageshadow="2"
     inkscape:window-width="1890"
     inkscape:window-height="1052"
     id="namedview4"
     showgrid="false"
     inkscape:zoom="4.5231015"
     inkscape:cx="457.4816"
     inkscape:cy="250.2983"
     inkscape:window-x="30"
     inkscape:window-y="0"
     inkscape:window-maximized="1"
     inkscape:current-layer="g6061" /><g
     id="g10"
     inkscape:groupmode="layer"
     inkscape:label="2731068"
     transform="matrix(1.3333333,0,0,-1.3333333,0,666.66667)"><g
       id="g5925"><g
         id="g6061"
         transform="matrix(0.5670412,0,0,0.59850187,148.26585,75.470583)"
         style="stroke-width:1.71656382"><g
           id="g6195"
           transform="translate(2.9242219,21.332912)"><g
             transform="matrix(0.55502133,0,0,0.55502133,358.73382,141.30672)"
             id="g138"
             style="stroke-width:3.0927887"><path
               inkscape:connector-curvature="0"
               id="path140"
               style="fill:#93c7ea;fill-opacity:1;fill-rule:nonzero;stroke:none;stroke-width:3.0927887"
               d="m 0,0 v 0 c -9.111,-2.578 -18.587,2.718 -21.165,11.829 l -13.603,48.076 c -2.578,9.111 2.718,18.586 11.83,21.164 9.11,2.578 18.585,-2.717 21.164,-11.829 L 11.829,21.164 C 14.406,12.054 9.11,2.578 0,0" /></g><g
             transform="matrix(0.55502133,0,0,0.55502133,347.95803,141.53167)"
             id="g142"
             style="stroke-width:3.0927887"><path
               inkscape:connector-curvature="0"
               id="path144"
               style="fill:#93c7ea;fill-opacity:1;fill-rule:nonzero;stroke:none;stroke-width:3.0927887"
               d="M 0,0 V 0 C -6.76,6.63 -6.865,17.485 -0.235,24.245 L 34.75,59.916 c 6.63,6.76 17.484,6.865 24.245,0.235 6.76,-6.63 6.865,-17.485 0.235,-24.245 L 24.245,0.235 C 17.615,-6.524 6.761,-6.63 0,0" /></g><g
             transform="matrix(0.55502133,0,0,0.55502133,386.59867,179.5533)"
             id="g146"
             style="stroke-width:3.0927887"><path
               inkscape:connector-curvature="0"
               id="path148"
               style="fill:#ff8383;fill-opacity:1;fill-rule:nonzero;stroke:none;stroke-width:3.0927887"
               d="m 0,0 c 4.599,-6.905 2.729,-16.23 -4.177,-20.829 -6.905,-4.599 -16.23,-2.729 -20.829,4.176 -4.598,6.905 -2.729,16.231 4.176,20.83 C -13.925,8.775 -4.599,6.905 0,0" /></g><g
             transform="matrix(0.55502133,0,0,0.55502133,374.07494,176.13487)"
             id="g150"
             style="stroke-width:3.0927887"><path
               inkscape:connector-curvature="0"
               id="path152"
               style="fill:#ff8383;fill-opacity:1;fill-rule:nonzero;stroke:none;stroke-width:3.0927887"
               d="M 0,0 V 0 C -2.094,-0.539 -4.229,0.721 -4.768,2.814 L -6.1,7.984 c -0.539,2.094 0.721,4.228 2.815,4.767 2.094,0.54 4.228,-0.721 4.767,-2.813 L 2.813,4.768 C 3.354,2.674 2.093,0.54 0,0" /></g><g
             transform="matrix(0.55502133,0,0,0.55502133,382.43767,186.01303)"
             id="g154"
             style="stroke-width:3.0927887"><path
               inkscape:connector-curvature="0"
               id="path156"
               style="fill:#ff8383;fill-opacity:1;fill-rule:nonzero;stroke:none;stroke-width:3.0927887"
               d="m 0,0 -5.322,-13.475 c -0.825,-2.088 -3.186,-3.111 -5.273,-2.287 -2.088,0.825 -3.111,3.186 -2.287,5.273 l 5.323,13.475 c 0.825,2.087 3.185,3.111 5.273,2.286 C -0.199,4.448 0.824,2.087 0,0" /></g><g
             transform="matrix(0.55502133,0,0,0.55502133,387.64421,184.44553)"
             id="g158"
             style="stroke-width:3.0927887"><path
               inkscape:connector-curvature="0"
               id="path160"
               style="fill:#ff8383;fill-opacity:1;fill-rule:nonzero;stroke:none;stroke-width:3.0927887"
               d="m 0,0 -6.428,-12.983 c -0.996,-2.012 -3.433,-2.835 -5.445,-1.84 -2.012,0.996 -2.835,3.433 -1.839,5.445 L -7.284,3.606 C -6.288,5.617 -3.851,6.44 -1.84,5.445 0.172,4.449 0.995,2.012 0,0" /></g><g
             transform="matrix(0.55502133,0,0,0.55502133,391.51693,180.43301)"
             id="g162"
             style="stroke-width:3.0927887"><path
               inkscape:connector-curvature="0"
               id="path164"
               style="fill:#ff8383;fill-opacity:1;fill-rule:nonzero;stroke:none;stroke-width:3.0927887"
               d="m 0,0 -8.977,-11.372 c -1.39,-1.762 -3.945,-2.063 -5.707,-0.672 -1.761,1.391 -2.062,3.946 -0.671,5.707 l 8.976,11.372 c 1.391,1.762 3.946,2.063 5.707,0.672 C 1.09,4.316 1.391,1.762 0,0" /></g><g
             transform="matrix(0.55502133,0,0,0.55502133,338.13459,195.65708)"
             id="g166"
             style="stroke-width:3.0927887"><path
               inkscape:connector-curvature="0"
               id="path168"
               style="fill:#ff8383;fill-opacity:1;fill-rule:nonzero;stroke:none;stroke-width:3.0927887"
               d="m 0,0 -5.829,0.229 c -3.917,0.155 -6.967,3.455 -6.814,7.372 L -11.424,38.577 8.59,37.79 7.371,6.813 C 7.217,2.896 3.917,-0.154 0,0" /></g><g
             transform="matrix(0.55502133,0,0,0.55502133,342.90211,217.2357)"
             id="g170"
             style="stroke-width:3.0927887"><path
               inkscape:connector-curvature="0"
               id="path172"
               style="fill:#d15e79;fill-opacity:1;fill-rule:nonzero;stroke:none;stroke-width:3.0927887"
               d="m 0,0 -20.014,0.787 -0.309,-7.86 c -0.303,-7.703 5.968,-14.464 13.656,-13.905 0.479,0.035 0.958,0.094 1.438,0.18 1.605,0.287 3.101,0.857 4.475,1.637 z" /></g><g
             transform="matrix(0.55502133,0,0,0.55502133,348.47947,234.25193)"
             id="g174"
             style="stroke-width:3.0927887"><path
               inkscape:connector-curvature="0"
               id="path176"
               style="fill:#1b2a67;fill-opacity:1;fill-rule:nonzero;stroke:none;stroke-width:3.0927887"
               d="m 0,0 c 5.17,-9.4 -0.814,-21.466 -13.365,-26.951 -12.552,-5.484 -26.917,-2.31 -32.087,7.089 -5.17,9.4 0.814,21.466 13.365,26.951 C -19.535,12.573 -5.17,9.399 0,0" /></g><g
             transform="matrix(0.55502133,0,0,0.55502133,356.17983,232.67767)"
             id="g178"
             style="stroke-width:3.0927887"><path
               inkscape:connector-curvature="0"
               id="path180"
               style="fill:#1b2a67;fill-opacity:1;fill-rule:nonzero;stroke:none;stroke-width:3.0927887"
               d="m 0,0 c 3.431,-7.378 -3.235,-16.112 -14.888,-19.509 -11.653,-3.396 -23.88,-0.169 -27.31,7.21 -3.43,7.378 3.236,16.112 14.888,19.508 C -15.656,10.606 -3.43,7.378 0,0" /></g><g
             transform="matrix(0.55502133,0,0,0.55502133,345.57315,242.90027)"
             id="g182"
             style="stroke-width:3.0927887"><path
               inkscape:connector-curvature="0"
               id="path184"
               style="fill:#1b2a67;fill-opacity:1;fill-rule:nonzero;stroke:none;stroke-width:3.0927887"
               d="m 0,0 c 6.903,-4.307 6.09,-15.264 -1.815,-24.474 -7.907,-9.209 -19.912,-13.184 -26.815,-8.877 -6.902,4.307 -6.09,15.264 1.817,24.474 C -18.908,0.333 -6.903,4.307 0,0" /></g><g
             transform="matrix(0.55502133,0,0,0.55502133,349.33692,219.99021)"
             id="g186"
             style="stroke-width:3.0927887"><path
               inkscape:connector-curvature="0"
               id="path188"
               style="fill:#ff8383;fill-opacity:1;fill-rule:nonzero;stroke:none;stroke-width:3.0927887"
               d="m 0,0 c 1.97,-11.039 -3.808,-21.307 -12.904,-22.93 -9.095,-1.623 -18.066,6.012 -20.036,17.052 l -1.55,8.689 c -1.971,11.039 3.805,21.306 12.9,22.929 9.097,1.624 18.069,-6.011 20.039,-17.052 z" /></g><g
             transform="matrix(0.55502133,0,0,0.55502133,338.55302,235.00426)"
             id="g190"
             style="stroke-width:3.0927887"><path
               inkscape:connector-curvature="0"
               id="path192"
               style="fill:#1b2a67;fill-opacity:1;fill-rule:nonzero;stroke:none;stroke-width:3.0927887"
               d="m 0,0 c -5.03,4.554 -13.786,2.352 -19.557,-4.919 -5.769,-7.271 -6.369,-16.855 -1.338,-21.409 5.031,-4.553 13.787,-2.351 19.556,4.919 C 4.432,-14.139 5.031,-4.553 0,0" /></g><g
             transform="matrix(0.55502133,0,0,0.55502133,340.39481,221.35173)"
             id="g194"
             style="stroke-width:3.0927887"><path
               inkscape:connector-curvature="0"
               id="path196"
               style="fill:#86294e;fill-opacity:1;fill-rule:nonzero;stroke:none;stroke-width:3.0927887"
               d="m 0,0 c -0.29,0 -0.576,0.138 -0.754,0.393 -0.284,0.416 -0.183,0.982 0.231,1.268 0.121,0.081 3.022,2.051 6.098,0.26 C 6.011,1.666 6.159,1.104 5.904,0.669 5.652,0.232 5.096,0.084 4.654,0.34 2.594,1.541 0.602,0.214 0.516,0.158 0.358,0.051 0.179,0 0,0" /></g><g
             transform="matrix(0.55502133,0,0,0.55502133,349.15371,221.35012)"
             id="g198"
             style="stroke-width:3.0927887"><path
               inkscape:connector-curvature="0"
               id="path200"
               style="fill:#86294e;fill-opacity:1;fill-rule:nonzero;stroke:none;stroke-width:3.0927887"
               d="M 0,0 C -0.179,0 -0.358,0.052 -0.517,0.161 -0.603,0.217 -2.594,1.544 -4.655,0.343 -5.093,0.087 -5.649,0.235 -5.905,0.672 -6.16,1.107 -6.012,1.669 -5.576,1.924 -2.495,3.726 0.4,1.748 0.522,1.664 0.937,1.376 1.039,0.807 0.751,0.391 0.574,0.136 0.289,0 0,0" /></g><g
             transform="matrix(0.55502133,0,0,0.55502133,342.68532,219.98588)"
             id="g202"
             style="stroke-width:3.0927887"><path
               inkscape:connector-curvature="0"
               id="path204"
               style="fill:#86294e;fill-opacity:1;fill-rule:nonzero;stroke:none;stroke-width:3.0927887"
               d="m 0,0 c -0.021,-0.526 -0.464,-0.937 -0.991,-0.916 -0.527,0.02 -0.937,0.464 -0.915,0.991 0.02,0.527 0.464,0.937 0.99,0.915 C -0.39,0.97 0.021,0.526 0,0" /></g><g
             transform="matrix(0.55502133,0,0,0.55502133,347.7651,219.78585)"
             id="g206"
             style="stroke-width:3.0927887"><path
               inkscape:connector-curvature="0"
               id="path208"
               style="fill:#86294e;fill-opacity:1;fill-rule:nonzero;stroke:none;stroke-width:3.0927887"
               d="m 0,0 c -0.021,-0.526 -0.465,-0.937 -0.991,-0.916 -0.527,0.021 -0.937,0.465 -0.916,0.991 0.02,0.527 0.465,0.937 0.991,0.916 C -0.39,0.971 0.021,0.526 0,0" /></g><g
             transform="matrix(0.55502133,0,0,0.55502133,348.99059,223.729)"
             id="g210"
             style="stroke-width:3.0927887"><path
               inkscape:connector-curvature="0"
               id="path212"
               style="fill:#ffd2d4;fill-opacity:1;fill-rule:nonzero;stroke:none;stroke-width:3.0927887"
               d="m 0,0 c -1.572,0 -3.063,-0.584 -4.225,-1.658 -1.222,-1.13 -1.933,-2.668 -1.999,-4.334 -0.066,-1.664 0.521,-3.256 1.653,-4.478 1.13,-1.224 2.67,-1.933 4.333,-2 1.678,-0.028 3.256,0.521 4.48,1.653 1.223,1.13 1.934,2.669 1.999,4.335 0.066,1.666 -0.522,3.255 -1.652,4.48 C 3.457,-0.78 1.918,-0.071 0.254,-0.005 0.169,-0.002 0.085,0 0,0 m 0.017,-13.743 c -0.101,0 -0.203,0.003 -0.305,0.008 -2.001,0.076 -3.855,0.93 -5.216,2.403 -1.359,1.472 -2.066,3.388 -1.987,5.391 0.079,2.003 0.933,3.854 2.404,5.214 1.474,1.36 3.373,2.08 5.391,1.988 2.003,-0.076 3.855,-0.932 5.217,-2.404 1.36,-1.471 2.067,-3.385 1.988,-5.39 -0.079,-2.003 -0.934,-3.856 -2.406,-5.215 -1.398,-1.294 -3.194,-1.995 -5.086,-1.995" /></g><g
             transform="matrix(0.55502133,0,0,0.55502133,340.04087,224.5052)"
             id="g214"
             style="stroke-width:3.0927887"><path
               inkscape:connector-curvature="0"
               id="path216"
               style="fill:#ffd2d4;fill-opacity:1;fill-rule:nonzero;stroke:none;stroke-width:3.0927887"
               d="m 0,0 c -1.766,0 -3.441,-0.653 -4.745,-1.859 -1.374,-1.271 -2.171,-2.998 -2.244,-4.869 -0.152,-3.857 2.864,-7.118 6.722,-7.271 1.85,-0.089 3.654,0.585 5.028,1.855 1.374,1.271 2.171,2.998 2.245,4.868 C 7.08,-5.406 6.421,-3.62 5.151,-2.248 3.882,-0.875 2.153,-0.076 0.283,-0.005 0.189,0 0.095,0 0,0 m 0.019,-15.43 c -0.115,0 -0.228,0.002 -0.341,0.008 -4.644,0.184 -8.273,4.109 -8.09,8.75 0.088,2.251 1.047,4.33 2.7,5.859 1.652,1.53 3.803,2.338 6.052,2.232 C 2.589,1.332 4.669,0.372 6.197,-1.28 7.726,-2.934 8.518,-5.082 8.43,-7.332 8.34,-9.582 7.381,-11.662 5.728,-13.189 4.159,-14.642 2.142,-15.43 0.019,-15.43" /></g><g
             transform="matrix(0.55502133,0,0,0.55502133,343.91625,219.88886)"
             id="g218"
             style="stroke-width:3.0927887"><path
               inkscape:connector-curvature="0"
               id="path220"
               style="fill:#ffd2d4;fill-opacity:1;fill-rule:nonzero;stroke:none;stroke-width:3.0927887"
               d="M 0,0 3.1,-0.122 C 3.46,-0.137 3.764,0.145 3.778,0.505 3.792,0.865 3.512,1.169 3.151,1.184 l -3.1,0.121 C -0.31,1.319 -0.613,1.039 -0.627,0.678 -0.642,0.317 -0.36,0.014 0,0" /></g><g
             transform="matrix(0.55502133,0,0,0.55502133,347.36127,217.44977)"
             id="g222"
             style="stroke-width:3.0927887"><path
               inkscape:connector-curvature="0"
               id="path224"
               style="fill:#86294e;fill-opacity:1;fill-rule:nonzero;stroke:none;stroke-width:3.0927887"
               d="M 0,0 C -0.088,-1.089 -1.353,-2.082 -2.824,-2.217 -4.296,-2.353 -5.417,-1.579 -5.328,-0.49 -5.24,0.6 -3.976,1.592 -2.504,1.728 -1.032,1.862 0.089,1.089 0,0" /></g><g
             transform="matrix(0.55502133,0,0,0.55502133,347.01493,214.19823)"
             id="g226"
             style="stroke-width:3.0927887"><path
               inkscape:connector-curvature="0"
               id="path228"
               style="fill:#86294e;fill-opacity:1;fill-rule:nonzero;stroke:none;stroke-width:3.0927887"
               d="M 0,0 C -0.099,-2.527 -2.399,-4.489 -5.137,-4.381 -7.875,-4.273 -9.455,-1.562 -9.355,0.966 -6.143,1.253 -3.02,0.956 0,0" /></g><g
             transform="matrix(0.55502133,0,0,0.55502133,344.38347,213.32019)"
             id="g230"
             style="stroke-width:3.0927887"><path
               inkscape:connector-curvature="0"
               id="path232"
               style="fill:#ffd2d4;fill-opacity:1;fill-rule:nonzero;stroke:none;stroke-width:3.0927887"
               d="M 0,0 C -2.164,0.251 -3.499,0.993 -3.626,2.619 -0.927,2.763 1.709,2.489 4.271,1.742 3.901,0.276 2.121,-0.245 0,0" /></g><g
             transform="matrix(0.55502133,0,0,0.55502133,340.83272,211.20633)"
             id="g234"
             style="stroke-width:3.0927887"><path
               inkscape:connector-curvature="0"
               id="path236"
               style="fill:#201028;fill-opacity:1;fill-rule:nonzero;stroke:none;stroke-width:3.0927887"
               d="m 0,0 v 0 l -5.381,0.005 c -2.171,0 -4.254,0.801 -5.866,2.258 l -3.368,3.038 c -0.268,0.243 -0.289,0.656 -0.047,0.921 0.241,0.27 0.654,0.289 0.922,0.049 l 3.368,-3.039 c 1.371,-1.24 3.144,-1.921 4.991,-1.921 L 0,1.306 C 0.36,1.306 0.652,1.013 0.652,0.652 0.652,0.29 0.36,0 0,0" /></g><g
             transform="matrix(0.55502133,0,0,0.55502133,340.83272,210.84374)"
             id="g238"
             style="stroke-width:3.0927887"><path
               inkscape:connector-curvature="0"
               id="path240"
               style="fill:#ffd2d4;fill-opacity:1;fill-rule:nonzero;stroke:none;stroke-width:3.0927887"
               d="m 0,0 h -0.002 l -2.181,0.002 c -0.722,0 -1.306,0.587 -1.305,1.31 0.002,0.718 0.586,1.303 1.306,1.303 h 10e-4 L 0.001,2.612 C 0.723,2.612 1.308,2.025 1.306,1.304 1.305,0.584 0.721,0 0,0" /></g><g
             transform="matrix(0.55502133,0,0,0.55502133,337.17307,217.66822)"
             id="g242"
             style="stroke-width:3.0927887"><path
               inkscape:connector-curvature="0"
               id="path244"
               style="fill:#445eea;fill-opacity:1;fill-rule:nonzero;stroke:none;stroke-width:3.0927887"
               d="m 0,0 c -0.237,-6.037 -5.324,-10.739 -11.361,-10.502 -6.037,0.238 -10.74,5.324 -10.502,11.361 0.237,6.037 5.324,10.74 11.361,10.502 C -4.465,11.124 0.237,6.037 0,0" /></g><g
             transform="matrix(0.55502133,0,0,0.55502133,334.95299,217.75547)"
             id="g246"
             style="stroke-width:3.0927887"><path
               inkscape:connector-curvature="0"
               id="path248"
               style="fill:#91a8f6;fill-opacity:1;fill-rule:nonzero;stroke:none;stroke-width:3.0927887"
               d="m 0,0 c -0.202,-5.153 -4.187,-9.182 -8.898,-8.996 -4.712,0.185 -8.368,4.514 -8.165,9.667 0.203,5.154 4.187,9.182 8.899,8.996 C -3.452,9.481 0.203,5.153 0,0" /></g><g
             transform="matrix(0.55502133,0,0,0.55502133,330.95778,217.91265)"
             id="g250"
             style="stroke-width:3.0927887"><path
               inkscape:connector-curvature="0"
               id="path252"
               style="fill:#e0eef7;fill-opacity:1;fill-rule:nonzero;stroke:none;stroke-width:3.0927887"
               d="m 0,0 c -0.082,-2.088 -1.462,-3.729 -3.081,-3.665 -1.62,0.063 -2.866,1.808 -2.784,3.895 0.082,2.088 1.461,3.729 3.081,3.666 C -1.164,3.832 0.082,2.088 0,0" /></g><g
             transform="matrix(0.55502133,0,0,0.55502133,345.77535,133.13964)"
             id="g254"
             style="stroke-width:3.0927887"><path
               inkscape:connector-curvature="0"
               id="path256"
               style="fill:#93c7ea;fill-opacity:1;fill-rule:nonzero;stroke:none;stroke-width:3.0927887"
               d="m 0,0 -52.33,-1.475 c -8.724,0.344 -15.518,7.694 -15.175,16.418 l 3.306,87.574 c 0.179,4.577 3.207,8.552 7.572,9.942 l 39.013,12.422 31.184,-14.946 c 3.916,-1.877 6.342,-5.903 6.171,-10.243 L 16.417,15.175 C 16.074,6.45 8.724,-0.344 0,0" /></g><g
             transform="matrix(0.55502133,0,0,0.55502133,356.73214,188.4716)"
             id="g258"
             style="stroke-width:3.0927887"><path
               inkscape:connector-curvature="0"
               id="path260"
               style="fill:#6eacce;fill-opacity:1;fill-rule:nonzero;stroke:none;stroke-width:3.0927887"
               d="m 0,0 c 0.18,-9.132 0.074,-18.253 -0.075,-27.371 -0.12,-9.119 -0.446,-18.232 -0.771,-27.343 -0.387,-9.109 -0.78,-18.219 -1.375,-27.319 -0.134,-2.212 -0.246,-4.704 -1.081,-6.969 -0.79,-2.263 -2.055,-4.354 -3.731,-6.037 -3.36,-3.344 -8.142,-5.152 -12.708,-4.654 4.571,0.098 8.948,2.146 11.766,5.521 1.448,1.644 2.504,3.603 3.103,5.677 0.64,2.08 0.622,4.212 0.643,6.541 0.122,9.12 0.446,18.231 0.775,27.344 0.391,9.107 0.782,18.216 1.38,27.318 C -1.507,-18.19 -0.896,-9.09 0,0" /></g><g
             transform="matrix(0.55502133,0,0,0.55502133,343.94766,193.2565)"
             id="g262"
             style="stroke-width:3.0927887"><path
               inkscape:connector-curvature="0"
               id="path264"
               style="fill:#93c7ea;fill-opacity:1;fill-rule:nonzero;stroke:none;stroke-width:3.0927887"
               d="m 0,0 -28.243,1.821 1.083,16.788 c 0.135,2.087 1.935,3.669 4.022,3.535 L -2.452,20.81 c 2.087,-0.135 3.67,-1.936 3.535,-4.023 z" /></g><g
             transform="matrix(0.55502133,0,0,0.55502133,297.24839,147.38648)"
             id="g266"
             style="stroke-width:3.0927887"><path
               inkscape:connector-curvature="0"
               id="path268"
               style="fill:#93c7ea;fill-opacity:1;fill-rule:nonzero;stroke:none;stroke-width:3.0927887"
               d="M 0,0 V 0 C -8.745,3.632 -12.89,13.665 -9.258,22.409 L 9.905,68.552 c 3.632,8.744 13.665,12.889 22.409,9.258 8.745,-3.632 12.89,-13.665 9.258,-22.41 L 22.408,9.258 C 18.777,0.514 8.744,-3.631 0,0" /></g><g
             transform="matrix(0.55502133,0,0,0.55502133,315.18357,190.57247)"
             id="g270"
             style="stroke-width:3.0927887"><path
               inkscape:connector-curvature="0"
               id="path272"
               style="fill:#6eacce;fill-opacity:1;fill-rule:nonzero;stroke:none;stroke-width:3.0927887"
               d="m 0,0 c 3.062,-0.991 5.853,-2.959 7.92,-5.563 2.026,-2.628 3.321,-5.882 3.604,-9.26 0.453,-3.357 -0.627,-6.935 -1.86,-9.823 L 6.045,-33.549 C 3.56,-39.455 1.07,-45.359 -1.605,-51.185 l -4.023,-8.737 c -1.43,-2.875 -2.775,-5.784 -4.278,-8.629 0.956,3.072 2.067,6.079 3.095,9.12 l 3.35,9.017 c 2.238,6.008 4.664,11.938 7.095,17.866 l 3.753,8.849 c 0.64,1.512 1.303,2.847 1.622,4.305 0.354,1.45 0.563,2.95 0.518,4.457 C 9.446,-8.881 5.741,-2.928 0,0" /></g><g
             transform="matrix(0.55502133,0,0,0.55502133,337.11613,167.7228)"
             id="g274"
             style="stroke-width:3.0927887"><path
               inkscape:connector-curvature="0"
               id="path276"
               style="fill:#86294e;fill-opacity:1;fill-rule:nonzero;stroke:none;stroke-width:3.0927887"
               d="m 0,0 c -1.116,0.072 -2.082,-0.778 -2.154,-1.894 l -0.254,-3.935 c -0.071,-1.115 0.777,-2.083 1.893,-2.155 l 4.82,-0.311 0.515,7.984 z m 7.963,-12.458 -8.73,0.563 c -3.273,0.211 -5.762,3.046 -5.551,6.318 l 0.254,3.935 c 0.21,3.273 3.043,5.764 6.317,5.553 L 8.982,3.348 Z" /></g><g
             transform="matrix(0.55502133,0,0,0.55502133,346.248,153.83966)"
             id="g278"
             style="stroke-width:3.0927887"><path
               inkscape:connector-curvature="0"
               id="path280"
               style="fill:#d15e79;fill-opacity:1;fill-rule:nonzero;stroke:none;stroke-width:3.0927887"
               d="m 0,0 -7.551,0.487 c -4.585,0.296 -8.062,4.253 -7.766,8.838 l 1.565,24.274 c 0.175,2.708 24.33,1.15 24.155,-1.558 L 8.838,7.767 C 8.542,3.182 4.585,-0.296 0,0" /></g><g
             transform="matrix(0.55502133,0,0,0.55502133,350.68651,171.25834)"
             id="g282"
             style="stroke-width:3.0927887"><path
               inkscape:connector-curvature="0"
               id="path284"
               style="fill:#86294e;fill-opacity:1;fill-rule:nonzero;stroke:none;stroke-width:3.0927887"
               d="m 0,0 c -0.062,-0.976 -4.548,-1.479 -10.017,-1.127 -5.468,0.353 -9.851,1.429 -9.789,2.404 0.064,0.975 4.548,1.48 10.017,1.127 C -4.319,2.051 0.062,0.975 0,0" /></g><g
             transform="matrix(0.55502133,0,0,0.55502133,291.97513,155.94214)"
             id="g286"
             style="stroke-width:3.0927887"><path
               inkscape:connector-curvature="0"
               id="path288"
               style="fill:#93c7ea;fill-opacity:1;fill-rule:nonzero;stroke:none;stroke-width:3.0927887"
               d="M 0,0 V 0 C 0.149,9.468 7.945,17.021 17.413,16.872 L 67.371,16.084 C 76.838,15.935 84.392,8.138 84.242,-1.329 84.093,-10.797 76.297,-18.351 66.829,-18.201 l -49.957,0.789 C 7.404,-17.263 -0.149,-9.467 0,0" /></g><g
             transform="matrix(0.55502133,0,0,0.55502133,301.63977,165.30651)"
             id="g290"
             style="stroke-width:3.0927887"><path
               inkscape:connector-curvature="0"
               id="path292"
               style="fill:#6eacce;fill-opacity:1;fill-rule:nonzero;stroke:none;stroke-width:3.0927887"
               d="m 0,0 c 6.415,0.437 12.825,0.59 19.235,0.696 6.411,0.138 12.818,0.071 19.225,0.003 l 9.607,-0.22 c 3.141,-0.022 6.855,-0.451 9.753,-2.204 2.988,-1.605 5.455,-4.09 7.062,-6.994 1.565,-2.935 2.259,-6.278 1.947,-9.483 -0.403,6.432 -4.39,12.199 -9.911,14.682 -1.366,0.64 -2.823,1.049 -4.293,1.3 -1.466,0.287 -2.954,0.211 -4.596,0.225 l -9.611,0.083 C 32.012,-1.778 25.606,-1.643 19.204,-1.304 12.801,-0.993 6.397,-0.641 0,0" /></g><g
             transform="matrix(0.55502133,0,0,0.55502133,348.30114,158.05655)"
             id="g294"
             style="stroke-width:3.0927887"><path
               inkscape:connector-curvature="0"
               id="path296"
               style="fill:#ff8383;fill-opacity:1;fill-rule:nonzero;stroke:none;stroke-width:3.0927887"
               d="m 0,0 c 0.769,-8.26 -5.305,-15.58 -13.565,-16.349 -8.261,-0.768 -15.581,5.305 -16.349,13.566 -0.769,8.261 5.305,15.58 13.565,16.348 C -8.088,14.334 -0.769,8.261 0,0" /></g><g
             transform="matrix(0.55502133,0,0,0.55502133,335.68795,161.27989)"
             id="g298"
             style="stroke-width:3.0927887"><path
               inkscape:connector-curvature="0"
               id="path300"
               style="fill:#ff8383;fill-opacity:1;fill-rule:nonzero;stroke:none;stroke-width:3.0927887"
               d="m 0,0 v 0 c -1.875,0.648 -2.868,2.694 -2.22,4.569 l 1.602,4.629 c 0.649,1.875 2.694,2.868 4.569,2.22 C 5.826,10.77 6.82,8.724 6.171,6.849 L 4.569,2.22 C 3.921,0.345 1.875,-0.649 0,0" /></g><g
             transform="matrix(0.55502133,0,0,0.55502133,351.65241,160.18883)"
             id="g302"
             style="stroke-width:3.0927887"><path
               inkscape:connector-curvature="0"
               id="path304"
               style="fill:#ff8383;fill-opacity:1;fill-rule:nonzero;stroke:none;stroke-width:3.0927887"
               d="m 0,0 -13.332,-1.24 c -2.064,-0.193 -3.895,1.326 -4.087,3.391 -0.192,2.065 1.326,3.895 3.392,4.087 L -0.696,7.479 C 1.369,7.671 3.199,6.152 3.392,4.087 3.583,2.022 2.065,0.192 0,0" /></g><g
             transform="matrix(0.55502133,0,0,0.55502133,350.08492,153.38493)"
             id="g306"
             style="stroke-width:3.0927887"><path
               inkscape:connector-curvature="0"
               id="path308"
               style="fill:#ff8383;fill-opacity:1;fill-rule:nonzero;stroke:none;stroke-width:3.0927887"
               d="m 0,0 -13.361,0.862 c -2.07,0.133 -3.64,1.919 -3.506,3.99 0.134,2.069 1.92,3.639 3.989,3.505 L 0.483,7.495 C 2.553,7.362 4.123,5.576 3.989,3.506 3.855,1.437 2.069,-0.133 0,0" /></g><g
             transform="matrix(0.55502133,0,0,0.55502133,425.49517,178.66765)"
             id="g310"
             style="stroke-width:3.0927887"><path
               inkscape:connector-curvature="0"
               id="path312"
               style="fill:#445eea;fill-opacity:1;fill-rule:nonzero;stroke:none;stroke-width:3.0927887"
               d="m 0,0 c -0.401,0 -0.802,0.153 -1.107,0.459 -0.613,0.61 -0.613,1.603 0,2.215 l 14.958,14.96 c 0.607,0.612 1.601,0.612 2.213,0 0.613,-0.61 0.613,-1.602 0,-2.214 L 1.106,0.459 C 0.804,0.153 0.4,0 0,0" /></g><g
             transform="matrix(0.55502133,0,0,0.55502133,419.58342,183.76258)"
             id="g314"
             style="stroke-width:3.0927887"><path
               inkscape:connector-curvature="0"
               id="path316"
               style="fill:#445eea;fill-opacity:1;fill-rule:nonzero;stroke:none;stroke-width:3.0927887"
               d="m 0,0 c -0.865,0 -1.567,0.701 -1.567,1.566 v 21.155 c 0,0.865 0.702,1.566 1.567,1.566 0.864,0 1.566,-0.701 1.566,-1.566 V 1.566 C 1.566,0.701 0.864,0 0,0" /></g><g
             transform="matrix(0.55502133,0,0,0.55502133,442.33119,172.75595)"
             id="g318"
             style="stroke-width:3.0927887"><path
               inkscape:connector-curvature="0"
               id="path320"
               style="fill:#445eea;fill-opacity:1;fill-rule:nonzero;stroke:none;stroke-width:3.0927887"
               d="m 0,0 h -21.157 c -0.865,0 -1.567,0.701 -1.567,1.566 0,0.866 0.702,1.567 1.567,1.567 H 0 C 0.865,3.133 1.566,2.432 1.566,1.566 1.566,0.701 0.865,0 0,0" /></g><g
             transform="matrix(0.55502133,0,0,0.55502133,338.0419,136.23294)"
             id="g322"
             style="stroke-width:3.0927887"><path
               inkscape:connector-curvature="0"
               id="path324"
               style="fill:#6eacce;fill-opacity:1;fill-rule:nonzero;stroke:none;stroke-width:3.0927887"
               d="m 0,0 h 129.439 c 3.611,0 4.723,2.926 4.723,6.538 H -6.54 C -6.54,2.926 -3.611,0 0,0" /></g><g
             transform="matrix(0.55502133,0,0,0.55502133,333.87491,139.86173)"
             id="g326"
             style="stroke-width:3.0927887"><path
               inkscape:connector-curvature="0"
               id="path328"
               style="fill:#6eacce;fill-opacity:1;fill-rule:nonzero;stroke:none;stroke-width:3.0927887"
               d="m 0,0 h 45.882 c 0,-3.612 -3.323,-6.538 -7.425,-6.538 H 8.388 c -0.04,0 -8.542,0.001 -8.583,0.001 C -4.425,-6.477 -4.229,0 0,0" /></g><g
             transform="matrix(0.55502133,0,0,0.55502133,360.92948,138.80585)"
             id="g330"
             style="stroke-width:3.0927887"><path
               inkscape:connector-curvature="0"
               id="path332"
               style="fill:#e0eef7;fill-opacity:1;fill-rule:nonzero;stroke:none;stroke-width:3.0927887"
               d="m 0,0 h 92.925 c 2.758,0 5.132,1.965 5.643,4.674 l 12.525,53.744 c 0.674,3.54 -2.041,6.819 -5.645,6.819 H 12.526 c -2.763,0 -5.131,-1.965 -5.647,-4.675 L -5.645,6.819 C -6.315,3.279 -3.603,0 0,0" /></g><g
             transform="matrix(0.55502133,0,0,0.55502133,364.74742,172.41878)"
             id="g334"
             style="stroke-width:3.0927887"><path
               inkscape:connector-curvature="0"
               id="path336"
               style="fill:#6eacce;fill-opacity:1;fill-rule:nonzero;stroke:none;stroke-width:3.0927887"
               d="M 0,0 C 0.279,1.491 1.131,2.753 2.292,3.591 4.029,2.336 5.024,0.158 4.584,-2.144 L -7.937,-55.888 c -0.285,-1.491 -1.128,-2.749 -2.291,-3.587 -1.736,1.253 -2.732,3.435 -2.295,5.733 z" /></g><g
             transform="matrix(0.55502133,0,0,0.55502133,341.5639,138.86169)"
             id="g342"
             style="stroke-width:3.0927887"><path
               inkscape:connector-curvature="0"
               id="path344"
               style="fill:#6eacce;fill-opacity:1;fill-rule:nonzero;stroke:none;stroke-width:3.0927887"
               d="m 0,0 h -4.572 c -0.902,0 -1.633,0.73 -1.633,1.633 0,0.901 0.731,1.633 1.633,1.633 H 0 C 0.901,3.266 1.633,2.534 1.633,1.633 1.633,0.73 0.901,0 0,0" /></g><g
             transform="matrix(0.55502133,0,0,0.55502133,346.51791,138.86169)"
             id="g346"
             style="stroke-width:3.0927887"><path
               inkscape:connector-curvature="0"
               id="path348"
               style="fill:#6eacce;fill-opacity:1;fill-rule:nonzero;stroke:none;stroke-width:3.0927887"
               d="m 0,0 h -4.572 c -0.902,0 -1.633,0.73 -1.633,1.633 0,0.901 0.731,1.633 1.633,1.633 H 0 C 0.901,3.266 1.633,2.534 1.633,1.633 1.633,0.73 0.901,0 0,0" /></g><g
             transform="matrix(0.55502133,0,0,0.55502133,351.47192,138.86169)"
             id="g350"
             style="stroke-width:3.0927887"><path
               inkscape:connector-curvature="0"
               id="path352"
               style="fill:#6eacce;fill-opacity:1;fill-rule:nonzero;stroke:none;stroke-width:3.0927887"
               d="m 0,0 h -4.571 c -0.903,0 -1.633,0.73 -1.633,1.633 0,0.901 0.73,1.633 1.633,1.633 H 0 C 0.902,3.266 1.633,2.534 1.633,1.633 1.633,0.73 0.902,0 0,0" /></g><g
             transform="matrix(0.55502133,0,0,0.55502133,356.42593,138.86169)"
             id="g354"
             style="stroke-width:3.0927887"><path
               inkscape:connector-curvature="0"
               id="path356"
               style="fill:#6eacce;fill-opacity:1;fill-rule:nonzero;stroke:none;stroke-width:3.0927887"
               d="m 0,0 h -4.571 c -0.903,0 -1.633,0.73 -1.633,1.633 0,0.901 0.73,1.633 1.633,1.633 H 0 C 0.902,3.266 1.633,2.534 1.633,1.633 1.633,0.73 0.902,0 0,0" /></g><g
             transform="matrix(0.55502133,0,0,0.55502133,450.95517,132.08005)"
             id="g358"
             style="stroke-width:3.0927887"><path
               inkscape:connector-curvature="0"
               id="path360"
               style="fill:#1b2a67;fill-opacity:1;fill-rule:nonzero;stroke:none;stroke-width:3.0927887"
               d="m 0,0 h -391.001 c -2.165,0 -3.919,1.754 -3.919,3.918 0,2.164 1.754,3.919 3.919,3.919 H 0 C 2.164,7.837 3.918,6.082 3.918,3.918 3.918,1.754 2.164,0 0,0" /></g><g
             transform="matrix(0.55502133,0,0,0.55502133,266.42517,149.80221)"
             id="g362"
             style="stroke-width:3.0927887"><path
               inkscape:connector-curvature="0"
               id="path364"
               style="fill:none;stroke:#1b2a67;stroke-width:2.55773664;stroke-linecap:round;stroke-linejoin:miter;stroke-miterlimit:10;stroke-dasharray:none;stroke-opacity:1"
               d="M 0,0 C 0,0 -2.877,21.621 -8.088,26.937" /></g><g
             transform="matrix(0.55502133,0,0,0.55502133,262.40343,171.89251)"
             id="g366"
             style="stroke-width:3.0927887"><path
               inkscape:connector-curvature="0"
               id="path368"
               style="fill:#ffd2d4;fill-opacity:1;fill-rule:nonzero;stroke:none;stroke-width:3.0927887"
               d="m 0,0 c 1.393,-4.607 1.108,-8.77 -0.635,-9.297 -1.743,-0.526 -4.285,2.782 -5.677,7.39 -0.013,0.047 -0.027,0.093 -0.041,0.138 -1.179,4.106 5.02,5.978 6.311,1.907 C -0.027,0.092 -0.014,0.046 0,0" /></g><g
             transform="matrix(0.55502133,0,0,0.55502133,266.99268,166.17751)"
             id="g370"
             style="stroke-width:3.0927887"><path
               inkscape:connector-curvature="0"
               id="path372"
               style="fill:#ffd2d4;fill-opacity:1;fill-rule:nonzero;stroke:none;stroke-width:3.0927887"
               d="m 0,0 c -4.607,-1.393 -8.771,-1.108 -9.297,0.635 -0.526,1.743 2.782,4.285 7.39,5.677 0.046,0.014 0.092,0.027 0.138,0.041 C 2.336,7.532 4.209,1.333 0.138,0.042 0.092,0.028 0.046,0.014 0,0" /></g><g
             transform="matrix(0.55502133,0,0,0.55502133,258.24349,163.53411)"
             id="g374"
             style="stroke-width:3.0927887"><path
               inkscape:connector-curvature="0"
               id="path376"
               style="fill:#ffd2d4;fill-opacity:1;fill-rule:nonzero;stroke:none;stroke-width:3.0927887"
               d="M 0,0 C 4.608,1.393 7.917,3.934 7.39,5.677 6.863,7.42 2.701,7.704 -1.906,6.312 -1.953,6.298 -1.999,6.284 -2.044,6.27 -6.116,4.979 -4.243,-1.221 -0.138,-0.041 Z" /></g><g
             transform="matrix(0.55502133,0,0,0.55502133,262.54873,160.62729)"
             id="g378"
             style="stroke-width:3.0927887"><path
               inkscape:connector-curvature="0"
               id="path380"
               style="fill:#ffd2d4;fill-opacity:1;fill-rule:nonzero;stroke:none;stroke-width:3.0927887"
               d="M 0,0 C 1.295,4.636 0.924,8.791 -0.83,9.281 -2.584,9.771 -5.056,6.41 -6.351,1.774 -6.363,1.728 -6.376,1.682 -6.389,1.635 -7.481,-2.494 -1.245,-4.236 -0.04,-0.139 -0.026,-0.093 -0.013,-0.047 0,0" /></g><g
             transform="matrix(0.55502133,0,0,0.55502133,265.01758,161.37313)"
             id="g382"
             style="stroke-width:3.0927887"><path
               inkscape:connector-curvature="0"
               id="path384"
               style="fill:#ffd2d4;fill-opacity:1;fill-rule:nonzero;stroke:none;stroke-width:3.0927887"
               d="M 0,0 C -3.646,3.143 -5.638,6.809 -4.448,8.188 -3.26,9.567 0.66,8.137 4.306,4.994 4.342,4.962 4.378,4.931 4.414,4.898 7.61,2.066 3.382,-2.838 0.109,-0.094 0.073,-0.062 0.036,-0.031 0,0" /></g><g
             transform="matrix(0.55502133,0,0,0.55502133,263.25655,166.39757)"
             id="g386"
             style="stroke-width:3.0927887"><path
               inkscape:connector-curvature="0"
               id="path388"
               style="fill:#d15e79;fill-opacity:1;fill-rule:nonzero;stroke:none;stroke-width:3.0927887"
               d="m 0,0 c 0.36,-1.191 -0.314,-2.449 -1.506,-2.81 -1.191,-0.359 -2.449,0.315 -2.808,1.506 -0.361,1.192 0.313,2.45 1.504,2.81 C -1.617,1.865 -0.36,1.191 0,0" /></g><g
             transform="matrix(0.55502133,0,0,0.55502133,261.70915,157.51618)"
             id="g390"
             style="stroke-width:3.0927887"><path
               inkscape:connector-curvature="0"
               id="path392"
               style="fill:#445eea;fill-opacity:1;fill-rule:nonzero;stroke:none;stroke-width:3.0927887"
               d="m 0,0 c 5.986,-4.717 9.394,-10.376 7.609,-12.64 -1.784,-2.264 -8.084,-0.277 -14.07,4.44 -5.986,4.716 -7.608,12.639 -7.608,12.639 0,0 8.083,0.278 14.069,-4.439" /></g><g
             transform="matrix(0.55502133,0,0,0.55502133,273.37864,153.55349)"
             id="g394"
             style="stroke-width:3.0927887"><path
               inkscape:connector-curvature="0"
               id="path396"
               style="fill:#445eea;fill-opacity:1;fill-rule:nonzero;stroke:none;stroke-width:3.0927887"
               d="m 0,0 c -6.318,-5.934 -13.261,-8.807 -15.506,-6.417 -2.245,2.391 1.058,9.139 7.377,15.073 6.319,5.935 15.506,6.417 15.506,6.417 C 7.377,15.073 6.319,5.935 0,0" /></g><g
             transform="matrix(0.55502133,0,0,0.55502133,270.80029,135.70445)"
             id="g398"
             style="stroke-width:3.0927887"><path
               inkscape:connector-curvature="0"
               id="path400"
               style="fill:#1b2a67;fill-opacity:1;fill-rule:nonzero;stroke:none;stroke-width:3.0927887"
               d="m 0,0 h -20.676 l -3.619,26.012 H 3.618 Z" /></g><g
             transform="matrix(0.55502133,0,0,0.55502133,273.409,146.43956)"
             id="g402"
             style="stroke-width:3.0927887"><path
               inkscape:connector-curvature="0"
               id="path404"
               style="fill:#1b2a67;fill-opacity:1;fill-rule:nonzero;stroke:none;stroke-width:3.0927887"
               d="m 0,0 h -30.076 c -0.812,0 -1.47,0.658 -1.47,1.469 v 6.733 c 0,0.812 0.658,1.469 1.47,1.469 H 0 c 0.812,0 1.469,-0.657 1.469,-1.469 V 1.469 C 1.469,0.658 0.812,0 0,0" /></g></g></g></g></g></svg>