<?xml version="1.0" encoding="UTF-8" standalone="no"?>
<!-- Created with Inkscape (http://www.inkscape.org/) -->

<svg
   xmlns:dc="http://purl.org/dc/elements/1.1/"
   xmlns:cc="http://creativecommons.org/ns#"
   xmlns:rdf="http://www.w3.org/1999/02/22-rdf-syntax-ns#"
   xmlns:svg="http://www.w3.org/2000/svg"
   xmlns="http://www.w3.org/2000/svg"
   xmlns:sodipodi="http://sodipodi.sourceforge.net/DTD/sodipodi-0.dtd"
   xmlns:inkscape="http://www.inkscape.org/namespaces/inkscape"
   version="1.1"
   id="svg2"
   xml:space="preserve"
   width="92.504501"
   height="80.318214"
   viewBox="0 0 92.504501 80.318214"
   sodipodi:docname="contact.svg"
   inkscape:version="0.92.3 (2405546, 2018-03-11)"><metadata
     id="metadata8"><rdf:RDF><cc:Work
         rdf:about=""><dc:format>image/svg+xml</dc:format><dc:type
           rdf:resource="http://purl.org/dc/dcmitype/StillImage" /><dc:title></dc:title></cc:Work></rdf:RDF></metadata><defs
     id="defs6"><clipPath
       clipPathUnits="userSpaceOnUse"
       id="clipPath20"><path
         d="M 0,500 H 750 V 0 H 0 Z"
         id="path18"
         inkscape:connector-curvature="0" /></clipPath><clipPath
       clipPathUnits="userSpaceOnUse"
       id="clipPath28"><path
         d="m 360.822,115.34 h 339.99 V 71 h -339.99 z"
         id="path26"
         inkscape:connector-curvature="0" /></clipPath><clipPath
       clipPathUnits="userSpaceOnUse"
       id="clipPath56"><path
         d="M 0,500 H 750 V 0 H 0 Z"
         id="path54"
         inkscape:connector-curvature="0" /></clipPath><clipPath
       clipPathUnits="userSpaceOnUse"
       id="clipPath84"><path
         d="M 0,500 H 750 V 0 H 0 Z"
         id="path82"
         inkscape:connector-curvature="0" /></clipPath><clipPath
       clipPathUnits="userSpaceOnUse"
       id="clipPath140"><path
         d="M 0,500 H 750 V 0 H 0 Z"
         id="path138"
         inkscape:connector-curvature="0" /></clipPath><clipPath
       clipPathUnits="userSpaceOnUse"
       id="clipPath172"><path
         d="m 523.94,265.031 h 57.695 V 256.6 H 523.94 Z"
         id="path170"
         inkscape:connector-curvature="0" /></clipPath><clipPath
       clipPathUnits="userSpaceOnUse"
       id="clipPath188"><path
         d="m 591.534,265.031 h 13.473 V 256.6 h -13.473 z"
         id="path186"
         inkscape:connector-curvature="0" /></clipPath><clipPath
       clipPathUnits="userSpaceOnUse"
       id="clipPath268"><path
         d="m 618.54,185.296 h 16.002 V 169.295 H 618.54 Z"
         id="path266"
         inkscape:connector-curvature="0" /></clipPath><clipPath
       clipPathUnits="userSpaceOnUse"
       id="clipPath284"><path
         d="m 627.912,163.821 h 10.405 v -10.405 h -10.405 z"
         id="path282"
         inkscape:connector-curvature="0" /></clipPath><clipPath
       clipPathUnits="userSpaceOnUse"
       id="clipPath322"><path
         d="M 0,500 H 750 V 0 H 0 Z"
         id="path320"
         inkscape:connector-curvature="0" /></clipPath></defs><sodipodi:namedview
     pagecolor="#ffffff"
     bordercolor="#666666"
     borderopacity="1"
     objecttolerance="10"
     gridtolerance="10"
     guidetolerance="10"
     inkscape:pageopacity="0"
     inkscape:pageshadow="2"
     inkscape:window-width="1890"
     inkscape:window-height="1052"
     id="namedview4"
     showgrid="false"
     fit-margin-top="0"
     fit-margin-left="0"
     fit-margin-right="0"
     fit-margin-bottom="0"
     inkscape:zoom="10.943968"
     inkscape:cx="46.252251"
     inkscape:cy="40.159107"
     inkscape:window-x="30"
     inkscape:window-y="0"
     inkscape:window-maximized="1"
     inkscape:current-layer="g1388" /><g
     id="g10"
     inkscape:groupmode="layer"
     inkscape:label="2426872"
     transform="matrix(1.3333333,0,0,-1.3333333,-678.16246,332.65444)"><text
       transform="matrix(1,0,0,-1,59.9453,205.8643)"
       style="font-variant:normal;font-weight:normal;font-stretch:normal;font-size:12px;font-family:'Open Sans';-inkscape-font-specification:OpenSans;writing-mode:lr-tb;fill:#ffffff;fill-opacity:1;fill-rule:nonzero;stroke:none"
       id="text48"><tspan
         x="0 6.2280002 13.476 18.372 25.104 36.264 40.848 43.883999 51.240002 56.964001 64.332001 75.491997 80.075996 87.431999 94.68 97.716003 104.964 109.86 114.444 120.168 123.204 127.44 132.024 138.696 149.856 156.588 160.82401 163.76401 168.34801 174.06 181.308 188.67599 194.39999 201.132 206.84399 211.08 217.812 222.048 229.416 234.312 238.896 245.56799 252.924 255.96001 263.31601 266.35199 272.07599 277.78799 280.82401 288.19199 294.76801"
         y="0"
         sodipodi:role="line"
         id="tspan42">Lorem ipsum dolor sit amet, consectetur adipiscing </tspan><tspan
         x="0 6.7319999 9.7679996 12.804 17.040001 20.232 27.552 36.299999 43.548 50.916 57.647999 63.360001 70.674004 78.042 81.078003 85.314003 90.209999 93.246002 98.958 101.994 108.726 114.45 121.77 128.502 133.39799 140.07001 144.306 151.62601 155.862 163.11 168.006 172.242 179.49001 184.386 187.326 194.646 197.68201 205.03799 212.34959 218.07359 225.32159 232.6776 239.34959 242.3856 249.1176 254.8416 262.16159 266.39761 273.76559 278.66159 286.01761 289.05359 294.77759"
         y="19.296"
         sodipodi:role="line"
         id="tspan44">elit. Donec ultricies erat tortor, id sodales turpis </tspan><tspan
         x="0 4.8959999 12.264 16.5 21.396 28.764 39.924 43.043999 49.776001 56.352001 63.084 67.32"
         y="38.591999"
         sodipodi:role="line"
         id="tspan46">rutrum eget.</tspan></text>
<g
       id="g134"><g
         id="g136"
         clip-path="url(#clipPath140)" /></g><g
       id="g1388"
       transform="matrix(0.2471415,0,0,0.2471415,409.03634,165.1557)"
       style="stroke-width:4.04626513"><g
         id="g78"
         style="stroke-width:4.04626513"><g
           clip-path="url(#clipPath84)"
           id="g80"
           style="stroke-width:4.04626513"><g
             transform="translate(483.0527,419.1924)"
             id="g90"
             style="stroke-width:4.04626513" /><g
             transform="translate(653.5127,262.7798)"
             id="g102"
             style="stroke-width:4.04626513"><path
               inkscape:connector-curvature="0"
               id="path104"
               style="fill:#5c2b55;fill-opacity:1;fill-rule:nonzero;stroke:none;stroke-width:4.04626513"
               d="m 0,0 h -17.512 c -16.657,0 -30.16,13.503 -30.16,30.16 0,16.657 13.503,30.16 30.16,30.16 H 0 C 16.657,60.32 30.16,46.817 30.16,30.16 30.16,13.503 16.657,0 0,0" /></g><g
             transform="translate(606.9385,262.5283)"
             id="g106"
             style="stroke-width:4.04626513"><path
               inkscape:connector-curvature="0"
               id="path108"
               style="fill:#5c2b55;fill-opacity:1;fill-rule:nonzero;stroke:none;stroke-width:4.04626513"
               d="M 0,0 3.814,8.862 7.629,17.724 12.676,12.676 17.724,7.629 8.861,3.814 Z" /></g><g
             style="fill:#ffaaaa;stroke-width:4.04626513"
             transform="translate(549.2783,286.4253)"
             id="g110"><path
               inkscape:connector-curvature="0"
               id="path112"
               style="fill:#ffaaaa;fill-opacity:1;fill-rule:nonzero;stroke:none;stroke-width:4.04626513"
               d="m 0,0 h 15.914 c 15.138,0 27.409,12.271 27.409,27.408 0,15.137 -12.271,27.409 -27.409,27.409 H 0 c -15.138,0 -27.409,-12.272 -27.409,-27.409 C -27.409,12.271 -15.138,0 0,0" /></g><g
             style="fill:#ff7f2a;stroke-width:4.04626513"
             transform="translate(476.3643,262.2539)"
             id="g118"><path
               inkscape:connector-curvature="0"
               id="path120"
               style="fill:#ff7f2a;fill-opacity:1;fill-rule:nonzero;stroke:none;stroke-width:4.04626513"
               d="m 0,0 h 20.474 c 19.474,0 35.261,15.787 35.261,35.261 0,19.475 -15.787,35.261 -35.261,35.261 H 0 c -19.475,0 -35.262,-15.786 -35.262,-35.261 C -35.262,15.787 -19.475,0 0,0" /></g></g></g><text
         id="text128"
         style="font-variant:normal;font-weight:800;font-stretch:normal;font-size:42px;font-family:'Montserrat Extra Bold';-inkscape-font-specification:Montserrat-ExtraBold;writing-mode:lr-tb;fill:#492345;fill-opacity:1;fill-rule:nonzero;stroke:none;stroke-width:4.04626513"
         transform="matrix(1,0,0,-1,462.7676,282.6816)"><tspan
           id="tspan126"
           sodipodi:role="line"
           y="0"
           x="0 28.686001 42.293999"
           style="stroke-width:4.04626513">hi!</tspan></text>
<text
         id="text132"
         style="font-variant:normal;font-weight:800;font-stretch:normal;font-size:22px;font-family:'Montserrat Extra Bold';-inkscape-font-specification:Montserrat-ExtraBold;writing-mode:lr-tb;fill:#492345;fill-opacity:1;fill-rule:nonzero;stroke:none;stroke-width:4.04626513"
         transform="matrix(1,0,0,-1,530.3936,307.6411)"><tspan
           id="tspan130"
           sodipodi:role="line"
           y="0"
           x="0 15.026 28.424 35.793999 43.164001"
           style="stroke-width:4.04626513">hello</tspan></text>
<g
         transform="translate(629.2051,292.9399)"
         id="g142"
         style="stroke-width:4.04626513"><path
           inkscape:connector-curvature="0"
           id="path144"
           style="fill:#ffffff;fill-opacity:1;fill-rule:nonzero;stroke:none;stroke-width:4.04626513"
           d="m 0,0 c 0,-2.105 -1.707,-3.813 -3.813,-3.813 -2.105,0 -3.811,1.708 -3.811,3.813 0,2.105 1.706,3.812 3.811,3.812 C -1.707,3.812 0,2.105 0,0" /></g><g
         transform="translate(648.5693,292.9399)"
         id="g146"
         style="stroke-width:4.04626513"><path
           inkscape:connector-curvature="0"
           id="path148"
           style="fill:#ffffff;fill-opacity:1;fill-rule:nonzero;stroke:none;stroke-width:4.04626513"
           d="m 0,0 c 0,-2.105 -1.707,-3.813 -3.813,-3.813 -2.105,0 -3.811,1.708 -3.811,3.813 0,2.105 1.706,3.812 3.811,3.812 C -1.707,3.812 0,2.105 0,0" /></g><g
         transform="translate(667.9326,292.9399)"
         id="g150"
         style="stroke-width:4.04626513"><path
           inkscape:connector-curvature="0"
           id="path152"
           style="fill:#ffffff;fill-opacity:1;fill-rule:nonzero;stroke:none;stroke-width:4.04626513"
           d="m 0,0 c 0,-2.105 -1.706,-3.813 -3.812,-3.813 -2.105,0 -3.812,1.708 -3.812,3.813 0,2.105 1.707,3.812 3.812,3.812 C -1.706,3.812 0,2.105 0,0" /></g><g
         transform="translate(656.291,221.5039)"
         id="g154"
         style="stroke-width:4.04626513"><path
           inkscape:connector-curvature="0"
           id="path156"
           style="fill:#fa3549;fill-opacity:1;fill-rule:nonzero;stroke:none;stroke-width:4.04626513"
           d="m 0,0 h -30.969 c 0,7.114 -5.788,12.902 -12.902,12.902 h -97.553 c -7.113,0 -12.902,-5.788 -12.902,-12.902 h -30.968 c 0,24.19 19.681,43.871 43.87,43.871 h 97.553 C -19.681,43.871 0,24.19 0,0" /></g><g
         transform="translate(470.9971,221.5039)"
         id="g158"
         style="stroke-width:4.04626513"><path
           inkscape:connector-curvature="0"
           id="path160"
           style="fill:#e02e42;fill-opacity:1;fill-rule:nonzero;stroke:none;stroke-width:4.04626513"
           d="m 0,0 h 30.968 c 1.36,0 2.463,-1.103 2.463,-2.462 v -10.492 c 0,-1.359 -1.103,-2.462 -2.463,-2.462 H 0 c -1.36,0 -2.463,1.103 -2.463,2.462 V -2.462 C -2.463,-1.103 -1.36,0 0,0" /></g><g
         transform="translate(625.2549,221.5039)"
         id="g162"
         style="stroke-width:4.04626513"><path
           inkscape:connector-curvature="0"
           id="path164"
           style="fill:#e02e42;fill-opacity:1;fill-rule:nonzero;stroke:none;stroke-width:4.04626513"
           d="m 0,0 h 30.968 c 1.36,0 2.463,-1.103 2.463,-2.462 v -10.492 c 0,-1.359 -1.103,-2.462 -2.463,-2.462 H 0 c -1.36,0 -2.463,1.103 -2.463,2.462 V -2.462 C -2.463,-1.103 -1.36,0 0,0" /></g><g
         id="g166"
         style="stroke-width:4.04626513"><g
           id="g168"
           style="stroke-width:4.04626513" /><g
           id="g180"
           style="stroke-width:4.04626513"><g
             style="opacity:0.19999701;stroke-width:4.04626513"
             id="g178"
             clip-path="url(#clipPath172)"><g
               id="g176"
               transform="translate(577.4199,256.6001)"
               style="stroke-width:4.04626513"><path
                 inkscape:connector-curvature="0"
                 id="path174"
                 style="fill:#efecea;fill-opacity:1;fill-rule:nonzero;stroke:none;stroke-width:4.04626513"
                 d="m 0,0 h -49.265 c -2.328,0 -4.215,1.887 -4.215,4.216 0,2.328 1.887,4.215 4.215,4.215 L 0,8.431 C 2.328,8.431 4.216,6.544 4.216,4.216 4.216,1.887 2.328,0 0,0" /></g></g></g></g><g
         id="g182"
         style="stroke-width:4.04626513"><g
           id="g184"
           style="stroke-width:4.04626513" /><g
           id="g196"
           style="stroke-width:4.04626513"><g
             style="opacity:0.19999701;stroke-width:4.04626513"
             id="g194"
             clip-path="url(#clipPath188)"><g
               id="g192"
               transform="translate(600.791,256.6001)"
               style="stroke-width:4.04626513"><path
                 inkscape:connector-curvature="0"
                 id="path190"
                 style="fill:#efecea;fill-opacity:1;fill-rule:nonzero;stroke:none;stroke-width:4.04626513"
                 d="m 0,0 h -5.041 c -2.328,0 -4.216,1.887 -4.216,4.216 0,2.328 1.888,4.215 4.216,4.215 L 0,8.431 C 2.328,8.431 4.216,6.544 4.216,4.216 4.216,1.887 2.328,0 0,0" /></g></g></g></g><g
         transform="translate(649.6631,120.3174)"
         id="g198"
         style="stroke-width:4.04626513"><path
           inkscape:connector-curvature="0"
           id="path200"
           style="fill:#e7dbdb;fill-opacity:1;fill-rule:nonzero;stroke:none;stroke-width:4.04626513"
           d="m 0,0 h -172.047 l 3.423,35.074 c 2.914,29.854 24.728,52.414 50.68,52.414 h 63.841 c 25.952,0 47.765,-22.56 50.679,-52.414 z" /></g><g
         transform="translate(594.6055,252.0947)"
         id="g202"
         style="stroke-width:4.04626513"><path
           inkscape:connector-curvature="0"
           id="path204"
           style="fill:#e7dbdb;fill-opacity:1;fill-rule:nonzero;stroke:none;stroke-width:4.04626513"
           d="m 0,0 v 0 c -4.367,0 -7.7,-3.572 -7.437,-8.069 l 0.432,-7.429 c 0.304,-5.211 -3.551,-9.533 -8.618,-9.533 H -30.966 -46.31 c -5.066,0 -8.921,4.322 -8.618,9.533 l 0.433,7.429 C -54.232,-3.572 -57.564,0 -61.933,0 c -4.145,0 -7.921,-3.225 -8.617,-7.474 -5.264,-32.106 -24.452,-77.084 -24.452,-77.084 h 64.036 64.035 c 0,0 -19.187,44.978 -24.452,77.084 C 7.921,-3.225 4.146,0 0,0" /></g><g
         transform="translate(603.6016,189.3008)"
         id="g206"
         style="stroke-width:4.04626513"><path
           inkscape:connector-curvature="0"
           id="path208"
           style="fill:#492345;fill-opacity:1;fill-rule:nonzero;stroke:none;stroke-width:4.04626513"
           d="m 0,0 c 0,-22.07 -17.892,-39.962 -39.962,-39.962 -22.07,0 -39.962,17.892 -39.962,39.962 0,22.07 17.892,39.962 39.962,39.962 C -17.892,39.962 0,22.07 0,0" /></g><g
         transform="translate(603.6016,184.126)"
         id="g210"
         style="stroke-width:4.04626513"><path
           inkscape:connector-curvature="0"
           id="path212"
           style="fill:#efecea;fill-opacity:1;fill-rule:nonzero;stroke:none;stroke-width:4.04626513"
           d="m 0,0 c 0,-22.07 -17.892,-39.962 -39.962,-39.962 -22.07,0 -39.962,17.892 -39.962,39.962 0,22.07 17.892,39.962 39.962,39.962 C -17.892,39.962 0,22.07 0,0" /></g><g
         transform="translate(583.3496,184.126)"
         id="g214"
         style="stroke-width:4.04626513"><path
           inkscape:connector-curvature="0"
           id="path216"
           style="fill:#492345;fill-opacity:1;fill-rule:nonzero;stroke:none;stroke-width:4.04626513"
           d="m 0,0 c 0,-10.886 -8.824,-19.71 -19.71,-19.71 -10.886,0 -19.711,8.824 -19.711,19.71 0,10.886 8.825,19.711 19.711,19.711 C -8.824,19.711 0,10.886 0,0" /></g><g
         transform="translate(574.8398,184.126)"
         id="g218"
         style="stroke-width:4.04626513"><path
           inkscape:connector-curvature="0"
           id="path220"
           style="fill:#5c2b55;fill-opacity:1;fill-rule:nonzero;stroke:none;stroke-width:4.04626513"
           d="m 0,0 c 0,-6.186 -5.015,-11.2 -11.2,-11.2 -6.186,0 -11.2,5.014 -11.2,11.2 0,6.187 5.014,11.2 11.2,11.2 C -5.015,11.2 0,6.187 0,0" /></g><g
         transform="translate(568.8135,213.7324)"
         id="g222"
         style="stroke-width:4.04626513"><path
           inkscape:connector-curvature="0"
           id="path224"
           style="fill:#cdbaba;fill-opacity:1;fill-rule:nonzero;stroke:none;stroke-width:4.04626513"
           d="m 0,0 c 0,-2.857 -2.316,-5.174 -5.174,-5.174 -2.857,0 -5.175,2.317 -5.175,5.174 0,2.857 2.318,5.174 5.175,5.174 C -2.316,5.174 0,2.857 0,0" /></g><g
         transform="translate(588.2324,201.4023)"
         id="g226"
         style="stroke-width:4.04626513"><path
           inkscape:connector-curvature="0"
           id="path228"
           style="fill:#cdbaba;fill-opacity:1;fill-rule:nonzero;stroke:none;stroke-width:4.04626513"
           d="m 0,0 c -2.021,-2.021 -5.296,-2.021 -7.316,0 -2.021,2.021 -2.021,5.297 0,7.317 2.02,2.021 5.295,2.021 7.316,0 C 2.021,5.297 2.021,2.021 0,0" /></g><g
         transform="translate(593.2461,178.9521)"
         id="g230"
         style="stroke-width:4.04626513"><path
           inkscape:connector-curvature="0"
           id="path232"
           style="fill:#cdbaba;fill-opacity:1;fill-rule:nonzero;stroke:none;stroke-width:4.04626513"
           d="m 0,0 c -2.858,0 -5.175,2.316 -5.175,5.174 0,2.857 2.317,5.175 5.175,5.175 2.857,0 5.174,-2.318 5.174,-5.175 C 5.174,2.316 2.857,0 0,0" /></g><g
         transform="translate(580.916,159.5332)"
         id="g234"
         style="stroke-width:4.04626513"><path
           inkscape:connector-curvature="0"
           id="path236"
           style="fill:#cdbaba;fill-opacity:1;fill-rule:nonzero;stroke:none;stroke-width:4.04626513"
           d="m 0,0 c -2.021,2.021 -2.021,5.296 0,7.316 2.021,2.022 5.296,2.022 7.316,0 C 9.337,5.296 9.337,2.021 7.316,0 5.296,-2.021 2.021,-2.021 0,0" /></g><g
         transform="translate(558.4648,154.5195)"
         id="g238"
         style="stroke-width:4.04626513"><path
           inkscape:connector-curvature="0"
           id="path240"
           style="fill:#cdbaba;fill-opacity:1;fill-rule:nonzero;stroke:none;stroke-width:4.04626513"
           d="m 0,0 c 0,2.858 2.317,5.175 5.175,5.175 2.857,0 5.174,-2.317 5.174,-5.175 0,-2.857 -2.317,-5.174 -5.174,-5.174 C 2.317,-5.174 0,-2.857 0,0" /></g><g
         transform="translate(539.0459,166.8496)"
         id="g242"
         style="stroke-width:4.04626513"><path
           inkscape:connector-curvature="0"
           id="path244"
           style="fill:#cdbaba;fill-opacity:1;fill-rule:nonzero;stroke:none;stroke-width:4.04626513"
           d="m 0,0 c 2.021,2.021 5.297,2.021 7.317,0 2.021,-2.021 2.021,-5.296 0,-7.316 -2.02,-2.021 -5.296,-2.021 -7.317,0 -2.021,2.02 -2.021,5.295 0,7.316" /></g><g
         transform="translate(534.0332,189.3008)"
         id="g246"
         style="stroke-width:4.04626513"><path
           inkscape:connector-curvature="0"
           id="path248"
           style="fill:#cdbaba;fill-opacity:1;fill-rule:nonzero;stroke:none;stroke-width:4.04626513"
           d="m 0,0 c 2.857,0 5.174,-2.317 5.174,-5.175 0,-2.857 -2.317,-5.174 -5.174,-5.174 -2.857,0 -5.174,2.317 -5.174,5.174 C -5.174,-2.317 -2.857,0 0,0" /></g><g
         transform="translate(546.3633,208.7197)"
         id="g250"
         style="stroke-width:4.04626513"><path
           inkscape:connector-curvature="0"
           id="path252"
           style="fill:#cdbaba;fill-opacity:1;fill-rule:nonzero;stroke:none;stroke-width:4.04626513"
           d="m 0,0 c 2.021,-2.021 2.021,-5.297 0,-7.317 -2.021,-2.021 -5.297,-2.021 -7.317,0 -2.021,2.02 -2.021,5.296 0,7.317 2.02,2.021 5.296,2.021 7.317,0" /></g><g
         transform="translate(583.3496,184.126)"
         id="g254"
         style="stroke-width:4.04626513"><path
           inkscape:connector-curvature="0"
           id="path256"
           style="fill:none;stroke:#73366c;stroke-width:20.23132515;stroke-linecap:round;stroke-linejoin:round;stroke-miterlimit:10;stroke-dasharray:none;stroke-opacity:1"
           d="M 0,0 H 20.252" /></g><g
         transform="translate(477.6162,120.3174)"
         id="g258"
         style="stroke-width:4.04626513"><path
           inkscape:connector-curvature="0"
           id="path260"
           style="fill:#a79391;fill-opacity:1;fill-rule:nonzero;stroke:none;stroke-width:4.04626513"
           d="m 0,0 h 172.047 v -10.835 c 0,-6.617 -5.364,-11.981 -11.982,-11.981 H 11.981 C 5.364,-22.816 0,-17.452 0,-10.835 Z" /></g><g
         id="g262"
         style="stroke-width:4.04626513"><g
           id="g264"
           style="stroke-width:4.04626513" /><g
           id="g276"
           style="stroke-width:4.04626513"><g
             style="opacity:0.5;stroke-width:4.04626513"
             id="g274"
             clip-path="url(#clipPath268)"><g
               id="g272"
               transform="translate(634.0859,179.9512)"
               style="stroke-width:4.04626513"><path
                 inkscape:connector-curvature="0"
                 id="path270"
                 style="fill:#efecea;fill-opacity:1;fill-rule:nonzero;stroke:none;stroke-width:4.04626513"
                 d="m 0,0 c 1.467,-4.167 -0.723,-8.734 -4.89,-10.201 -4.167,-1.466 -8.733,0.722 -10.2,4.889 -1.467,4.167 0.723,8.735 4.89,10.202 C -6.033,6.355 -1.467,4.167 0,0" /></g></g></g></g><g
         id="g278"
         style="stroke-width:4.04626513"><g
           id="g280"
           style="stroke-width:4.04626513" /><g
           id="g292"
           style="stroke-width:4.04626513"><g
             style="opacity:0.5;stroke-width:4.04626513"
             id="g290"
             clip-path="url(#clipPath284)"><g
               id="g288"
               transform="translate(638.0205,160.3457)"
               style="stroke-width:4.04626513"><path
                 inkscape:connector-curvature="0"
                 id="path286"
                 style="fill:#efecea;fill-opacity:1;fill-rule:nonzero;stroke:none;stroke-width:4.04626513"
                 d="m 0,0 c 0.954,-2.71 -0.47,-5.68 -3.179,-6.633 -2.71,-0.954 -5.679,0.47 -6.633,3.179 -0.954,2.71 0.47,5.68 3.179,6.633 C -3.923,4.133 -0.953,2.709 0,0" /></g></g></g></g><g
         transform="translate(478.5752,130.1484)"
         id="g294"
         style="stroke-width:4.04626513"><path
           inkscape:connector-curvature="0"
           id="path296"
           style="fill:#492345;fill-opacity:1;fill-rule:nonzero;stroke:none;stroke-width:4.04626513"
           d="m 0,0 h 170.128 l 0.394,-4.037 H -0.394 Z" /></g><g
         transform="translate(402.9512,149.9326)"
         id="g298"
         style="stroke-width:4.04626513"><path
           inkscape:connector-curvature="0"
           id="path300"
           style="fill:#821a26;fill-opacity:1;fill-rule:nonzero;stroke:none;stroke-width:4.04626513"
           d="M 0,0 40.766,27.549 81.53,0 40.766,-26.218 Z" /></g><path
         inkscape:connector-curvature="0"
         id="path302"
         style="fill:#f4d7d7;fill-opacity:1;fill-rule:nonzero;stroke:none;stroke-width:4.04626513"
         d="m 478.443,112.398 h -69.454 v 75.068 h 69.454 z" /><g
         transform="translate(484.4814,149.9287)"
         id="g304"
         style="stroke-width:4.04626513"><path
           inkscape:connector-curvature="0"
           id="path306"
           style="fill:#e02e42;fill-opacity:1;fill-rule:nonzero;stroke:none;stroke-width:4.04626513"
           d="m 0,0 v -43.295 c 0,-2.485 -0.989,-4.729 -2.598,-6.372 -1.651,-1.703 -3.973,-2.761 -6.536,-2.761 h -63.264 c -2.564,0 -4.877,1.058 -6.538,2.761 -1.608,1.643 -2.596,3.887 -2.596,6.372 V 0 l 30.746,-19.772 10.019,-6.442 10.02,6.442 z" /></g><g
         transform="translate(481.8838,100.2617)"
         id="g308"
         style="stroke-width:4.04626513"><path
           inkscape:connector-curvature="0"
           id="path310"
           style="fill:#fa3549;fill-opacity:1;fill-rule:nonzero;stroke:none;stroke-width:4.04626513"
           d="m 0,0 c -1.651,-1.703 -3.974,-2.761 -6.536,-2.761 h -63.265 c -2.563,0 -4.877,1.058 -6.537,2.761 l 28.15,29.895 2.434,2.58 c 4.11,4.369 11.06,4.369 15.171,0 l 2.434,-2.58 z" /></g><text
         id="text314"
         style="font-variant:normal;font-weight:800;font-stretch:normal;font-size:35.62919998px;font-family:'Montserrat Extra Bold';-inkscape-font-specification:Montserrat-ExtraBold;writing-mode:lr-tb;fill:#492345;fill-opacity:1;fill-rule:nonzero;stroke:none;stroke-width:4.04626513"
         transform="matrix(1,0,0,-1,428.7617,146.0762)"><tspan
           id="tspan312"
           y="0"
           x="0"
           style="stroke-width:4.04626513">@</tspan></text>
</g></g></svg>