<?xml version="1.0" encoding="UTF-8" standalone="no"?>
<svg
   xmlns:dc="http://purl.org/dc/elements/1.1/"
   xmlns:cc="http://creativecommons.org/ns#"
   xmlns:rdf="http://www.w3.org/1999/02/22-rdf-syntax-ns#"
   xmlns:svg="http://www.w3.org/2000/svg"
   xmlns="http://www.w3.org/2000/svg"
   xmlns:xlink="http://www.w3.org/1999/xlink"
   xmlns:sodipodi="http://sodipodi.sourceforge.net/DTD/sodipodi-0.dtd"
   xmlns:inkscape="http://www.inkscape.org/namespaces/inkscape"
   sodipodi:docname="favicon.svg"
   inkscape:version="1.0beta1 (f4d8661226, 2019-09-29)"
   id="svg923"
   version="1.1"
   viewBox="0 0 4.2333331 4.2333331"
   height="16"
   width="16">
  <defs
     id="defs917">
    <linearGradient
       inkscape:collect="always"
       id="linearGradient2205">
      <stop
         style="stop-color:#dd2ac0;stop-opacity:1"
         offset="0"
         id="stop2201" />
      <stop
         style="stop-color:#ec794f;stop-opacity:0.99215686"
         offset="1"
         id="stop2203" />
    </linearGradient>
    <linearGradient
       gradientUnits="userSpaceOnUse"
       y2="226.61328"
       x2="-698.83887"
       y1="233.0105"
       x1="-706.21094"
       id="linearGradient1656"
       xlink:href="#linearGradient2205"
       inkscape:collect="always" />
    <linearGradient
       gradientUnits="userSpaceOnUse"
       y2="226.21484"
       x2="-697.44904"
       y1="226.21484"
       x1="-711.67383"
       id="linearGradient1664"
       xlink:href="#linearGradient2205"
       inkscape:collect="always" />
    <linearGradient
       y2="226.61328"
       x2="-698.83887"
       y1="233.0105"
       x1="-706.21094"
       gradientUnits="userSpaceOnUse"
       id="linearGradient1670"
       xlink:href="#linearGradient2205"
       inkscape:collect="always" />
    <linearGradient
       gradientTransform="matrix(0.65968157,0,0,0.65968157,-65.803862,24.292322)"
       gradientUnits="userSpaceOnUse"
       y2="71.55851"
       x2="-169.15265"
       y1="71.55851"
       x1="-194.44516"
       id="linearGradient2296"
       xlink:href="#linearGradient2205"
       inkscape:collect="always" />
  </defs>
  <sodipodi:namedview
     inkscape:document-rotation="0"
     fit-margin-bottom="0"
     fit-margin-right="0"
     fit-margin-left="0"
     fit-margin-top="0"
     inkscape:guide-bbox="true"
     showguides="true"
     inkscape:snap-center="true"
     inkscape:snap-midpoints="true"
     inkscape:snap-smooth-nodes="true"
     inkscape:snap-intersection-paths="true"
     inkscape:object-paths="true"
     inkscape:snap-bbox-midpoints="true"
     inkscape:snap-bbox-edge-midpoints="true"
     inkscape:bbox-paths="true"
     inkscape:bbox-nodes="true"
     inkscape:snap-bbox="true"
     inkscape:window-maximized="1"
     inkscape:window-y="0"
     inkscape:window-x="30"
     inkscape:window-height="1052"
     inkscape:window-width="1890"
     units="px"
     showgrid="false"
     inkscape:current-layer="g2303"
     inkscape:document-units="px"
     inkscape:cy="8"
     inkscape:cx="8"
     inkscape:zoom="53.8125"
     inkscape:pageshadow="2"
     inkscape:pageopacity="0.0"
     borderopacity="1.0"
     bordercolor="#666666"
     pagecolor="#ffffff"
     id="base" />
  <metadata
     id="metadata920">
    <rdf:RDF>
      <cc:Work
         rdf:about="">
        <dc:format>image/svg+xml</dc:format>
        <dc:type
           rdf:resource="http://purl.org/dc/dcmitype/StillImage" />
        <dc:title></dc:title>
      </cc:Work>
    </rdf:RDF>
  </metadata>
  <g
     transform="translate(228.50785,15.286288)"
     id="layer1"
     inkscape:groupmode="layer"
     inkscape:label="Layer 1">
    <g
       transform="matrix(5.1273407,0,0,5.1273407,736.6157,-247.66959)"
       inkscape:export-ydpi="96"
       inkscape:export-xdpi="96"
       id="g2303">
      <g
         id="g1668"
         transform="matrix(0.13393285,0,0,0.13393285,-162.85088,37.636991)"
         inkscape:export-filename="/home/bruno/Documents/work/ogw/ogworld/src/static/images/favicon16.png"
         inkscape:export-xdpi="96"
         inkscape:export-ydpi="96">
        <path
           inkscape:connector-curvature="0"
           id="circle1529"
           transform="scale(0.26458333)"
           d="m -705.72266,217.64844 c -3.27027,0 -5.95113,2.67892 -5.95117,5.94922 0,3.27029 2.6809,5.94922 5.95117,5.94922 1.07313,0 2.0782,-0.29168 2.94922,-0.79493 l 0.008,0.0137 c 0.27388,-0.15544 0.5876,-0.25195 0.93164,-0.25195 1.05429,0 1.88281,0.82853 1.88281,1.88281 0,1.05429 -0.82852,1.88282 -1.88281,1.88282 -0.0484,0 -0.0933,-0.0102 -0.14063,-0.0137 l -0.18945,2.48243 c 0.11107,0.009 0.21693,0.0332 0.33008,0.0332 2.40536,0 4.38476,-1.97938 4.38476,-4.38477 0,-1.91008 -1.25614,-3.5339 -2.97461,-4.1289 0.40784,-0.80517 0.64258,-1.7102 0.64258,-2.66992 0,-3.2703 -2.67109,-5.94922 -5.94141,-5.94922 z m 0,2.50195 c 1.91921,0 3.44727,1.52807 3.44727,3.44727 0,1.91919 -1.52806,3.44726 -3.44727,3.44726 -1.91916,0 -3.45507,-1.52807 -3.45507,-3.44726 0,-1.9192 1.53591,-3.44727 3.45507,-3.44727 z"
           style="color:#000000;font-style:normal;font-variant:normal;font-weight:normal;font-stretch:normal;font-size:medium;line-height:normal;font-family:sans-serif;font-variant-ligatures:normal;font-variant-position:normal;font-variant-caps:normal;font-variant-numeric:normal;font-variant-alternates:normal;font-feature-settings:normal;text-indent:0;text-align:start;text-decoration:none;text-decoration-line:none;text-decoration-style:solid;text-decoration-color:#000000;letter-spacing:normal;word-spacing:normal;text-transform:none;writing-mode:lr-tb;direction:ltr;text-orientation:mixed;dominant-baseline:auto;baseline-shift:baseline;text-anchor:start;white-space:normal;shape-padding:0;clip-rule:nonzero;display:inline;overflow:visible;visibility:visible;opacity:1;isolation:auto;mix-blend-mode:normal;color-interpolation:sRGB;color-interpolation-filters:linearRGB;solid-color:#000000;solid-opacity:1;vector-effect:none;fill:url(#linearGradient1664);fill-opacity:1;fill-rule:nonzero;stroke:none;stroke-width:2.5;stroke-linecap:round;stroke-linejoin:round;stroke-miterlimit:4;stroke-dasharray:none;stroke-dashoffset:0;stroke-opacity:1;paint-order:stroke markers fill;color-rendering:auto;image-rendering:auto;shape-rendering:auto;text-rendering:auto;enable-background:accumulate" />
        <path
           transform="scale(0.26458333)"
           inkscape:connector-curvature="0"
           id="circle1577"
           d="m -703.99805,226.61328 c -1.31259,0.7607 -2.21289,2.16795 -2.21289,3.7832 0,2.29447 1.79952,4.18058 4.05274,4.35157 0.47177,0.12302 0.80056,0.52602 0.82031,1.01562 0.0189,0.49847 -0.28479,0.9403 -0.75977,1.09375 -0.47467,0.15338 -0.9783,-0.0234 -1.2539,-0.43945 a 1.250125,1.250125 0 0 0 -2.28711,0.46094 1.250125,1.250125 0 0 0 0.20117,0.91797 c 0.88872,1.34107 2.5825,1.93248 4.11328,1.4375 1.53082,-0.49503 2.54713,-1.96276 2.48242,-3.57032 -0.0646,-1.60752 -1.19995,-2.98513 -2.76562,-3.35547 a 1.250125,1.250125 0 0 0 -0.41016,-0.0508 c -0.96231,-0.0916 -1.6914,-0.87061 -1.6914,-1.86133 0,-0.71023 0.37793,-1.30994 0.94336,-1.63086 z"
           style="color:#000000;font-style:normal;font-variant:normal;font-weight:normal;font-stretch:normal;font-size:medium;line-height:normal;font-family:sans-serif;font-variant-ligatures:normal;font-variant-position:normal;font-variant-caps:normal;font-variant-numeric:normal;font-variant-alternates:normal;font-feature-settings:normal;text-indent:0;text-align:start;text-decoration:none;text-decoration-line:none;text-decoration-style:solid;text-decoration-color:#000000;letter-spacing:normal;word-spacing:normal;text-transform:none;writing-mode:lr-tb;direction:ltr;text-orientation:mixed;dominant-baseline:auto;baseline-shift:baseline;text-anchor:start;white-space:normal;shape-padding:0;clip-rule:nonzero;display:inline;overflow:visible;visibility:visible;opacity:1;isolation:auto;mix-blend-mode:normal;color-interpolation:sRGB;color-interpolation-filters:linearRGB;solid-color:#000000;solid-opacity:1;vector-effect:none;fill:url(#linearGradient1670);fill-opacity:1;fill-rule:nonzero;stroke:none;stroke-width:2.5;stroke-linecap:round;stroke-linejoin:round;stroke-miterlimit:4;stroke-dasharray:none;stroke-dashoffset:0;stroke-opacity:1;paint-order:stroke markers fill;color-rendering:auto;image-rendering:auto;shape-rendering:auto;text-rendering:auto;enable-background:accumulate" />
      </g>
    </g>
  </g>
</svg>
