<svg xmlns="http://www.w3.org/2000/svg" xmlns:xlink="http://www.w3.org/1999/xlink" width="24" height="24" preserveAspectRatio="xMidYMid meet" viewBox="0 0 24 24" style="-ms-transform: rotate(360deg); -webkit-transform: rotate(360deg); transform: rotate(360deg);"><path d="M10.586 13.414a1 1 0 01-1.414 1.414 5 5 0 010-7.07l3.535-3.536a5 5 0 017.071 7.071l-1.485 1.486a7.017 7.017 0 00-.405-2.424l.476-.476a3 3 0 10-4.243-4.243l-3.535 3.536a3 3 0 000 4.242zm2.828-4.242a1 1 0 011.414 0 5 5 0 010 7.07l-3.535 3.536a5 5 0 01-7.071-7.07l1.485-1.486c-.008.82.127 1.641.405 2.423l-.476.476a3 3 0 104.243 4.243l3.535-3.536a3 3 0 000-4.242 1 1 0 010-1.414z" fill="#626262"/><rect x="0" y="0" width="24" height="24" fill="rgba(0, 0, 0, 0)" /></svg>