<?xml version="1.0" encoding="UTF-8" standalone="no"?>
<svg
   xmlns:dc="http://purl.org/dc/elements/1.1/"
   xmlns:cc="http://creativecommons.org/ns#"
   xmlns:rdf="http://www.w3.org/1999/02/22-rdf-syntax-ns#"
   xmlns:svg="http://www.w3.org/2000/svg"
   xmlns="http://www.w3.org/2000/svg"
   xmlns:sodipodi="http://sodipodi.sourceforge.net/DTD/sodipodi-0.dtd"
   xmlns:inkscape="http://www.inkscape.org/namespaces/inkscape"
   width="225.82922"
   height="200"
   viewBox="0 0 59.750648 52.916675"
   version="1.1"
   id="svg6005"
   sodipodi:docname="logistics.svg"
   inkscape:version="0.92.3 (2405546, 2018-03-11)">
  <defs
     id="defs5999">
    <clipPath
       clipPathUnits="userSpaceOnUse"
       id="clipPath4866">
      <path
         d="m 3281.31,1738.53 -0.18,-0.09 -0.09,0.18 c -16.11,3.42 -31.23,8.91 -44.1,16.47 -12.87,7.56 -22.14,16.29 -27.9,25.65 l -0.27,0.09 0.18,0.09 c -2.16,3.6 -3.87,7.29 -4.95,10.98 -2.97,8.01 -3.42,16.56 -1.26,24.93 3.87,15.03 15.75,28.62 34.47,39.24 22.86,13.05 53.19,20.07 85.5,19.89 13.86,-0.09 27.54,-1.53 40.59,-4.32 h 0.18 l 0.54,-0.27 c 16.38,-3.42 31.32,-9 43.92,-16.38 12.69,-7.38 22.14,-16.11 28.17,-25.92 l 0.36,-0.36 -0.18,-0.54 c 6.57,-10.17 8.46,-21.96 5.49,-33.39 -0.45,-1.62 -0.9,-3.15 -1.53,-4.68 -2.7,-8.37 -8.1,-16.38 -16.11,-23.76 -4.77,-4.41 -10.44,-8.55 -17.1,-12.33 -0.09,0 -0.09,0 -0.09,0 -23.22,-13.23 -53.46,-19.8 -83.79,-19.8 -14.22,0 -28.35,1.44 -41.85,4.32 m 16.56,4.95 c 7.83,-1.08 15.93,-1.62 24.03,-1.62 3.06,0 6.03,0 9.09,0.09 -3.24,3.24 -6.66,6.48 -10.17,9.54 -7.47,-2.88 -15.12,-5.49 -22.95,-8.01 M 3330,1755 c 4.59,-4.05 8.91,-8.28 12.96,-12.42 18.81,2.16 36.9,7.11 51.84,14.4 l -27.18,15.93 c -11.7,-6.48 -24.21,-12.42 -37.62,-17.91 m -81.63,3.33 c 9.72,-5.04 20.61,-9 32.67,-11.79 11.16,3.33 22.23,6.93 32.67,10.89 -9.18,7.38 -19.26,14.4 -30.24,20.88 l -35.1,-19.98 m 43.47,24.66 c 11.34,-6.84 21.87,-14.22 31.23,-22.05 12.78,5.13 24.84,10.71 36.18,16.92 l -37.71,22.05 -29.7,-16.92 m 84.15,-5.31 27.36,-16.02 c 13.14,7.92 22.41,17.64 27,28.26 -8.19,2.79 -16.2,5.58 -23.85,8.64 -9.36,-7.38 -19.53,-14.4 -30.51,-20.88 m -156.87,4.41 c 4.95,-6.93 11.97,-13.41 20.79,-18.99 l 35.19,20.07 c -11.43,6.21 -23.67,12.15 -36.81,17.55 -6.84,-5.94 -13.32,-12.15 -19.17,-18.63 m 110.79,22.59 37.8,-22.14 c 10.71,6.21 20.61,12.87 29.52,19.8 -13.68,5.76 -26.37,12.06 -38.25,18.9 l -29.07,-16.56 m -84.51,1.8 c 13.59,-5.76 26.55,-12.06 38.52,-18.81 l 29.25,17.1 -37.8,22.14 c -10.8,-6.39 -20.79,-13.14 -29.97,-20.43 m -30.96,-16.2 c 4.59,4.77 9.54,9.45 14.67,14.04 -5.76,2.16 -11.79,4.32 -17.91,6.39 -0.9,-6.84 0.18,-13.77 3.24,-20.43 m 198.99,14.13 c 6.21,-2.34 12.69,-4.68 19.35,-6.93 1.35,6.39 1.08,12.78 -0.9,19.08 -0.45,1.26 -0.99,2.61 -1.62,3.96 -5.22,-5.58 -10.89,-10.98 -16.83,-16.11 m -45.99,21.6 c 11.34,-6.48 23.76,-12.42 36.9,-17.91 7.65,6.48 14.76,13.32 21.15,20.34 -4.95,6.84 -11.88,13.14 -20.88,18.81 l -37.17,-21.24 m -83.7,5.67 37.8,-22.14 29.16,16.65 c -11.25,7.02 -21.69,14.49 -31.14,22.41 -12.78,-5.13 -24.66,-10.8 -35.82,-16.92 m -70.83,-13.23 c 7.92,-2.52 15.66,-5.31 23.22,-8.28 9.36,7.65 19.8,14.85 30.96,21.6 l -27.36,16.02 c -13.68,-8.46 -22.59,-18.72 -26.82,-29.34 m 115.92,33.75 c 9.18,-7.56 19.35,-14.67 30.24,-21.33 l 37.08,21.15 c -9.81,5.04 -20.79,8.91 -32.49,11.61 -12.15,-3.51 -23.76,-7.29 -34.83,-11.43 m -80.64,0.36 27.54,-16.2 c 11.16,6.57 23.85,12.78 37.08,18.18 -4.5,4.14 -8.82,8.28 -12.87,12.6 -18.72,-2.16 -36.63,-6.93 -51.75,-14.58 m 63.18,15.57 c 3.33,-3.42 6.84,-6.84 10.53,-9.99 8.01,3.06 16.29,5.94 24.75,8.55 -8.35,1.11 -16.94,1.7 -25.52,1.7 -3.26,0 -6.52,-0.09 -9.76,-0.26 m 101.34,31.05 h -0.72 c -1.98,0.09 -3.87,0.36 -5.76,0.9 -1.8,0.54 -3.51,1.26 -5.04,2.16 -1.35,0.81 -2.61,1.71 -3.51,2.7 -0.9,0.99 -1.71,1.98 -2.16,3.06 -0.54,0.99 -0.81,1.98 -0.99,2.97 -0.09,0.99 0,1.89 0.27,2.61 l 0.72,0.54 5.49,-0.09 0.54,-0.18 0.18,-0.54 v -0.72 -0.99 l 0.54,-1.89 1.17,-1.8 c 0.54,-0.63 1.26,-1.26 2.25,-1.8 0.81,-0.54 1.8,-0.9 2.88,-1.26 0.99,-0.27 2.07,-0.54 3.24,-0.63 h 0.81 l 2.43,0.18 c 1.08,0.27 2.16,0.63 3.06,1.17 1.17,0.63 1.89,1.35 2.07,2.07 l -0.27,2.25 -1.62,2.43 -1.89,2.25 -1.26,1.98 c -0.54,0.9 -0.81,1.8 -0.9,2.79 -0.09,0.99 0.18,2.07 0.81,3.15 0.54,0.99 1.62,2.07 3.24,3.06 1.26,0.72 2.61,1.26 4.14,1.71 1.62,0.54 3.33,0.81 5.13,0.81 l 0.9,0.09 c 1.53,0 3.15,-0.27 4.77,-0.63 2.07,-0.45 4.05,-1.26 6.03,-2.43 1.44,-0.81 2.7,-1.89 3.78,-3.15 1.08,-1.26 1.8,-2.97 2.16,-5.04 l -0.09,-0.36 c 0,-0.18 0.09,-0.36 0.09,-0.54 -0.99,0 -1.89,-0.09 -2.88,-0.18 -0.9,0 -1.89,-0.09 -2.79,-0.18 v 0.09 l -0.72,-0.09 -0.54,0.27 -0.18,0.54 -0.18,0.9 -0.54,1.26 -1.17,1.44 -1.8,1.35 c -1.62,1.08 -3.51,1.62 -5.22,1.62 -2.16,-0.09 -3.96,-0.63 -5.58,-1.53 l -1.71,-1.53 -0.09,-0.9 0.63,-1.26 1.26,-1.62 c 0.72,-0.99 1.53,-1.98 2.25,-3.15 0.81,-1.17 1.35,-2.43 1.62,-3.69 0.09,-0.54 0.18,-1.08 0.09,-1.62 0.09,-0.9 -0.09,-1.89 -0.54,-2.79 -0.54,-1.17 -1.8,-2.34 -3.6,-3.33 -1.62,-0.9 -3.33,-1.53 -5.13,-1.98 -1.53,-0.27 -3.15,-0.45 -4.68,-0.45 -0.36,0 -0.63,0 -0.99,0 m -27.9,13.68 -0.45,-0.18 -0.36,0.09 -4.41,2.52 -0.27,0.54 0.09,0.54 8.01,11.34 -10.35,6.03 c -3.33,-0.72 -6.48,-1.44 -9.81,-2.16 -3.51,-0.81 -6.93,-1.62 -10.35,-2.43 l -0.18,0.09 h -0.18 l -5.13,2.61 -0.36,0.72 0.54,0.63 55.17,12.51 0.63,-0.36 v -0.81 l -0.27,-0.36 c 0.18,0 0.27,0.09 0.36,0.09 -3.69,-5.31 -7.47,-10.62 -11.16,-15.84 -3.78,-5.22 -7.47,-10.44 -11.25,-15.75 l -0.27,0.18 m 6.03,24.03 c -1.98,-0.45 -3.78,-0.9 -5.76,-1.26 l 5.58,-3.33 3.96,5.49 c -1.26,-0.36 -2.52,-0.63 -3.78,-0.9 m -60.12,7.65 -0.09,-0.09 -0.36,-0.09 -0.36,0.09 -4.32,2.52 -0.36,0.63 0.36,0.63 37.08,21.06 0.36,0.18 0.36,-0.18 8.64,-5.04 c 1.26,-0.72 2.43,-1.62 3.51,-2.79 1.17,-1.08 1.98,-2.34 2.52,-3.6 0.27,-0.9 0.45,-1.8 0.36,-2.7 0,-0.63 -0.09,-1.26 -0.27,-1.89 -0.45,-1.26 -1.62,-2.34 -3.42,-3.42 -3.15,-1.8 -6.66,-2.7 -10.44,-2.7 -0.09,0 -0.09,0 -0.18,0 -0.18,0 -0.27,0 -0.45,0 -3.96,0.09 -7.83,1.17 -11.52,3.33 l -5.04,2.97 -16.11,-9.09 -0.27,0.18 m 22.05,12.15 3.24,-1.89 c 1.44,-0.81 2.88,-1.44 4.23,-1.8 1.26,-0.36 2.52,-0.45 3.69,-0.54 1.17,0 2.16,0.18 3.06,0.45 0.9,0.18 1.71,0.54 2.34,0.9 l 1.35,1.35 0.18,1.53 -0.99,1.89 c -0.54,0.63 -1.35,1.26 -2.43,1.89 l -3.96,2.34 -10.71,-6.12"
         id="path4864"
         inkscape:connector-curvature="0"
         style="clip-rule:evenodd" />
    </clipPath>
    <clipPath
       clipPathUnits="userSpaceOnUse"
       id="clipPath2488">
      <path
         d="m 292.041,338.419 h 32.201 v -20.04 h -32.201 z"
         id="path2486"
         inkscape:connector-curvature="0" />
    </clipPath>
    <clipPath
       clipPathUnits="userSpaceOnUse"
       id="clipPath2464">
      <path
         d="m 264.752,334.012 h 59.589 v -38.836 h -59.589 z"
         id="path2462"
         inkscape:connector-curvature="0" />
    </clipPath>
    <clipPath
       clipPathUnits="userSpaceOnUse"
       id="clipPath2328">
      <path
         d="m 329.943,175.66 h 8.999 v -32.667 h -8.999 z"
         id="path2326"
         inkscape:connector-curvature="0" />
    </clipPath>
    <clipPath
       clipPathUnits="userSpaceOnUse"
       id="clipPath2308">
      <path
         d="m 151.239,175.399 h 9 v -32.667 h -9 z"
         id="path2306"
         inkscape:connector-curvature="0" />
    </clipPath>
    <clipPath
       clipPathUnits="userSpaceOnUse"
       id="clipPath2288">
      <path
         d="M 151.239,175.399 H 337.903 V 142.732 H 151.239 Z"
         id="path2286"
         inkscape:connector-curvature="0" />
    </clipPath>
    <clipPath
       clipPathUnits="userSpaceOnUse"
       id="clipPath2070">
      <path
         d="m 351.903,98.9238 h 11.452 V 57.3486 h -11.452 z"
         id="path2068"
         inkscape:connector-curvature="0" />
    </clipPath>
    <clipPath
       clipPathUnits="userSpaceOnUse"
       id="clipPath2050">
      <path
         d="m 125.786,98.9238 h 11.455 V 57.3486 h -11.455 z"
         id="path2048"
         inkscape:connector-curvature="0" />
    </clipPath>
    <clipPath
       clipPathUnits="userSpaceOnUse"
       id="clipPath2030">
      <path
         d="M 126.306,98.6641 H 363.875 V 57.0879 H 126.306 Z"
         id="path2028"
         inkscape:connector-curvature="0" />
    </clipPath>
    <clipPath
       clipPathUnits="userSpaceOnUse"
       id="clipPath312">
      <path
         d="m 240.032,269.693 h 24.86 v -61.049 h -24.86 z"
         id="path310"
         inkscape:connector-curvature="0" />
    </clipPath>
    <clipPath
       clipPathUnits="userSpaceOnUse"
       id="clipPath328">
      <path
         d="m 201.354,265.387 h 24.861 v -61.048 h -24.861 z"
         id="path326"
         inkscape:connector-curvature="0" />
    </clipPath>
    <clipPath
       clipPathUnits="userSpaceOnUse"
       id="clipPath356">
      <path
         d="m 260.029,283.091 h 37.76 v -13.079 h -37.76 z"
         id="path354"
         inkscape:connector-curvature="0" />
    </clipPath>
    <clipPath
       clipPathUnits="userSpaceOnUse"
       id="clipPath376">
      <path
         d="M 259.352,205.681 H 377.111 V 127.553 H 259.352 Z"
         id="path374"
         inkscape:connector-curvature="0" />
    </clipPath>
    <clipPath
       clipPathUnits="userSpaceOnUse"
       id="clipPath396">
      <path
         d="m 288.478,286.3 h 84.89 v -18.88 h -84.89 z"
         id="path394"
         inkscape:connector-curvature="0" />
    </clipPath>
    <clipPath
       clipPathUnits="userSpaceOnUse"
       id="clipPath424">
      <path
         d="m 295.336,258.097 h 73.028 v -15.03 h -73.028 z"
         id="path422"
         inkscape:connector-curvature="0" />
    </clipPath>
    <clipPath
       clipPathUnits="userSpaceOnUse"
       id="clipPath440">
      <path
         d="m 295.982,219.141 h 73.028 v -15.03 h -73.028 z"
         id="path438"
         inkscape:connector-curvature="0" />
    </clipPath>
    <clipPath
       clipPathUnits="userSpaceOnUse"
       id="clipPath508">
      <path
         d="m 302.488,332.035 h 25.808 v -6.675 h -25.808 z"
         id="path506"
         inkscape:connector-curvature="0" />
    </clipPath>
    <clipPath
       clipPathUnits="userSpaceOnUse"
       id="clipPath524">
      <path
         d="m 301.965,334.581 h 25.626 v -4.058 h -25.626 z"
         id="path522"
         inkscape:connector-curvature="0" />
    </clipPath>
    <clipPath
       clipPathUnits="userSpaceOnUse"
       id="clipPath700">
      <path
         d="M 136.476,152.818 H 271.222 V 123.261 H 136.476 Z"
         id="path698"
         inkscape:connector-curvature="0" />
    </clipPath>
    <clipPath
       clipPathUnits="userSpaceOnUse"
       id="clipPath804">
      <path
         d="m 192.208,230.625 h 16.889 v -5.153 h -16.889 z"
         id="path802"
         inkscape:connector-curvature="0" />
    </clipPath>
    <clipPath
       clipPathUnits="userSpaceOnUse"
       id="clipPath828">
      <path
         d="m 192.576,231.354 h 13.17 v -3.749 h -13.17 z"
         id="path826"
         inkscape:connector-curvature="0" />
    </clipPath>
    <clipPath
       clipPathUnits="userSpaceOnUse"
       id="clipPath956">
      <path
         d="m 272.234,140.678 h 59.988 v -24.104 h -59.988 z"
         id="path954"
         inkscape:connector-curvature="0" />
    </clipPath>
    <clipPath
       clipPathUnits="userSpaceOnUse"
       id="clipPath980">
      <path
         d="m 279.368,156.058 h 36.295 v -30.813 h -36.295 z"
         id="path978"
         inkscape:connector-curvature="0" />
    </clipPath>
  </defs>
  <sodipodi:namedview
     id="base"
     pagecolor="#ffffff"
     bordercolor="#666666"
     borderopacity="1.0"
     inkscape:pageopacity="0.0"
     inkscape:pageshadow="2"
     inkscape:zoom="1"
     inkscape:cx="112.91461"
     inkscape:cy="100"
     inkscape:document-units="px"
     inkscape:current-layer="g1269"
     showgrid="false"
     units="px"
     fit-margin-top="0"
     fit-margin-left="0"
     fit-margin-right="0"
     fit-margin-bottom="0"
     inkscape:window-width="1890"
     inkscape:window-height="1052"
     inkscape:window-x="30"
     inkscape:window-y="0"
     inkscape:window-maximized="1"
     inkscape:document-rotation="0"
     showguides="false" />
  <metadata
     id="metadata6002">
    <rdf:RDF>
      <cc:Work
         rdf:about="">
        <dc:format>image/svg+xml</dc:format>
        <dc:type
           rdf:resource="http://purl.org/dc/dcmitype/StillImage" />
        <dc:title></dc:title>
      </cc:Work>
    </rdf:RDF>
  </metadata>
  <g
     inkscape:label="Layer 1"
     inkscape:groupmode="layer"
     id="layer1"
     transform="translate(60.498624,20.651066)">
    <g
       id="g5888"
       transform="matrix(0.09207366,0,0,-0.09207366,38.686674,216.39297)"
       style="stroke-width:0.383147">
      <g
         id="g7712"
         transform="matrix(0.24342526,0,0,0.22623469,-469.21063,1870.1453)"
         style="stroke-width:1.63268995">
        <g
           transform="matrix(5.8170716,0,0,6.2590849,-3628.8043,1367.1117)"
           id="g2084">
          <g
             transform="matrix(4.3018748,0,0,4.3018748,-641.97768,-921.22483)"
             id="g1269">
            <g
               id="g2024"
               transform="matrix(0.44744636,0,0,0.45504731,138.14566,162.67031)">
              <g
                 id="g2026" />
            </g>
            <g
               transform="matrix(0.37855384,0,0,0.37855384,154.50418,145.71374)"
               id="g2237"
               style="stroke-width:2.7127769">
              <g
                 transform="translate(180.8995,218.0426)"
                 id="g118"
                 style="stroke-width:2.7127769">
                <path
                   inkscape:connector-curvature="0"
                   id="path120"
                   style="fill:#ffffff;fill-opacity:1;fill-rule:nonzero;stroke:none;stroke-width:2.7127769"
                   d="M 0,0 -24.966,26.534 -43.211,9.367 -18.245,-17.167 c 0.729,-0.775 1.96,-0.812 2.735,-0.083 L -0.083,-2.734 C 0.692,-2.005 0.729,-0.775 0,0" />
              </g>
              <g
                 transform="translate(147.2286,253.8281)"
                 id="g122"
                 style="stroke-width:2.7127769">
                <path
                   inkscape:connector-curvature="0"
                   id="path124"
                   style="fill:#faaf40;fill-opacity:1;fill-rule:nonzero;stroke:none;stroke-width:2.7127769"
                   d="m 0,0 c -0.729,0.775 -1.96,0.812 -2.734,0.083 l -15.428,-14.515 c -0.775,-0.729 -0.812,-1.96 -0.083,-2.735 l 8.705,-9.251 18.245,17.166 z" />
              </g>
              <g
                 transform="translate(176.0142,214.9069)"
                 id="g126"
                 style="stroke-width:2.7127769">
                <path
                   inkscape:connector-curvature="0"
                   id="path128"
                   style="fill:#d0d2d3;fill-opacity:1;fill-rule:nonzero;stroke:none;stroke-width:2.7127769"
                   d="m 0,0 -23.397,24.867 0.563,0.53 L 0.564,0.53 Z" />
              </g>
              <g
                 transform="translate(158.5438,225.4289)"
                 id="g130"
                 style="stroke-width:2.7127769">
                <path
                   inkscape:connector-curvature="0"
                   id="path132"
                   style="fill:#d0d2d3;fill-opacity:1;fill-rule:nonzero;stroke:none;stroke-width:2.7127769"
                   d="M 0,0 -9.942,10.567 -7.406,12.953 2.536,2.386 Z" />
              </g>
              <g
                 transform="translate(155.0568,222.148)"
                 id="g134"
                 style="stroke-width:2.7127769">
                <path
                   inkscape:connector-curvature="0"
                   id="path136"
                   style="fill:#d0d2d3;fill-opacity:1;fill-rule:nonzero;stroke:none;stroke-width:2.7127769"
                   d="M 0,0 -9.942,10.567 -7.406,12.953 2.536,2.386 Z" />
              </g>
              <g
                 transform="translate(151.605,218.9002)"
                 id="g138"
                 style="stroke-width:2.7127769">
                <path
                   inkscape:connector-curvature="0"
                   id="path140"
                   style="fill:#d0d2d3;fill-opacity:1;fill-rule:nonzero;stroke:none;stroke-width:2.7127769"
                   d="M 0,0 -9.942,10.567 -7.406,12.953 2.536,2.386 Z" />
              </g>
              <g
                 transform="translate(169.794,213.4369)"
                 id="g142"
                 style="stroke-width:2.7127769">
                <path
                   inkscape:connector-curvature="0"
                   id="path144"
                   style="fill:#d0d2d3;fill-opacity:1;fill-rule:nonzero;stroke:none;stroke-width:2.7127769"
                   d="M 0,0 -9.942,10.567 -7.406,12.953 2.536,2.386 Z" />
              </g>
              <g
                 transform="translate(166.307,210.156)"
                 id="g146"
                 style="stroke-width:2.7127769">
                <path
                   inkscape:connector-curvature="0"
                   id="path148"
                   style="fill:#d0d2d3;fill-opacity:1;fill-rule:nonzero;stroke:none;stroke-width:2.7127769"
                   d="M 0,0 -9.942,10.567 -7.406,12.953 2.536,2.386 Z" />
              </g>
              <g
                 transform="translate(162.8553,206.9082)"
                 id="g150"
                 style="stroke-width:2.7127769">
                <path
                   inkscape:connector-curvature="0"
                   id="path152"
                   style="fill:#d0d2d3;fill-opacity:1;fill-rule:nonzero;stroke:none;stroke-width:2.7127769"
                   d="M 0,0 -9.942,10.567 -7.406,12.953 2.536,2.386 Z" />
              </g>
              <g
                 transform="translate(145.9491,236.9266)"
                 id="g154"
                 style="stroke-width:2.7127769">
                <path
                   inkscape:connector-curvature="0"
                   id="path156"
                   style="fill:#f58d3e;fill-opacity:1;fill-rule:nonzero;stroke:none;stroke-width:2.7127769"
                   d="M 0,0 -0.216,0.64 -0.304,0.9 c 0.095,0.074 0.17,0.138 0.212,0.183 0.013,0.012 0.023,0.024 0.029,0.033 0.025,0.038 0.031,0.077 0.024,0.116 -0.007,0.039 -0.028,0.077 -0.055,0.11 C -0.122,1.376 -0.156,1.405 -0.191,1.427 -0.225,1.449 -0.261,1.464 -0.29,1.468 -0.296,1.469 -0.305,1.466 -0.315,1.461 -0.346,1.444 -0.394,1.4 -0.453,1.34 l -0.334,0.989 c 0.011,0.008 0.021,0.016 0.032,0.024 0.016,0.012 0.033,0.024 0.048,0.035 0.001,0 0.001,10e-4 0.002,10e-4 0,0 0.001,0.001 0.001,0.001 0.087,0.064 0.164,0.123 0.228,0.174 0.103,0.083 0.172,0.145 0.193,0.178 0.001,10e-4 0.003,0.002 0.003,0.003 0.016,0.026 0.017,0.063 0.007,0.107 -0.005,0.022 -0.013,0.046 -0.023,0.072 -0.041,0.103 -0.121,0.23 -0.218,0.357 C -0.563,3.345 -0.615,3.408 -0.669,3.468 -0.831,3.647 -1.005,3.796 -1.115,3.829 -1.133,3.835 -1.149,3.837 -1.164,3.836 -1.169,3.835 -1.176,3.833 -1.184,3.829 -1.192,3.825 -1.201,3.82 -1.211,3.814 V 3.815 C -1.213,3.814 -1.215,3.812 -1.216,3.811 -1.233,3.8 -1.252,3.786 -1.274,3.768 L -1.662,4.916 -1.72,5.087 c 0.24,0.25 0.457,0.496 0.648,0.734 0.019,0.023 0.038,0.047 0.057,0.07 0.201,0.255 0.374,0.499 0.517,0.727 0.022,0.036 0.044,0.072 0.065,0.107 0.069,0.115 0.13,0.226 0.183,0.331 0.012,0.025 0.024,0.05 0.036,0.074 0.062,0.13 0.11,0.251 0.146,0.362 0.013,0.042 0.025,0.083 0.035,0.123 0.039,0.162 0.043,0.294 0.011,0.39 C -0.028,8.023 -0.035,8.041 -0.044,8.057 -0.053,8.073 -0.063,8.088 -0.075,8.102 -0.173,8.209 -0.371,8.235 -0.642,8.183 -0.669,8.178 -0.697,8.172 -0.726,8.165 -0.783,8.152 -0.843,8.135 -0.906,8.115 -1,8.086 -1.1,8.05 -1.205,8.006 -1.389,7.931 -1.59,7.834 -1.803,7.717 -2.035,7.589 -2.283,7.437 -2.54,7.26 -2.585,7.23 -2.63,7.198 -2.675,7.166 -2.857,7.038 -3.043,6.898 -3.231,6.747 l -0.011,0.005 -0.012,0.005 0.007,0.008 0.007,0.007 -0.033,0.015 -0.155,0.07 C -3.434,6.852 -3.441,6.847 -3.446,6.843 l -1.351,0.603 c 0.022,0.018 0.041,0.036 0.059,0.053 0.001,0.001 0.002,0.002 0.003,0.002 v 0 10e-4 c 0.049,0.046 0.084,0.084 0.1,0.111 0.006,0.009 0.009,0.017 0.011,0.024 0.021,0.113 -0.175,0.384 -0.404,0.615 -0.029,0.029 -0.058,0.057 -0.087,0.084 -0.059,0.054 -0.118,0.104 -0.175,0.147 -0.028,0.021 -0.056,0.041 -0.083,0.058 -0.108,0.07 -0.2,0.104 -0.254,0.078 -0.001,0 -0.004,-0.002 -0.005,-0.003 C -5.681,8.589 -5.794,8.479 -5.943,8.316 -5.968,8.288 -5.995,8.259 -6.023,8.228 -6.05,8.197 -6.078,8.165 -6.107,8.132 v 0 L -6.108,8.131 C -6.128,8.108 -6.149,8.083 -6.17,8.059 l -0.669,0.298 c 0.034,0.031 0.063,0.058 0.081,0.079 0.006,0.007 0.011,0.013 0.015,0.018 0.101,0.151 -0.11,0.336 -0.228,0.352 C -6.993,8.81 -7.046,8.767 -7.115,8.697 -7.129,8.683 -7.144,8.668 -7.159,8.652 -7.19,8.619 -7.223,8.583 -7.258,8.544 L -8.134,8.935 -8.797,8.332 -7.986,7.538 -7.174,6.744 C -7.183,6.731 -7.191,6.718 -7.2,6.704 -7.211,6.686 -7.223,6.668 -7.234,6.65 -7.234,6.649 -7.236,6.647 -7.236,6.646 -7.237,6.645 -7.238,6.643 -7.239,6.643 L -7.238,6.642 C -7.307,6.531 -7.361,6.43 -7.397,6.345 -7.416,6.301 -7.431,6.261 -7.439,6.227 -7.449,6.186 -7.452,6.152 -7.445,6.126 -7.442,6.113 -7.436,6.102 -7.429,6.094 -7.344,6.001 -7.097,6.058 -6.783,6.195 v 0 0 c 0.001,10e-4 0.003,10e-4 0.004,0.002 0.001,0 0.002,0.001 0.002,0.001 0.036,0.016 0.073,0.032 0.11,0.05 L -5.923,5.52 -5.208,4.82 C -5.957,3.983 -6.729,3.032 -7.322,2.241 -7.364,2.184 -7.405,2.129 -7.446,2.074 -7.486,2.019 -7.526,1.965 -7.564,1.912 l 0.073,0.11 0.073,0.11 -1.953,0.381 -0.559,-0.819 1.64,-0.87 0.064,0.096 C -8.266,0.848 -8.298,0.786 -8.32,0.735 -8.342,0.683 -8.355,0.642 -8.357,0.613 -8.359,0.594 -8.356,0.579 -8.348,0.571 -8.343,0.565 -8.336,0.562 -8.327,0.56 -8.276,0.548 -8.158,0.584 -7.989,0.659 L -8.016,0.645 -8.09,0.604 -7.378,-1.109 -6.51,-0.63 -6.706,1.351 -6.809,1.295 -6.939,1.225 c 0.731,0.433 1.65,1.028 2.522,1.645 0.202,0.142 0.401,0.286 0.594,0.429 l 1.094,-1.351 c -0.024,-0.04 -0.046,-0.079 -0.067,-0.117 0,0 0,0 0,0 C -2.797,1.83 -2.798,1.829 -2.798,1.828 v 0 C -2.882,1.676 -2.945,1.54 -2.975,1.43 -3.006,1.319 -3.005,1.235 -2.963,1.188 c 0.024,-0.026 0.071,-0.032 0.134,-0.023 0.107,0.017 0.263,0.078 0.445,0.168 v 0 0 c 10e-4,0.001 0.002,0.001 0.003,0.001 l 10e-4,10e-4 c 0.019,0.009 0.038,0.02 0.057,0.029 0.016,0.008 0.031,0.016 0.047,0.024 l 1.613,-1.991 z" />
              </g>
              <g
                 transform="translate(137.8041,229.2629)"
                 id="g158"
                 style="stroke-width:2.7127769">
                <path
                   inkscape:connector-curvature="0"
                   id="path160"
                   style="fill:#f58d3e;fill-opacity:1;fill-rule:nonzero;stroke:none;stroke-width:2.7127769"
                   d="M 0,0 -7.878,8.373 -6.939,9.257 0.939,0.884 Z" />
              </g>
              <g
                 transform="translate(151.7989,242.4308)"
                 id="g162"
                 style="stroke-width:2.7127769">
                <path
                   inkscape:connector-curvature="0"
                   id="path164"
                   style="fill:#f58d3e;fill-opacity:1;fill-rule:nonzero;stroke:none;stroke-width:2.7127769"
                   d="m 0,0 -7.878,8.373 2.113,1.989 7.878,-8.374 z" />
              </g>
              <g
                 transform="translate(191.2509,216.2224)"
                 id="g166"
                 style="stroke-width:2.7127769">
                <path
                   inkscape:connector-curvature="0"
                   id="path168"
                   style="fill:#ffffff;fill-opacity:1;fill-rule:nonzero;stroke:none;stroke-width:2.7127769"
                   d="m 0,0 -11.08,34.707 -23.865,-7.619 11.08,-34.707 c 0.324,-1.013 1.418,-1.578 2.431,-1.254 l 20.179,6.442 C -0.241,-2.107 0.324,-1.014 0,0" />
              </g>
              <g
                 transform="translate(176.3077,263.0309)"
                 id="g170"
                 style="stroke-width:2.7127769">
                <path
                   inkscape:connector-curvature="0"
                   id="path172"
                   style="fill:#faaf40;fill-opacity:1;fill-rule:nonzero;stroke:none;stroke-width:2.7127769"
                   d="M 0,0 C -0.324,1.014 -1.418,1.578 -2.431,1.254 L -22.61,-5.188 c -1.014,-0.323 -1.578,-1.417 -1.255,-2.431 l 3.863,-12.101 23.865,7.619 z" />
              </g>
              <g
                 transform="translate(185.491,215.5005)"
                 id="g174"
                 style="stroke-width:2.7127769">
                <path
                   inkscape:connector-curvature="0"
                   id="path176"
                   style="fill:#d0d2d3;fill-opacity:1;fill-rule:nonzero;stroke:none;stroke-width:2.7127769"
                   d="M 0,0 -10.384,32.526 -9.647,32.762 0.737,0.235 Z" />
              </g>
              <g
                 transform="translate(174.2674,232.5287)"
                 id="g178"
                 style="stroke-width:2.7127769">
                <path
                   inkscape:connector-curvature="0"
                   id="path180"
                   style="fill:#d0d2d3;fill-opacity:1;fill-rule:nonzero;stroke:none;stroke-width:2.7127769"
                   d="M 0,0 -4.412,13.821 -1.095,14.88 3.317,1.059 Z" />
              </g>
              <g
                 transform="translate(169.7063,231.0726)"
                 id="g182"
                 style="stroke-width:2.7127769">
                <path
                   inkscape:connector-curvature="0"
                   id="path184"
                   style="fill:#d0d2d3;fill-opacity:1;fill-rule:nonzero;stroke:none;stroke-width:2.7127769"
                   d="M 0,0 -4.412,13.821 -1.095,14.88 3.317,1.059 Z" />
              </g>
              <g
                 transform="translate(165.1914,229.6313)"
                 id="g186"
                 style="stroke-width:2.7127769">
                <path
                   inkscape:connector-curvature="0"
                   id="path188"
                   style="fill:#d0d2d3;fill-opacity:1;fill-rule:nonzero;stroke:none;stroke-width:2.7127769"
                   d="M 0,0 -4.412,13.821 -1.095,14.88 3.317,1.059 Z" />
              </g>
              <g
                 transform="translate(179.2451,216.8571)"
                 id="g190"
                 style="stroke-width:2.7127769">
                <path
                   inkscape:connector-curvature="0"
                   id="path192"
                   style="fill:#d0d2d3;fill-opacity:1;fill-rule:nonzero;stroke:none;stroke-width:2.7127769"
                   d="M 0,0 -4.412,13.821 -1.095,14.88 3.317,1.059 Z" />
              </g>
              <g
                 transform="translate(174.684,215.401)"
                 id="g194"
                 style="stroke-width:2.7127769">
                <path
                   inkscape:connector-curvature="0"
                   id="path196"
                   style="fill:#d0d2d3;fill-opacity:1;fill-rule:nonzero;stroke:none;stroke-width:2.7127769"
                   d="M 0,0 -4.412,13.821 -1.095,14.88 3.317,1.059 Z" />
              </g>
              <g
                 transform="translate(170.169,213.9597)"
                 id="g198"
                 style="stroke-width:2.7127769">
                <path
                   inkscape:connector-curvature="0"
                   id="path200"
                   style="fill:#d0d2d3;fill-opacity:1;fill-rule:nonzero;stroke:none;stroke-width:2.7127769"
                   d="M 0,0 -4.412,13.821 -1.095,14.88 3.317,1.059 Z" />
              </g>
              <g
                 transform="translate(167.8635,248.3342)"
                 id="g202"
                 style="stroke-width:2.7127769">
                <path
                   inkscape:connector-curvature="0"
                   id="path204"
                   style="fill:#f58d3e;fill-opacity:1;fill-rule:nonzero;stroke:none;stroke-width:2.7127769"
                   d="M 0,0 0.081,0.67 0.114,0.943 C 0.231,0.969 0.327,0.995 0.385,1.016 0.401,1.023 0.415,1.029 0.425,1.034 0.464,1.057 0.486,1.09 0.496,1.129 0.507,1.167 0.504,1.21 0.494,1.252 0.484,1.294 0.465,1.335 0.444,1.37 0.422,1.405 0.396,1.433 0.371,1.45 0.366,1.453 0.358,1.454 0.346,1.454 0.311,1.452 0.248,1.434 0.169,1.404 l 0.125,1.037 c 0.014,0.003 0.026,0.005 0.04,0.008 0.019,0.003 0.039,0.007 0.058,0.01 0,0 0.002,10e-4 0.002,10e-4 h 0.002 c 0.106,0.02 0.201,0.04 0.28,0.059 0.129,0.03 0.218,0.056 0.252,0.076 0.001,10e-4 0.003,0.002 0.004,0.003 0.025,0.016 0.042,0.049 0.052,0.093 0.005,0.022 0.009,0.047 0.01,0.075 0.008,0.11 -0.01,0.26 -0.042,0.416 C 0.935,3.26 0.915,3.34 0.892,3.417 0.823,3.649 0.731,3.859 0.646,3.936 0.632,3.948 0.618,3.958 0.605,3.962 0.599,3.964 0.592,3.965 0.583,3.965 0.574,3.966 0.564,3.965 0.553,3.964 v 0 C 0.551,3.964 0.549,3.963 0.547,3.963 0.527,3.961 0.504,3.956 0.476,3.949 l 0.145,1.203 0.022,0.18 C 0.967,5.453 1.268,5.581 1.544,5.714 1.571,5.727 1.598,5.74 1.625,5.753 1.917,5.896 2.178,6.042 2.405,6.186 2.441,6.209 2.476,6.231 2.51,6.254 2.622,6.328 2.725,6.402 2.818,6.474 2.84,6.491 2.861,6.508 2.882,6.525 2.994,6.616 3.09,6.704 3.17,6.788 3.2,6.821 3.229,6.853 3.254,6.884 3.36,7.013 3.42,7.131 3.433,7.231 3.436,7.251 3.436,7.27 3.435,7.288 3.434,7.307 3.432,7.325 3.426,7.342 3.385,7.481 3.217,7.59 2.95,7.66 2.923,7.667 2.896,7.673 2.867,7.68 2.81,7.692 2.748,7.703 2.683,7.712 2.586,7.727 2.48,7.737 2.366,7.743 2.167,7.754 1.944,7.753 1.702,7.74 1.437,7.724 1.148,7.694 0.84,7.646 0.786,7.638 0.732,7.629 0.677,7.619 0.458,7.582 0.23,7.536 -0.005,7.481 l -0.008,0.009 -0.008,0.01 0.01,0.004 0.009,0.003 -0.023,0.028 -0.111,0.13 C -0.143,7.663 -0.151,7.662 -0.158,7.66 l -0.958,1.126 c 0.027,0.008 0.053,0.015 0.076,0.023 0.001,0 0.003,0.001 0.004,0.001 v 0 0 c 0.064,0.021 0.112,0.04 0.139,0.058 0.008,0.006 0.015,0.011 0.019,0.017 0.068,0.092 0.008,0.422 -0.099,0.728 -0.014,0.039 -0.028,0.077 -0.043,0.114 -0.029,0.074 -0.061,0.145 -0.094,0.208 -0.016,0.031 -0.033,0.061 -0.05,0.088 -0.067,0.11 -0.135,0.18 -0.195,0.18 -0.002,0 -0.005,0 -0.006,0 C -1.421,10.199 -1.57,10.149 -1.775,10.066 -1.81,10.052 -1.846,10.037 -1.885,10.021 -1.923,10.005 -1.962,9.988 -2.003,9.97 v 0 C -2.032,9.958 -2.061,9.945 -2.091,9.932 l -0.475,0.558 c 0.045,0.013 0.082,0.025 0.107,0.036 0.009,0.003 0.016,0.007 0.021,0.01 0.157,0.092 0.047,0.35 -0.053,0.416 -0.019,0.012 -0.084,-0.003 -0.177,-0.037 -0.019,-0.006 -0.039,-0.014 -0.06,-0.022 -0.041,-0.016 -0.086,-0.034 -0.135,-0.054 l -0.622,0.731 -0.858,-0.259 0.39,-1.066 0.389,-1.066 C -3.578,9.171 -3.59,9.162 -3.604,9.154 -3.622,9.143 -3.64,9.131 -3.658,9.12 -3.659,9.119 -3.661,9.118 -3.662,9.117 -3.663,9.116 -3.665,9.116 -3.666,9.115 v 0 C -3.775,9.043 -3.867,8.976 -3.937,8.915 -3.973,8.884 -4.004,8.854 -4.026,8.826 -4.053,8.794 -4.07,8.764 -4.075,8.738 -4.077,8.725 -4.077,8.713 -4.074,8.702 -4.037,8.581 -3.79,8.527 -3.448,8.515 v 0 0 c 0.002,0 0.003,0 0.005,0 10e-4,0 0.002,0 0.003,0 0.039,-0.002 0.079,-0.002 0.12,-0.003 L -2.963,7.535 -2.62,6.595 C -3.656,6.163 -4.763,5.638 -5.639,5.18 -5.702,5.147 -5.763,5.115 -5.823,5.083 -5.883,5.051 -5.942,5.019 -5.999,4.988 l 0.113,0.067 0.113,0.068 -1.597,1.186 -0.858,-0.498 1.104,-1.492 0.099,0.059 C -7.092,4.331 -7.147,4.288 -7.189,4.251 -7.231,4.215 -7.261,4.183 -7.275,4.158 -7.285,4.141 -7.289,4.127 -7.285,4.115 -7.283,4.109 -7.278,4.103 -7.271,4.097 -7.23,4.064 -7.109,4.046 -6.923,4.04 L -6.954,4.039 -7.038,4.035 -7.134,2.181 -6.145,2.24 -5.468,4.111 -5.584,4.105 -5.731,4.098 c 0.846,0.075 1.931,0.216 2.984,0.396 0.243,0.042 0.485,0.085 0.721,0.131 L -1.622,2.934 C -1.66,2.909 -1.697,2.883 -1.732,2.858 c 0,0 -0.001,0 -0.001,0 C -1.734,2.857 -1.735,2.856 -1.736,2.856 v 0 C -1.877,2.755 -1.992,2.659 -2.068,2.573 -2.143,2.487 -2.179,2.411 -2.16,2.35 -2.15,2.316 -2.111,2.29 -2.049,2.271 -1.946,2.24 -1.779,2.229 -1.576,2.231 v 0 0 c 0.001,0 0.002,0 0.003,0 h 0.002 c 0.021,0.001 0.043,0.001 0.064,0.002 0.018,0 0.035,0 0.053,10e-4 l 0.596,-2.492 z" />
              </g>
              <g
                 transform="translate(157.2096,244.933)"
                 id="g206"
                 style="stroke-width:2.7127769">
                <path
                   inkscape:connector-curvature="0"
                   id="path208"
                   style="fill:#f58d3e;fill-opacity:1;fill-rule:nonzero;stroke:none;stroke-width:2.7127769"
                   d="M 0,0 -3.497,10.952 -2.268,11.345 1.229,0.392 Z" />
              </g>
              <g
                 transform="translate(182.1434,259.7357)"
                 id="g214"
                 style="stroke-width:2.7127769">
                <path
                   inkscape:connector-curvature="0"
                   id="path216"
                   style="fill:#e6e7e8;fill-opacity:1;fill-rule:nonzero;stroke:none;stroke-width:2.7127769"
                   d="m 0,0 6.527,-61.114 18.919,6.853 -6.581,61.618 z" />
              </g>
              <g
                 transform="translate(221.0014,263.8857)"
                 id="g218"
                 style="stroke-width:2.7127769">
                <path
                   inkscape:connector-curvature="0"
                   id="path220"
                   style="fill:#e6e7e8;fill-opacity:1;fill-rule:nonzero;stroke:none;stroke-width:2.7127769"
                   d="m 0,0 6.527,-61.114 -19.939,2.703 -6.581,61.617 z" />
              </g>
              <g
                 transform="translate(221.0014,263.8857)"
                 id="g222"
                 style="stroke-width:2.7127769">
                <path
                   inkscape:connector-curvature="0"
                   id="path224"
                   style="fill:#e6e7e8;fill-opacity:1;fill-rule:nonzero;stroke:none;stroke-width:2.7127769"
                   d="m 0,0 6.527,-61.114 18.919,6.853 -6.581,61.617 z" />
              </g>
              <g
                 transform="translate(259.8593,268.0358)"
                 id="g226"
                 style="stroke-width:2.7127769">
                <path
                   inkscape:connector-curvature="0"
                   id="path228"
                   style="fill:#e6e7e8;fill-opacity:1;fill-rule:nonzero;stroke:none;stroke-width:2.7127769"
                   d="m 0,0 6.527,-61.115 -19.939,2.704 -6.581,61.617 z" />
              </g>
              <g
                 transform="translate(207.4244,207.0168)"
                 id="g230"
                 style="stroke-width:2.7127769">
                <path
                   inkscape:connector-curvature="0"
                   id="path232"
                   style="fill:#52caf5;fill-opacity:1;fill-rule:nonzero;stroke:none;stroke-width:2.7127769"
                   d="M 0,0 -17.657,-6.396 -23.858,51.66 -6.251,58.526 13.742,55.32 32.607,62.676 51.268,59.683 57.468,1.627 38.858,4.15 19.939,-2.703 Z" />
              </g>
              <g
                 transform="translate(259.6749,257.4959)"
                 id="g234"
                 style="stroke-width:2.7127769">
                <path
                   inkscape:connector-curvature="0"
                   id="path236"
                   style="fill:#ffffff;fill-opacity:1;fill-rule:nonzero;stroke:none;stroke-width:2.7127769"
                   d="m 0,0 -0.124,1.158 -18.513,2.59 -0.104,0.014 -18.912,-6.851 -17.021,2.984 -0.106,0.019 -20.458,-6.879 0.123,-1.152 20.431,6.87 17.138,-3.004 18.926,6.856 z" />
              </g>
              <g
                 transform="translate(210.6705,264.0197)"
                 id="g238"
                 style="stroke-width:2.7127769">
                <path
                   inkscape:connector-curvature="0"
                   id="path240"
                   style="fill:#ffffff;fill-opacity:1;fill-rule:nonzero;stroke:none;stroke-width:2.7127769"
                   d="m 0,0 3.434,-32.158 c 0.005,-0.039 10e-4,-0.054 10e-4,-0.054 -0.291,-0.53 -3.373,0.179 -4.534,0.445 -1.006,0.23 -1.875,0.43 -2.428,0.451 -1.779,0.069 -7.681,-1.27 -9.804,-2.86 -1.895,-1.419 -1.39,-5.224 -0.854,-9.254 0.116,-0.877 0.237,-1.785 0.33,-2.657 l 1.517,-14.209 0.947,0.342 -1.493,13.971 c -0.095,0.889 -0.216,1.805 -0.334,2.691 -0.465,3.5 -0.946,7.12 0.436,8.156 1.923,1.439 7.557,2.75 9.255,2.684 0.473,-0.018 1.345,-0.218 2.269,-0.43 2.757,-0.632 4.619,-0.987 5.365,-0.183 0.239,0.257 0.342,0.606 0.299,1.011 L 1,-0.16 Z" />
              </g>
              <g
                 transform="translate(261.0477,244.6418)"
                 id="g242"
                 style="stroke-width:2.7127769">
                <path
                   inkscape:connector-curvature="0"
                   id="path244"
                   style="fill:#ffffff;fill-opacity:1;fill-rule:nonzero;stroke:none;stroke-width:2.7127769"
                   d="M 0,0 -0.122,1.147 C -6.909,1.715 -17.819,2.604 -18.61,2.519 -19.277,2.448 -20.334,2.012 -21.452,1.55 -22.262,1.215 -23.1,0.869 -23.724,0.696 L -23.819,0.67 c -1.476,-0.41 -3.708,-1.029 -3.314,-4.721 l 1.477,-13.832 c 0.032,-0.297 0.07,-0.624 0.11,-0.973 0.188,-1.618 0.687,-5.918 -0.06,-6.225 -1.171,-0.481 -8.352,-2.528 -11.367,-2.85 -1.632,-0.174 -6.338,0.341 -10.49,0.795 -3.453,0.378 -6.435,0.704 -7.345,0.607 -1.988,-0.213 -8.464,-3.121 -8.739,-3.244 l 0.38,-1.062 c 0.066,0.03 6.625,2.976 8.48,3.174 0.819,0.087 3.901,-0.25 7.163,-0.607 4.195,-0.459 8.949,-0.979 10.672,-0.795 3.147,0.336 10.368,2.404 11.599,2.909 1.36,0.559 1.125,3.555 0.678,7.414 -0.04,0.344 -0.078,0.668 -0.109,0.961 l -1.477,13.832 c -0.29,2.71 1.113,3.099 2.599,3.511 l 0.095,0.026 c 0.674,0.187 1.536,0.543 2.369,0.887 1.014,0.419 2.063,0.852 2.609,0.91 C -17.853,1.454 -8.364,0.7 0,0" />
              </g>
              <g
                 transform="translate(255.7535,209.8829)"
                 id="g246"
                 style="stroke-width:2.7127769">
                <path
                   inkscape:connector-curvature="0"
                   id="path248"
                   style="fill:#ffffff;fill-opacity:1;fill-rule:nonzero;stroke:none;stroke-width:2.7127769"
                   d="M 0,0 0.997,-0.135 -2.872,36.087 -3.843,35.983 Z" />
              </g>
              <g
                 transform="translate(247.8467,246.3596)"
                 id="g250"
                 style="stroke-width:2.7127769">
                <path
                   inkscape:connector-curvature="0"
                   id="path252"
                   style="fill:#ffffff;fill-opacity:1;fill-rule:nonzero;stroke:none;stroke-width:2.7127769"
                   d="m 0,0 -0.971,-0.104 -1.462,13.685 0.971,0.104 z" />
              </g>
              <g
                 transform="translate(185.617,239.4776)"
                 id="g254"
                 style="stroke-width:2.7127769">
                <path
                   inkscape:connector-curvature="0"
                   id="path256"
                   style="fill:#ffffff;fill-opacity:1;fill-rule:nonzero;stroke:none;stroke-width:2.7127769"
                   d="M 0,0 0.122,-1.145 C 6.4,0.652 16.511,3.506 17.95,3.659 20.028,3.881 27.695,2.657 27.772,2.645 L 27.875,3.77 C 27.555,3.822 20.018,5.025 17.829,4.791 16.327,4.631 6.313,1.807 0,0" />
              </g>
              <g
                 transform="translate(224.0171,250.9815)"
                 id="g258"
                 style="stroke-width:2.7127769">
                <path
                   inkscape:connector-curvature="0"
                   id="path260"
                   style="fill:#ffffff;fill-opacity:1;fill-rule:nonzero;stroke:none;stroke-width:2.7127769"
                   d="m 0,0 0.681,-6.379 c 0.092,-0.861 0.813,-1.458 1.535,-1.27 l 3.639,0.946 c 0.603,0.157 0.997,0.813 0.92,1.533 L 6.044,1.677 C 5.945,2.6 5.133,3.203 4.385,2.908 L 0.796,1.492 C 0.259,1.28 -0.071,0.663 0,0" />
              </g>
              <g
                 transform="translate(231.9515,253.3532)"
                 id="g262"
                 style="stroke-width:2.7127769">
                <path
                   inkscape:connector-curvature="0"
                   id="path264"
                   style="fill:#ffffff;fill-opacity:1;fill-rule:nonzero;stroke:none;stroke-width:2.7127769"
                   d="M 0,0 0.629,-5.891 C 0.737,-6.897 1.583,-7.59 2.424,-7.36 l 4.839,1.322 c 0.692,0.189 1.141,0.946 1.053,1.774 L 7.631,2.145 C 7.517,3.21 6.583,3.909 5.717,3.575 L 0.933,1.735 C 0.305,1.493 -0.083,0.773 0,0" />
              </g>
              <g
                 transform="translate(263.796,218.9088)"
                 id="g266"
                 style="stroke-width:2.7127769">
                <path
                   inkscape:connector-curvature="0"
                   id="path268"
                   style="fill:#ffffff;fill-opacity:1;fill-rule:nonzero;stroke:none;stroke-width:2.7127769"
                   d="m 0,0 c -1.435,0.056 -3.129,0.146 -4.822,0.289 -8.207,0.695 -8.438,1.979 -8.439,1.992 -0.091,0.85 -0.166,2.208 -0.247,3.646 -0.359,6.449 -0.575,7.69 -1.361,7.806 -0.778,0.116 -4.765,0.459 -6.928,0.228 -1.041,-0.111 -4.497,-1.522 -8.499,-3.156 -4.217,-1.722 -8.997,-3.673 -10.406,-3.823 -1.449,-0.155 -6.066,0.377 -10.14,0.846 -3.635,0.419 -6.775,0.781 -7.708,0.681 C -60.096,8.344 -71.242,4.66 -76.299,2.97 l 0.123,-1.152 c 6.573,2.201 16.412,5.417 17.746,5.56 0.841,0.089 4.238,-0.302 7.522,-0.681 4.319,-0.497 8.785,-1.012 10.327,-0.847 1.528,0.163 6.158,2.053 10.636,3.882 3.612,1.474 7.347,2.999 8.269,3.097 1.933,0.207 5.526,-0.077 6.552,-0.201 0.31,-0.827 0.515,-4.5 0.64,-6.738 0.08,-1.455 0.157,-2.829 0.251,-3.712 0.119,-1.112 1.325,-2.341 9.371,-3.022 1.755,-0.149 3.512,-0.24 4.984,-0.297 z" />
              </g>
              <g
                 transform="translate(261.8966,236.6934)"
                 id="g270"
                 style="stroke-width:2.7127769">
                <path
                   inkscape:connector-curvature="0"
                   id="path272"
                   style="fill:#ffffff;fill-opacity:1;fill-rule:nonzero;stroke:none;stroke-width:2.7127769"
                   d="m 0,0 c -6.678,0.884 -19.225,2.466 -20.601,2.073 l -0.795,-0.23 c -2.684,-0.771 -8.269,-2.376 -9.403,-2.842 -1.207,-0.496 -2.709,-1.113 -2.435,-3.677 l 2.8,-26.219 0.946,0.343 -2.775,25.98 c -0.171,1.602 0.542,1.976 1.818,2.5 1.089,0.448 6.852,2.105 9.313,2.812 l 0.796,0.229 c 1.064,0.305 11.741,-0.965 20.459,-2.123 z" />
              </g>
              <g
                 transform="translate(216.8956,205.7328)"
                 id="g274"
                 style="stroke-width:2.7127769">
                <path
                   inkscape:connector-curvature="0"
                   id="path276"
                   style="fill:#ffffff;fill-opacity:1;fill-rule:nonzero;stroke:none;stroke-width:2.7127769"
                   d="M 0,0 0.997,-0.135 -1.178,20.226 -2.149,20.123 Z" />
              </g>
              <g
                 transform="translate(262.8526,227.7421)"
                 id="g278"
                 style="stroke-width:2.7127769">
                <path
                   inkscape:connector-curvature="0"
                   id="path280"
                   style="fill:#fff100;fill-opacity:1;fill-rule:nonzero;stroke:none;stroke-width:2.7127769"
                   d="m 0,0 c -6.139,0.688 -17.359,1.941 -18.451,2.033 -1.007,0.086 -1.92,-0.277 -2.507,-0.995 -0.438,-0.536 -0.639,-1.21 -0.566,-1.896 l 0.564,-5.282 c 0.366,-3.426 -0.068,-4.138 -0.359,-4.258 -1.311,-0.539 -13.038,-4.804 -14.378,-4.947 -1.12,-0.119 -3.74,-0.25 -3.885,1.112 l -3.192,29.885 c -0.326,3.05 -0.9,6.193 -2.691,6.389 -1.32,0.144 -11.937,0.932 -14.6,0.647 -1.799,-0.192 -11.574,-3.228 -17.785,-5.196 l 0.163,-1.531 c 7.147,2.267 16.188,5.048 17.783,5.218 2.534,0.271 13.101,-0.51 14.359,-0.647 0.286,-0.031 1.002,-0.583 1.476,-5.018 l 3.191,-29.886 c 0.148,-1.376 1.194,-2.925 5.342,-2.482 1.581,0.169 13.441,4.514 14.688,5.026 1.73,0.711 1.361,4.166 1.183,5.827 l -0.564,5.281 c -0.025,0.236 0.057,0.483 0.231,0.696 0.322,0.394 0.881,0.598 1.495,0.546 1.078,-0.091 12.601,-1.378 18.667,-2.058 z" />
              </g>
              <g
                 transform="translate(189.2225,217.9851)"
                 id="g282"
                 style="stroke-width:2.7127769">
                <path
                   inkscape:connector-curvature="0"
                   id="path284"
                   style="fill:#ffffff;fill-opacity:1;fill-rule:nonzero;stroke:none;stroke-width:2.7127769"
                   d="m 0,0 1.37,-12.827 c 0.119,-1.112 1.094,-1.84 1.997,-1.491 l 3.251,1.258 c 0.654,0.252 1.056,1.002 0.97,1.807 L 6.229,1.474 C 6.112,2.569 5.163,3.295 4.266,2.977 L 1.005,1.82 C 0.332,1.581 -0.088,0.821 0,0" />
              </g>
              <g
                 transform="translate(197.2278,238.0928)"
                 id="g286"
                 style="stroke-width:2.7127769">
                <path
                   inkscape:connector-curvature="0"
                   id="path288"
                   style="fill:#ffffff;fill-opacity:1;fill-rule:nonzero;stroke:none;stroke-width:2.7127769"
                   d="m 0,0 0.431,-4.039 c 0.095,-0.888 0.856,-1.487 1.59,-1.251 l 3.304,1.061 c 0.571,0.183 0.934,0.821 0.86,1.513 L 5.722,1.618 C 5.623,2.548 4.799,3.149 4.049,2.839 L 0.777,1.482 C 0.25,1.264 -0.07,0.653 0,0" />
              </g>
              <g
                 transform="translate(210.1411,208.6535)"
                 id="g290"
                 style="stroke-width:2.7127769">
                <path
                   inkscape:connector-curvature="0"
                   id="path292"
                   style="fill:#ffffff;fill-opacity:1;fill-rule:nonzero;stroke:none;stroke-width:2.7127769"
                   d="M 0,0 3.651,-0.427 C 4.367,-0.51 4.949,0.182 4.861,1.012 L 4.446,4.898 C 4.38,5.512 3.96,6.006 3.432,6.089 L -0.235,6.673 C -0.965,6.789 -1.577,6.089 -1.486,5.24 L -1.054,1.197 C -0.987,0.565 -0.545,0.064 0,0" />
              </g>
              <g
                 transform="translate(233.4218,210.9656)"
                 id="g302"
                 style="stroke-width:2.7127769">
                <path
                   inkscape:connector-curvature="0"
                   id="path304"
                   style="fill:#ffffff;fill-opacity:1;fill-rule:nonzero;stroke:none;stroke-width:2.7127769"
                   d="m 0,0 0.187,-1.755 c 0.059,-0.551 0.54,-0.914 0.989,-0.747 L 8.03,0.04 c 0.331,0.123 0.537,0.5 0.493,0.906 L 8.334,2.715 C 8.275,3.267 7.794,3.63 7.344,3.462 L 0.492,0.905 C 0.161,0.782 -0.043,0.405 0,0" />
              </g>
              <g
                 id="g306"
                 style="stroke-width:2.7127769">
                <g
                   id="g308"
                   style="stroke-width:2.7127769" />
                <g
                   id="g320"
                   style="stroke-width:2.7127769">
                  <g
                     style="opacity:0.30999804;stroke-width:2.7127769"
                     id="g318"
                     clip-path="url(#clipPath312)">
                    <g
                       id="g316"
                       transform="translate(240.0317,269.6928)"
                       style="stroke-width:2.7127769">
                      <path
                         inkscape:connector-curvature="0"
                         id="path314"
                         style="fill:#231f20;fill-opacity:1;fill-rule:nonzero;stroke:none;stroke-width:2.7127769"
                         d="m 0,0 6.251,-58.526 18.61,-2.523 -6.201,58.056 z" />
                    </g>
                  </g>
                </g>
              </g>
              <g
                 id="g322"
                 style="stroke-width:2.7127769">
                <g
                   id="g324"
                   style="stroke-width:2.7127769" />
                <g
                   id="g336"
                   style="stroke-width:2.7127769">
                  <g
                     style="opacity:0.30999804;stroke-width:2.7127769"
                     id="g334"
                     clip-path="url(#clipPath328)">
                    <g
                       id="g332"
                       transform="translate(201.3541,265.3874)"
                       style="stroke-width:2.7127769">
                      <path
                         inkscape:connector-curvature="0"
                         id="path330"
                         style="fill:#231f20;fill-opacity:1;fill-rule:nonzero;stroke:none;stroke-width:2.7127769"
                         d="m 0,0 6.251,-58.526 18.61,-2.523 -6.201,58.056 z" />
                    </g>
                  </g>
                </g>
              </g>
              <g
                 transform="translate(298.735,123.6024)"
                 id="g338"
                 style="stroke-width:2.7127769">
                <path
                   inkscape:connector-curvature="0"
                   id="path340"
                   style="fill:#414042;fill-opacity:1;fill-rule:nonzero;stroke:none;stroke-width:2.7127769"
                   d="m 0,0 h -0.596 c -2.607,0 -4.74,2.133 -4.74,4.741 v 1.891 c 0,2.608 2.133,4.741 4.74,4.741 H 0 c 2.607,0 4.741,-2.133 4.741,-4.741 V 4.741 C 4.741,2.133 2.607,0 0,0" />
              </g>
              <g
                 transform="translate(347.4016,129.2888)"
                 id="g342"
                 style="stroke-width:2.7127769">
                <path
                   inkscape:connector-curvature="0"
                   id="path344"
                   style="fill:#414042;fill-opacity:1;fill-rule:nonzero;stroke:none;stroke-width:2.7127769"
                   d="m 0,0 h -0.596 c -2.607,0 -4.74,2.133 -4.74,4.741 v 1.891 c 0,2.608 2.133,4.741 4.74,4.741 H 0 c 2.607,0 4.741,-2.133 4.741,-4.741 V 4.741 C 4.741,2.133 2.607,0 0,0" />
              </g>
              <g
                 transform="translate(365.8824,287.6166)"
                 id="g346"
                 style="stroke-width:2.7127769">
                <path
                   inkscape:connector-curvature="0"
                   id="path348"
                   style="fill:#837167;fill-opacity:1;fill-rule:nonzero;stroke:none;stroke-width:2.7127769"
                   d="m 0,0 -26.201,1.847 c -7.252,1.727 -65.214,0.432 -73.851,-4.106 -5.313,-2.792 -6.478,-12.737 -6.478,-23.966 v -114.164 c 0,-5.833 6.317,-13.301 13.539,-14.512 v 0 c 1.281,-0.215 2.59,-0.747 3.897,-0.716 l 25.464,-4.447 c 0,0 3.525,2.39 8.286,5.597 10.608,1.092 20.261,2.169 22.665,2.979 5.183,1.745 17.707,6.927 17.707,20.316 v 60.754 C -7.484,-35.468 0,0 0,0" />
              </g>
              <g
                 id="g350"
                 style="stroke-width:2.7127769">
                <g
                   id="g352"
                   style="stroke-width:2.7127769" />
                <g
                   id="g364"
                   style="stroke-width:2.7127769">
                  <g
                     style="opacity:0.08999628;stroke-width:2.7127769"
                     id="g362"
                     clip-path="url(#clipPath356)">
                    <g
                       id="g360"
                       transform="translate(260.0293,273.3552)"
                       style="stroke-width:2.7127769">
                      <path
                         inkscape:connector-curvature="0"
                         id="path358"
                         style="fill:#ffffff;fill-opacity:1;fill-rule:nonzero;stroke:none;stroke-width:2.7127769"
                         d="M 0,0 34.737,-3.344 37.76,7.021 3.247,9.736 C 1.573,7.466 0.572,4.061 0,0" />
                    </g>
                  </g>
                </g>
              </g>
              <g
                 transform="translate(365.8824,287.6166)"
                 id="g366"
                 style="stroke-width:2.7127769">
                <path
                   inkscape:connector-curvature="0"
                   id="path368"
                   style="fill:#9a8479;fill-opacity:1;fill-rule:nonzero;stroke:none;stroke-width:2.7127769"
                   d="m 0,0 c -7.253,1.727 -65.214,0.432 -73.852,-4.106 -5.312,-2.792 -6.478,-12.737 -6.478,-23.966 v -119.779 c 0,-7.626 10.797,-13.625 20.299,-11.921 9.501,1.704 48.37,4.692 53.553,6.437 5.182,1.745 17.707,6.928 17.707,20.316 V -30.232 C 11.229,-15.116 9.07,-2.159 0,0" />
              </g>
              <g
                 id="g370"
                 style="stroke-width:2.7127769">
                <g
                   id="g372"
                   style="stroke-width:2.7127769" />
                <g
                   id="g384"
                   style="stroke-width:2.7127769">
                  <g
                     style="opacity:0.10000598;stroke-width:2.7127769"
                     id="g382"
                     clip-path="url(#clipPath376)">
                    <g
                       id="g380"
                       transform="translate(377.1112,154.5976)"
                       style="stroke-width:2.7127769">
                      <path
                         inkscape:connector-curvature="0"
                         id="path378"
                         style="fill:#231f20;fill-opacity:1;fill-rule:nonzero;stroke:none;stroke-width:2.7127769"
                         d="M 0,0 V 51.084 C 0,50.745 -0.056,29 -7.198,5.86 c -7.198,-23.321 -41.748,-21.594 -61.615,-20.231 -19.866,1.362 -22.746,26.853 -22.746,26.853 0,0 -2.879,-26.2 -14.683,-25.256 -11.022,0.882 -11.502,18.865 -11.517,21.248 V -7.37 c 0,-5.833 6.317,-13.301 13.539,-14.512 v 0 c 1.281,-0.215 2.59,-0.747 3.898,-0.716 l 18.947,-3.308 c 2.057,-0.7 4.274,-1.106 6.505,-1.136 l 0.011,-0.003 c 0,0 0.002,0.002 0.003,0.002 1.203,-0.015 2.409,0.077 3.596,0.29 9.501,1.704 48.37,4.692 53.553,6.437 C -12.524,-18.571 0,-13.388 0,0" />
                    </g>
                  </g>
                </g>
              </g>
              <g
                 transform="translate(290.0874,239.4902)"
                 id="g386"
                 style="stroke-width:2.7127769">
                <path
                   inkscape:connector-curvature="0"
                   id="path388"
                   style="fill:#837167;fill-opacity:1;fill-rule:nonzero;stroke:none;stroke-width:2.7127769"
                   d="m 0,0 c 0,-6.91 1.512,-13.091 5.183,-13.348 3.671,-0.256 63.126,4.063 67.301,5.142 4.175,1.08 5.038,9.934 5.038,15.98 0,6.046 -1.943,13.172 -10.581,13.82 C 58.304,22.242 13.388,18.139 7.558,17.923 1.728,17.707 0,11.229 0,0" />
              </g>
              <g
                 id="g390"
                 style="stroke-width:2.7127769">
                <g
                   id="g392"
                   style="stroke-width:2.7127769" />
                <g
                   id="g404"
                   style="stroke-width:2.7127769">
                  <g
                     style="opacity:0.08999628;stroke-width:2.7127769"
                     id="g402"
                     clip-path="url(#clipPath396)">
                    <g
                       id="g400"
                       transform="translate(288.5039,267.4202)"
                       style="stroke-width:2.7127769">
                      <path
                         inkscape:connector-curvature="0"
                         id="path398"
                         style="fill:#ffffff;fill-opacity:1;fill-rule:nonzero;stroke:none;stroke-width:2.7127769"
                         d="m 0,0 c 0,0 -1.08,13.635 10.581,15.671 11.661,2.036 51.61,3.98 60.679,2.9 9.07,-1.08 11.661,-3.455 13.604,-12.525 0,0 -2.591,11.013 -14.899,10.797 C 57.656,16.627 19.435,14.9 12.956,14.036 6.478,13.172 1.296,8.638 0,0" />
                    </g>
                  </g>
                </g>
              </g>
              <g
                 transform="translate(293.3985,238.9144)"
                 id="g406"
                 style="stroke-width:2.7127769">
                <path
                   inkscape:connector-curvature="0"
                   id="path408"
                   style="fill:#b39d94;fill-opacity:1;fill-rule:nonzero;stroke:none;stroke-width:2.7127769"
                   d="m 0,0 c 0,-6.91 1.512,-13.091 5.183,-13.348 3.671,-0.256 63.126,4.063 67.301,5.142 4.175,1.08 5.038,9.934 5.038,15.98 0,6.046 -1.943,13.172 -10.581,13.82 C 58.304,22.242 13.388,18.139 7.558,17.923 1.728,17.707 0,11.229 0,0" />
              </g>
              <g
                 transform="translate(290.1435,201.3992)"
                 id="g410"
                 style="stroke-width:2.7127769">
                <path
                   inkscape:connector-curvature="0"
                   id="path412"
                   style="fill:#837167;fill-opacity:1;fill-rule:nonzero;stroke:none;stroke-width:2.7127769"
                   d="m 0,0 c 0,-6.91 -3.671,-44.435 11.445,-43.579 3.674,0.207 51.018,3.834 55.286,4.452 13.815,1.999 10.791,40.854 10.791,46.901 0,6.046 -1.943,13.172 -10.581,13.82 C 58.304,22.242 13.388,18.139 7.558,17.923 1.728,17.707 0,11.229 0,0" />
              </g>
              <g
                 transform="translate(293.7909,200.2475)"
                 id="g414"
                 style="stroke-width:2.7127769">
                <path
                   inkscape:connector-curvature="0"
                   id="path416"
                   style="fill:#b39d94;fill-opacity:1;fill-rule:nonzero;stroke:none;stroke-width:2.7127769"
                   d="m 0,0 c 0,-6.91 -3.671,-44.435 11.445,-43.579 3.674,0.208 51.018,3.834 55.286,4.452 13.815,1.999 10.791,40.855 10.791,46.901 0,6.046 -1.943,13.172 -10.581,13.82 C 58.304,22.242 13.388,18.139 7.558,17.923 1.728,17.707 0,11.229 0,0" />
              </g>
              <g
                 id="g418"
                 style="stroke-width:2.7127769">
                <g
                   id="g420"
                   style="stroke-width:2.7127769" />
                <g
                   id="g432"
                   style="stroke-width:2.7127769">
                  <g
                     style="opacity:0.16999799;stroke-width:2.7127769"
                     id="g430"
                     clip-path="url(#clipPath424)">
                    <g
                       id="g428"
                       transform="translate(295.342,243.0667)"
                       style="stroke-width:2.7127769">
                      <path
                         inkscape:connector-curvature="0"
                         id="path426"
                         style="fill:#ffffff;fill-opacity:1;fill-rule:nonzero;stroke:none;stroke-width:2.7127769"
                         d="m 0,0 c 0,0 0.144,10.676 5.039,11.251 4.894,0.576 53.697,4.175 59.167,3.743 5.471,-0.431 9.214,-4.174 8.782,-10.077 0,0 -1.008,8.062 -9.502,8.494 C 54.993,13.843 10.798,10.129 6.478,9.668 2.158,9.207 -0.144,2.425 0,0" />
                    </g>
                  </g>
                </g>
              </g>
              <g
                 id="g434"
                 style="stroke-width:2.7127769">
                <g
                   id="g436"
                   style="stroke-width:2.7127769" />
                <g
                   id="g448"
                   style="stroke-width:2.7127769">
                  <g
                     style="opacity:0.16999799;stroke-width:2.7127769"
                     id="g446"
                     clip-path="url(#clipPath440)">
                    <g
                       id="g444"
                       transform="translate(295.9884,204.1107)"
                       style="stroke-width:2.7127769">
                      <path
                         inkscape:connector-curvature="0"
                         id="path442"
                         style="fill:#ffffff;fill-opacity:1;fill-rule:nonzero;stroke:none;stroke-width:2.7127769"
                         d="m 0,0 c 0,0 0.144,10.676 5.039,11.251 4.894,0.576 53.697,4.175 59.167,3.743 5.471,-0.431 9.214,-4.174 8.782,-10.077 0,0 -1.008,8.062 -9.502,8.494 C 54.993,13.843 10.798,10.129 6.478,9.668 2.158,9.207 -0.144,2.425 0,0" />
                    </g>
                  </g>
                </g>
              </g>
              <g
                 transform="translate(300.6325,250.258)"
                 id="g450"
                 style="stroke-width:2.7127769">
                <path
                   inkscape:connector-curvature="0"
                   id="path452"
                   style="fill:#ffffff;fill-opacity:1;fill-rule:nonzero;stroke:none;stroke-width:2.7127769"
                   d="m 0,0 c -0.167,0 -0.309,0.127 -0.323,0.297 -0.014,0.178 0.118,0.335 0.296,0.35 0.47,0.039 47.11,3.945 59.955,3.773 C 60.106,4.418 60.25,4.271 60.247,4.092 60.245,3.912 60.1,3.758 59.919,3.772 47.131,3.954 0.497,0.04 0.027,0.001 0.018,0 0.008,0 0,0" />
              </g>
              <g
                 transform="translate(302.414,244.09)"
                 id="g454"
                 style="stroke-width:2.7127769">
                <path
                   inkscape:connector-curvature="0"
                   id="path456"
                   style="fill:#ffffff;fill-opacity:1;fill-rule:nonzero;stroke:none;stroke-width:2.7127769"
                   d="M 0,0 C -1.625,0 -1.485,2.254 -1.485,2.254 H 1.432 C 1.432,2.254 1.625,0 0,0 M 0,6.787 C 0.338,6.787 0.611,6.421 0.611,5.97 0.611,5.519 0.338,5.153 0,5.153 c -0.338,0 -0.611,0.366 -0.611,0.817 0,0.451 0.273,0.817 0.611,0.817 M 1.397,4.856 C 1.223,6.079 0.769,6.988 0,6.988 -0.769,6.988 -1.223,6.079 -1.398,4.856 -1.572,3.634 -2.411,-0.23 0,-0.23 c 2.411,0 1.572,3.864 1.397,5.086" />
              </g>
              <g
                 transform="translate(302.1982,209.8621)"
                 id="g458"
                 style="stroke-width:2.7127769">
                <path
                   inkscape:connector-curvature="0"
                   id="path460"
                   style="fill:#ffffff;fill-opacity:1;fill-rule:nonzero;stroke:none;stroke-width:2.7127769"
                   d="m 0,0 c -0.167,0 -0.309,0.127 -0.323,0.297 -0.014,0.178 0.118,0.335 0.296,0.35 0.47,0.039 47.11,3.945 59.955,3.773 C 60.106,4.417 60.25,4.271 60.247,4.092 60.245,3.912 60.1,3.758 59.919,3.772 47.131,3.954 0.497,0.04 0.027,0.001 0.018,0 0.008,0 0,0" />
              </g>
              <g
                 transform="translate(303.9797,203.6941)"
                 id="g462"
                 style="stroke-width:2.7127769">
                <path
                   inkscape:connector-curvature="0"
                   id="path464"
                   style="fill:#ffffff;fill-opacity:1;fill-rule:nonzero;stroke:none;stroke-width:2.7127769"
                   d="M 0,0 C -1.625,0 -1.485,2.253 -1.485,2.253 H 1.432 C 1.432,2.253 1.625,0 0,0 M 0,6.787 C 0.338,6.787 0.611,6.421 0.611,5.97 0.611,5.519 0.338,5.153 0,5.153 c -0.338,0 -0.611,0.366 -0.611,0.817 0,0.451 0.273,0.817 0.611,0.817 M 1.397,4.856 C 1.223,6.079 0.769,6.988 0,6.988 -0.769,6.988 -1.223,6.079 -1.398,4.856 -1.572,3.634 -2.411,-0.23 0,-0.23 c 2.411,0 1.572,3.864 1.397,5.086" />
              </g>
              <g
                 transform="translate(290.3559,292.219)"
                 id="g466"
                 style="stroke-width:2.7127769">
                <path
                   inkscape:connector-curvature="0"
                   id="path468"
                   style="fill:#c1c3c5;fill-opacity:1;fill-rule:nonzero;stroke:none;stroke-width:2.7127769"
                   d="M 0,0 C 0.558,0.258 5.538,0.429 6.268,0.515 6.998,0.601 12.44,0.018 12.759,-0.453 13.078,-0.924 6.783,-1.975 6.783,-1.975 Z" />
              </g>
              <g
                 transform="translate(288.4669,287.486)"
                 id="g470"
                 style="stroke-width:2.7127769">
                <path
                   inkscape:connector-curvature="0"
                   id="path472"
                   style="fill:#e5e6e7;fill-opacity:1;fill-rule:nonzero;stroke:none;stroke-width:2.7127769"
                   d="m 0,0 c 0,0 1.116,4.733 1.889,4.733 0.773,0 6.526,-0.429 6.783,-0.601 0.258,-0.172 0,-5.324 0,-5.324 z" />
              </g>
              <g
                 transform="translate(297.1393,291.6179)"
                 id="g474"
                 style="stroke-width:2.7127769">
                <path
                   inkscape:connector-curvature="0"
                   id="path476"
                   style="fill:#ced0d1;fill-opacity:1;fill-rule:nonzero;stroke:none;stroke-width:2.7127769"
                   d="M 0,0 C 0,0 5.839,0.687 6.182,0 6.526,-0.687 6.955,-4.508 6.955,-4.508 L 0,-5.324 Z" />
              </g>
              <g
                 transform="translate(328.5342,293.0498)"
                 id="g478"
                 style="stroke-width:2.7127769">
                <path
                   inkscape:connector-curvature="0"
                   id="path480"
                   style="fill:#c1c3c5;fill-opacity:1;fill-rule:nonzero;stroke:none;stroke-width:2.7127769"
                   d="M 0,0 C 0.444,0.203 4.395,0.323 4.974,0.388 5.553,0.454 9.869,-0.026 10.12,-0.401 10.371,-0.776 5.375,-1.589 5.375,-1.589 Z" />
              </g>
              <g
                 transform="translate(327.0204,289.3014)"
                 id="g482"
                 style="stroke-width:2.7127769">
                <path
                   inkscape:connector-curvature="0"
                   id="path484"
                   style="fill:#e5e6e7;fill-opacity:1;fill-rule:nonzero;stroke:none;stroke-width:2.7127769"
                   d="M 0,0 C 0,0 0.901,3.751 1.514,3.748 2.127,3.746 6.689,3.387 6.893,3.25 7.097,3.113 6.876,-0.973 6.876,-0.973 Z" />
              </g>
              <g
                 transform="translate(333.9134,292.5511)"
                 id="g486"
                 style="stroke-width:2.7127769">
                <path
                   inkscape:connector-curvature="0"
                   id="path488"
                   style="fill:#ced0d1;fill-opacity:1;fill-rule:nonzero;stroke:none;stroke-width:2.7127769"
                   d="m 0,0 c 0,0 4.634,0.526 4.904,-0.02 0.27,-0.546 0.599,-3.578 0.599,-3.578 l -5.52,-0.625 z" />
              </g>
              <g
                 transform="translate(293.1825,292.4528)"
                 id="g490"
                 style="stroke-width:2.7127769">
                <path
                   inkscape:connector-curvature="0"
                   id="path492"
                   style="fill:#9b9d9f;fill-opacity:1;fill-rule:nonzero;stroke:none;stroke-width:2.7127769"
                   d="m 0,0 v 32.262 c 0,3.167 0.185,7.774 6.427,7.918 6.242,0.144 26.48,0.576 29.893,0.719 3.413,0.144 5.141,-3.167 5.141,-6.622 V 0.597 h -4.319 v 30.369 c 0,3.023 -1.281,4.175 -4.312,4.319 C 29.8,35.429 7.671,34.421 6.427,34.277 5.183,34.133 5.183,31.83 5.183,29.671 V 0 C 5.183,0 2.159,-1.166 0,0" />
              </g>
              <g
                 transform="translate(295.4859,292.0209)"
                 id="g494"
                 style="stroke-width:2.7127769">
                <path
                   inkscape:connector-curvature="0"
                   id="path496"
                   style="fill:#c1c3c5;fill-opacity:1;fill-rule:nonzero;stroke:none;stroke-width:2.7127769"
                   d="m 0,0 v 32.694 c 0,3.167 0.185,7.774 6.427,7.917 6.241,0.144 26.479,0.576 29.893,0.72 3.413,0.144 5.14,-3.167 5.14,-6.622 V 1.029 h -4.318 v 30.369 c 0,3.023 -1.281,4.175 -4.312,4.319 C 29.8,35.861 7.671,34.853 6.427,34.709 5.183,34.565 5.183,32.262 5.183,30.102 V 0.432 C 5.183,0.432 2.159,-1.166 0,0" />
              </g>
              <g
                 transform="translate(303.7636,332.7044)"
                 id="g498"
                 style="stroke-width:2.7127769">
                <path
                   inkscape:connector-curvature="0"
                   id="path500"
                   style="fill:#594a42;fill-opacity:1;fill-rule:nonzero;stroke:none;stroke-width:2.7127769"
                   d="m 0,0 v -5.889 l -1.275,-0.085 c 0,0 0.123,-1.44 1.995,-1.368 1.871,0.072 20.946,0.936 22.098,1.008 1.151,0.072 1.943,2.375 1.655,4.39 C 24.185,0.072 23.897,1.799 22.17,1.871 20.442,1.943 0.36,1.296 -0.576,1.296 c -0.935,0 -1.371,-1.404 -1.371,-1.404 z" />
              </g>
              <g
                 id="g502"
                 style="stroke-width:2.7127769">
                <g
                   id="g504"
                   style="stroke-width:2.7127769" />
                <g
                   id="g516"
                   style="stroke-width:2.7127769">
                  <g
                     style="opacity:0.10000598;stroke-width:2.7127769"
                     id="g514"
                     clip-path="url(#clipPath508)">
                    <g
                       id="g512"
                       transform="translate(324.4939,328.4576)"
                       style="stroke-width:2.7127769">
                      <path
                         inkscape:connector-curvature="0"
                         id="path510"
                         style="fill:#231f20;fill-opacity:1;fill-rule:nonzero;stroke:none;stroke-width:2.7127769"
                         d="m 0,0 c -3.239,-0.144 -15.044,-0.36 -17.635,-0.288 -2.592,0.072 -3.095,3.095 -3.095,3.095 v -4.449 l -1.276,-0.086 c 0,0 0.124,-1.439 1.996,-1.367 1.871,0.072 20.946,0.936 22.097,1.008 1.152,0.072 1.944,2.375 1.656,4.39 C 3.679,2.749 3.613,3.175 3.534,3.578 3.128,2.191 2.161,0.096 0,0" />
                    </g>
                  </g>
                </g>
              </g>
              <g
                 id="g518"
                 style="stroke-width:2.7127769">
                <g
                   id="g520"
                   style="stroke-width:2.7127769" />
                <g
                   id="g532"
                   style="stroke-width:2.7127769">
                  <g
                     style="opacity:0.08999628;stroke-width:2.7127769"
                     id="g530"
                     clip-path="url(#clipPath524)">
                    <g
                       id="g528"
                       transform="translate(327.5911,333.4546)"
                       style="stroke-width:2.7127769">
                      <path
                         inkscape:connector-curvature="0"
                         id="path526"
                         style="fill:#ffffff;fill-opacity:1;fill-rule:nonzero;stroke:none;stroke-width:2.7127769"
                         d="m 0,0 c -0.325,0.657 -0.82,1.086 -1.658,1.121 -1.727,0.072 -21.809,-0.575 -22.745,-0.575 -0.628,0 -1.026,-0.627 -1.223,-1.043 0.114,-0.109 0.236,-0.219 0.371,-0.332 l 1.427,0.079 v -1.034 c 1.343,-0.717 3.214,-1.267 5.759,-1.126 6.478,0.36 12.379,0.095 15.26,0.288 C -0.982,-2.499 0,-1.259 0,0" />
                    </g>
                  </g>
                </g>
              </g>
              <g
                 transform="translate(206.9254,229.1086)"
                 id="g678"
                 style="stroke-width:2.7127769">
                <path
                   inkscape:connector-curvature="0"
                   id="path680"
                   style="fill:#806f65;fill-opacity:1;fill-rule:nonzero;stroke:none;stroke-width:2.7127769"
                   d="m 0,0 -15.522,0.719 c -0.205,0.01 -0.397,-0.051 -0.565,-0.15 l 0.002,0.009 -1.542,-0.713 0.885,-0.465 -2.777,-8.805 c -0.149,-0.473 -0.615,-0.773 -1.108,-0.713 l -1.525,0.186 c -0.209,0.025 -0.403,-0.029 -0.579,-0.118 l -0.014,0.011 -1.545,-0.718 0.894,-0.694 c -0.047,-0.554 0.341,-1.057 0.906,-1.114 l 0.607,-0.062 1.046,-0.812 1.605,0.749 -0.002,0.002 c 0.205,0.121 0.37,0.309 0.452,0.547 l 3.614,10.525 c 0.149,0.433 0.566,0.716 1.024,0.695 L -0.783,-1.554 C -0.826,-0.77 -0.424,-0.286 0,0" />
              </g>
              <g
                 transform="translate(265.0168,213.9854)"
                 id="g682"
                 style="stroke-width:2.7127769">
                <path
                   inkscape:connector-curvature="0"
                   id="path684"
                   style="fill:#f58d3e;fill-opacity:1;fill-rule:nonzero;stroke:none;stroke-width:2.7127769"
                   d="m 0,0 c 0,0 -105.788,8.274 -108.743,8.569 -0.604,0.061 -1.207,-0.046 -1.786,-0.264 h -0.001 c -0.137,-0.052 -0.274,-0.105 -0.408,-0.169 l -13.171,-5.459 9.456,-7.641 v -64.478 c 0,-3.841 3.546,-5.614 7.092,-6.205 2.679,-0.447 60.497,-5.614 90.274,-7.988 l 7.103,-5.739 12.168,4.974 c 0.134,0.047 0.261,0.104 0.389,0.158 l 10e-4,0.001 c 2.415,1.034 3.831,3.395 3.831,6.821 V -9.16 C 6.205,-3.251 3.593,-0.281 0,0" />
              </g>
              <g
                 transform="translate(251.1284,208.0754)"
                 id="g686"
                 style="stroke-width:2.7127769">
                <path
                   inkscape:connector-curvature="0"
                   id="path688"
                   style="fill:#faaf40;fill-opacity:1;fill-rule:nonzero;stroke:none;stroke-width:2.7127769"
                   d="m 0,0 c 0,0 -105.788,8.274 -108.743,8.569 -2.955,0.296 -5.91,-3.25 -5.91,-5.614 v -72.397 c 0,-3.841 3.546,-5.614 7.092,-6.205 3.546,-0.591 103.72,-9.456 107.561,-9.161 3.842,0.296 6.206,2.955 6.206,7.388 V -9.16 C 6.206,-3.25 3.593,-0.281 0,0" />
              </g>
              <g
                 transform="translate(138.3963,206.8934)"
                 id="g690"
                 style="stroke-width:2.7127769">
                <path
                   inkscape:connector-curvature="0"
                   id="path692"
                   style="fill:#fdc35a;fill-opacity:1;fill-rule:nonzero;stroke:none;stroke-width:2.7127769"
                   d="M 0,0 C 0,0 -1.773,9.013 7.387,8.274 16.548,7.535 104.31,0.443 108.743,0 c 4.432,-0.443 7.831,-1.773 7.24,-10.342 0,0 0.147,7.535 -8.422,8.274 C 98.991,-1.33 13.445,5.91 8.717,6.205 3.989,6.501 1.921,6.353 0,0" />
              </g>
              <g
                 id="g694"
                 style="stroke-width:2.7127769">
                <g
                   id="g696"
                   style="stroke-width:2.7127769" />
                <g
                   id="g708"
                   style="stroke-width:2.7127769">
                  <g
                     style="opacity:0.10000598;stroke-width:2.7127769"
                     id="g706"
                     clip-path="url(#clipPath700)">
                    <g
                       id="g704"
                       transform="translate(251.1285,123.2679)"
                       style="stroke-width:2.7127769">
                      <path
                         inkscape:connector-curvature="0"
                         id="path702"
                         style="fill:#231f20;fill-opacity:1;fill-rule:nonzero;stroke:none;stroke-width:2.7127769"
                         d="m 0,0 c 1.468,0.113 2.717,0.573 3.704,1.343 v 0 l 12.169,4.974 c 0.134,0.047 0.26,0.104 0.389,0.159 v 0 c 2.415,1.035 3.832,3.396 3.832,6.821 V 29.55 c 0,-4.433 -0.18,-18.23 -7.092,-19.208 C 6.09,9.364 6.205,22.946 6.205,22.946 6.205,9.546 -3.25,5.319 -9.456,5.319 c -6.205,0 -72.988,5.614 -89.831,7.683 -8.302,1.019 -12.867,5.557 -15.366,9.897 v -7.533 c 0,-3.842 3.546,-5.615 7.092,-6.206 C -104.015,8.569 -3.841,-0.296 0,0" />
                    </g>
                  </g>
                </g>
              </g>
              <g
                 transform="translate(185.8242,220.1983)"
                 id="g710"
                 style="stroke-width:2.7127769">
                <path
                   inkscape:connector-curvature="0"
                   id="path712"
                   style="fill:#594a42;fill-opacity:1;fill-rule:nonzero;stroke:none;stroke-width:2.7127769"
                   d="m 0,0 c 0,0 -10.385,-4.95 -12.103,-6.051 -1.718,-1.1 -1.195,-9.322 -1.195,-14.641 v -69.806 l -11.864,1.067 v 81.24 c 0,4.638 11.665,9.257 11.665,9.257 z" />
              </g>
              <g
                 transform="translate(239.0278,216.0202)"
                 id="g714"
                 style="stroke-width:2.7127769">
                <path
                   inkscape:connector-curvature="0"
                   id="path716"
                   style="fill:#594a42;fill-opacity:1;fill-rule:nonzero;stroke:none;stroke-width:2.7127769"
                   d="m 0,0 c 0,0 -12.172,-5.374 -13.89,-6.474 -1.719,-1.101 -1.195,-9.323 -1.195,-14.642 v -69.806 l -11.864,1.067 v 81.241 c 0,4.637 15.41,9.756 15.41,9.756 z" />
              </g>
              <g
                 transform="translate(172.3276,221.264)"
                 id="g718"
                 style="stroke-width:2.7127769">
                <path
                   inkscape:connector-curvature="0"
                   id="path720"
                   style="fill:#6e5b52;fill-opacity:1;fill-rule:nonzero;stroke:none;stroke-width:2.7127769"
                   d="m 0,0 c 0,0 -9.748,-3.074 -11.665,-6.086 -1.917,-3.012 -3.65,-13.013 -3.798,-17.002 -0.147,-3.989 2.217,-8.274 5.467,-8.421 3.25,-0.148 5.467,2.954 6.649,8.126 1.182,5.171 1.213,14.529 5.636,16.779 4.424,2.249 11.208,5.538 11.208,5.538 z" />
              </g>
              <g
                 transform="translate(225.5312,217.1619)"
                 id="g722"
                 style="stroke-width:2.7127769">
                <path
                   inkscape:connector-curvature="0"
                   id="path724"
                   style="fill:#6e5b52;fill-opacity:1;fill-rule:nonzero;stroke:none;stroke-width:2.7127769"
                   d="m 0,0 c 0,0 -9.748,-3.074 -11.665,-6.086 -1.917,-3.012 -3.65,-13.012 -3.798,-17.002 -0.147,-3.989 2.217,-8.274 5.467,-8.421 3.251,-0.148 5.467,2.955 6.649,8.126 1.182,5.171 1.213,14.529 5.636,16.779 4.424,2.249 11.208,5.538 11.208,5.538 z" />
              </g>
              <g
                 transform="translate(163.0772,217.1601)"
                 id="g726"
                 style="stroke-width:2.7127769">
                <path
                   inkscape:connector-curvature="0"
                   id="path728"
                   style="fill:#9a8479;fill-opacity:1;fill-rule:nonzero;stroke:none;stroke-width:2.7127769"
                   d="m 0,0 c 0,0 13.031,-1.513 13.831,-1.558 0.801,-0.045 2.226,0.648 1.275,0.94 C 14.154,-0.327 2.148,0.913 1.214,0.916 0.281,0.918 -0.983,0.114 0,0" />
              </g>
              <g
                 transform="translate(168.8986,219.7988)"
                 id="g730"
                 style="stroke-width:2.7127769">
                <path
                   inkscape:connector-curvature="0"
                   id="path732"
                   style="fill:#9a8479;fill-opacity:1;fill-rule:nonzero;stroke:none;stroke-width:2.7127769"
                   d="m 0,0 c 0,0 12.335,-1.205 13.094,-1.24 0.758,-0.036 2.118,0.528 1.22,0.763 C 13.415,-0.243 2.048,0.743 1.163,0.743 0.278,0.744 -0.931,0.091 0,0" />
              </g>
              <g
                 transform="translate(216.7388,213.28)"
                 id="g734"
                 style="stroke-width:2.7127769">
                <path
                   inkscape:connector-curvature="0"
                   id="path736"
                   style="fill:#9a8479;fill-opacity:1;fill-rule:nonzero;stroke:none;stroke-width:2.7127769"
                   d="m 0,0 c 0,0 13.03,-1.513 13.831,-1.558 0.801,-0.045 2.226,0.648 1.275,0.94 C 14.154,-0.327 2.148,0.913 1.214,0.915 0.281,0.918 -0.983,0.114 0,0" />
              </g>
              <g
                 transform="translate(222.5603,215.9187)"
                 id="g738"
                 style="stroke-width:2.7127769">
                <path
                   inkscape:connector-curvature="0"
                   id="path740"
                   style="fill:#9a8479;fill-opacity:1;fill-rule:nonzero;stroke:none;stroke-width:2.7127769"
                   d="m 0,0 c 0,0 12.335,-1.205 13.094,-1.24 0.758,-0.036 2.118,0.528 1.219,0.763 C 13.415,-0.243 2.048,0.743 1.163,0.743 0.278,0.744 -0.931,0.091 0,0" />
              </g>
              <g
                 transform="translate(220.3967,179.8554)"
                 id="g742"
                 style="stroke-width:2.7127769">
                <path
                   inkscape:connector-curvature="0"
                   id="path744"
                   style="fill:#a9abad;fill-opacity:1;fill-rule:nonzero;stroke:none;stroke-width:2.7127769"
                   d="m 0,0 c 0,-1.469 -1.191,-2.659 -2.659,-2.659 -1.469,0 -2.66,1.19 -2.66,2.659 0,1.469 1.191,2.66 2.66,2.66 C -1.191,2.66 0,1.469 0,0" />
              </g>
              <g
                 transform="translate(215.0778,179.8555)"
                 id="g746"
                 style="stroke-width:2.7127769">
                <path
                   inkscape:connector-curvature="0"
                   id="path748"
                   style="fill:#bbbdbf;fill-opacity:1;fill-rule:nonzero;stroke:none;stroke-width:2.7127769"
                   d="m 0,0 c 0,-0.688 0.268,-1.308 0.696,-1.78 0.362,-0.201 0.772,-0.325 1.215,-0.325 1.393,0 2.522,1.128 2.522,2.52 0,0.95 -0.532,1.768 -1.308,2.198 C 2.973,2.639 2.819,2.66 2.66,2.66 1.191,2.66 0,1.469 0,0" />
              </g>
              <g
                 transform="translate(217.2663,180.3171)"
                 id="g750"
                 style="stroke-width:2.7127769">
                <path
                   inkscape:connector-curvature="0"
                   id="path752"
                   style="fill:#d0d2d3;fill-opacity:1;fill-rule:nonzero;stroke:none;stroke-width:2.7127769"
                   d="m 0,0 c 0,-0.535 -0.31,-0.97 -0.693,-0.97 -0.382,0 -0.692,0.435 -0.692,0.97 0,0.536 0.31,0.97 0.692,0.97 C -0.31,0.97 0,0.536 0,0" />
              </g>
              <g
                 transform="translate(168.5632,182.5149)"
                 id="g754"
                 style="stroke-width:2.7127769">
                <path
                   inkscape:connector-curvature="0"
                   id="path756"
                   style="fill:#a9abad;fill-opacity:1;fill-rule:nonzero;stroke:none;stroke-width:2.7127769"
                   d="m 0,0 c 0,-1.469 -1.191,-2.659 -2.66,-2.659 -1.468,0 -2.659,1.19 -2.659,2.659 0,1.469 1.191,2.66 2.659,2.66 C -1.191,2.66 0,1.469 0,0" />
              </g>
              <g
                 transform="translate(163.2442,182.515)"
                 id="g758"
                 style="stroke-width:2.7127769">
                <path
                   inkscape:connector-curvature="0"
                   id="path760"
                   style="fill:#bbbdbf;fill-opacity:1;fill-rule:nonzero;stroke:none;stroke-width:2.7127769"
                   d="m 0,0 c 0,-0.688 0.268,-1.308 0.696,-1.78 0.362,-0.201 0.772,-0.325 1.215,-0.325 1.393,0 2.521,1.128 2.521,2.52 0,0.95 -0.531,1.768 -1.307,2.198 C 2.973,2.639 2.819,2.66 2.66,2.66 1.191,2.66 0,1.469 0,0" />
              </g>
              <g
                 transform="translate(165.4327,182.9766)"
                 id="g762"
                 style="stroke-width:2.7127769">
                <path
                   inkscape:connector-curvature="0"
                   id="path764"
                   style="fill:#d0d2d3;fill-opacity:1;fill-rule:nonzero;stroke:none;stroke-width:2.7127769"
                   d="m 0,0 c 0,-0.535 -0.31,-0.97 -0.693,-0.97 -0.382,0 -0.692,0.435 -0.692,0.97 0,0.536 0.31,0.97 0.692,0.97 C -0.31,0.97 0,0.536 0,0" />
              </g>
              <g
                 transform="translate(220.3967,138.0391)"
                 id="g766"
                 style="stroke-width:2.7127769">
                <path
                   inkscape:connector-curvature="0"
                   id="path768"
                   style="fill:#a9abad;fill-opacity:1;fill-rule:nonzero;stroke:none;stroke-width:2.7127769"
                   d="m 0,0 c 0,-1.469 -1.191,-2.66 -2.659,-2.66 -1.469,0 -2.66,1.191 -2.66,2.66 0,1.469 1.191,2.659 2.66,2.659 C -1.191,2.659 0,1.469 0,0" />
              </g>
              <g
                 transform="translate(215.0778,138.0391)"
                 id="g770"
                 style="stroke-width:2.7127769">
                <path
                   inkscape:connector-curvature="0"
                   id="path772"
                   style="fill:#bbbdbf;fill-opacity:1;fill-rule:nonzero;stroke:none;stroke-width:2.7127769"
                   d="m 0,0 c 0,-0.688 0.268,-1.308 0.696,-1.78 0.362,-0.201 0.772,-0.325 1.215,-0.325 1.393,0 2.522,1.128 2.522,2.521 0,0.95 -0.532,1.767 -1.308,2.197 C 2.973,2.639 2.819,2.66 2.66,2.66 1.191,2.66 0,1.469 0,0" />
              </g>
              <g
                 transform="translate(217.2663,138.5008)"
                 id="g774"
                 style="stroke-width:2.7127769">
                <path
                   inkscape:connector-curvature="0"
                   id="path776"
                   style="fill:#d0d2d3;fill-opacity:1;fill-rule:nonzero;stroke:none;stroke-width:2.7127769"
                   d="m 0,0 c 0,-0.535 -0.31,-0.97 -0.693,-0.97 -0.382,0 -0.692,0.435 -0.692,0.97 0,0.536 0.31,0.97 0.692,0.97 C -0.31,0.97 0,0.536 0,0" />
              </g>
              <g
                 transform="translate(168.5632,142.1298)"
                 id="g778"
                 style="stroke-width:2.7127769">
                <path
                   inkscape:connector-curvature="0"
                   id="path780"
                   style="fill:#a9abad;fill-opacity:1;fill-rule:nonzero;stroke:none;stroke-width:2.7127769"
                   d="m 0,0 c 0,-1.469 -1.191,-2.659 -2.66,-2.659 -1.468,0 -2.659,1.19 -2.659,2.659 0,1.469 1.191,2.66 2.659,2.66 C -1.191,2.66 0,1.469 0,0" />
              </g>
              <g
                 transform="translate(163.2442,142.1299)"
                 id="g782"
                 style="stroke-width:2.7127769">
                <path
                   inkscape:connector-curvature="0"
                   id="path784"
                   style="fill:#bbbdbf;fill-opacity:1;fill-rule:nonzero;stroke:none;stroke-width:2.7127769"
                   d="m 0,0 c 0,-0.688 0.268,-1.308 0.696,-1.78 0.362,-0.201 0.772,-0.325 1.215,-0.325 1.393,0 2.521,1.128 2.521,2.521 0,0.95 -0.531,1.767 -1.307,2.197 C 2.973,2.639 2.819,2.66 2.66,2.66 1.191,2.66 0,1.469 0,0" />
              </g>
              <g
                 transform="translate(165.4327,142.5916)"
                 id="g786"
                 style="stroke-width:2.7127769">
                <path
                   inkscape:connector-curvature="0"
                   id="path788"
                   style="fill:#d0d2d3;fill-opacity:1;fill-rule:nonzero;stroke:none;stroke-width:2.7127769"
                   d="m 0,0 c 0,-0.535 -0.31,-0.97 -0.693,-0.97 -0.382,0 -0.692,0.435 -0.692,0.97 0,0.535 0.31,0.97 0.692,0.97 C -0.31,0.97 0,0.535 0,0" />
              </g>
              <g
                 transform="translate(206.261,228.3292)"
                 id="g790"
                 style="stroke-width:2.7127769">
                <path
                   inkscape:connector-curvature="0"
                   id="path792"
                   style="fill:#9a8479;fill-opacity:1;fill-rule:nonzero;stroke:none;stroke-width:2.7127769"
                   d="m 0,0 -16.439,0.762 c -0.468,0.021 -0.891,-0.274 -1.032,-0.72 l -2.966,-9.404 c -0.149,-0.474 -0.615,-0.774 -1.108,-0.713 l -1.525,0.186 c -0.54,0.065 -1.038,-0.3 -1.138,-0.835 l -0.109,-0.583 c -0.111,-0.593 0.309,-1.154 0.909,-1.215 l 2.628,-0.267 c 0.477,-0.048 0.924,0.238 1.08,0.691 l 3.614,10.524 c 0.149,0.434 0.566,0.717 1.024,0.695 L 0.07,-1.595 C -0.185,-0.916 -0.165,-0.393 0,0" />
              </g>
              <g
                 transform="translate(195.575,231.3458)"
                 id="g794"
                 style="stroke-width:2.7127769">
                <path
                   inkscape:connector-curvature="0"
                   id="path796"
                   style="fill:#806f65;fill-opacity:1;fill-rule:nonzero;stroke:none;stroke-width:2.7127769"
                   d="m 0,0 c 1.163,-0.063 10.082,-0.575 11.524,-0.665 2.66,-0.166 2.678,-5.266 0,-5.208 -0.838,0.018 -12.687,0.776 -13.962,0.887 C -3.712,-4.876 -4.315,0.236 0,0" />
              </g>
              <g
                 id="g798"
                 style="stroke-width:2.7127769">
                <g
                   id="g800"
                   style="stroke-width:2.7127769" />
                <g
                   id="g812"
                   style="stroke-width:2.7127769">
                  <g
                     style="opacity:0.10000598;stroke-width:2.7127769"
                     id="g810"
                     clip-path="url(#clipPath804)">
                    <g
                       id="g808"
                       transform="translate(207.4025,230.6249)"
                       style="stroke-width:2.7127769">
                      <path
                         inkscape:connector-curvature="0"
                         id="path806"
                         style="fill:#231f20;fill-opacity:1;fill-rule:nonzero;stroke:none;stroke-width:2.7127769"
                         d="m 0,0 c -2.518,-1.065 -0.873,-4.049 -1.596,-4.118 -0.776,-0.074 -9.197,0.443 -11.377,0.554 -1.45,0.074 -1.955,1.273 -2.132,2.068 -0.296,-1.306 0.178,-2.712 0.84,-2.77 1.274,-0.11 13.124,-0.868 13.962,-0.886 C 2.267,-5.208 2.346,-0.527 0,0" />
                    </g>
                  </g>
                </g>
              </g>
              <g
                 transform="translate(216.706,216.4913)"
                 id="g814"
                 style="stroke-width:2.7127769">
                <path
                   inkscape:connector-curvature="0"
                   id="path816"
                   style="fill:#78685f;fill-opacity:1;fill-rule:nonzero;stroke:none;stroke-width:2.7127769"
                   d="M 0,0 -1.435,0.104 C -1.925,0.14 -2.322,0.517 -2.383,1.005 L -3.69,11.478 c -0.062,0.498 -0.474,0.879 -0.975,0.902 l -3.744,0.113 c -0.423,-0.286 -0.865,-0.571 -0.782,-1.554 l 2.845,-0.075 c 0.519,-0.024 0.939,-0.431 0.98,-0.949 l 0.87,-11.035 c 0.04,-0.51 0.448,-0.913 0.959,-0.948 l 1.716,-0.115 0.617,-0.717 1.602,0.75 -0.004,0.01 c 0.243,0.144 0.432,0.373 0.492,0.667 l 0.049,0.236 C 1.061,-0.627 0.621,-0.045 0,0" />
              </g>
              <g
                 transform="translate(215.1238,215.7545)"
                 id="g818"
                 style="stroke-width:2.7127769">
                <path
                   inkscape:connector-curvature="0"
                   id="path820"
                   style="fill:#9a8479;fill-opacity:1;fill-rule:nonzero;stroke:none;stroke-width:2.7127769"
                   d="M 0,0 -1.435,0.104 C -1.925,0.14 -2.322,0.517 -2.383,1.005 L -3.69,11.478 c -0.062,0.498 -0.474,0.879 -0.975,0.902 l -2.824,0.195 c -0.165,-0.394 -0.185,-0.916 0.07,-1.595 l 1.073,-0.116 c 0.519,-0.024 0.939,-0.431 0.979,-0.949 L -4.496,-1.12 c 0.04,-0.51 0.448,-0.913 0.959,-0.948 l 3.344,-0.225 c 0.514,-0.035 0.975,0.315 1.079,0.82 l 0.049,0.236 C 1.061,-0.627 0.621,-0.045 0,0" />
              </g>
              <g
                 id="g822"
                 style="stroke-width:2.7127769">
                <g
                   id="g824"
                   style="stroke-width:2.7127769" />
                <g
                   id="g836"
                   style="stroke-width:2.7127769">
                  <g
                     style="opacity:0.08999628;stroke-width:2.7127769"
                     id="g834"
                     clip-path="url(#clipPath828)">
                    <g
                       id="g832"
                       transform="translate(195.575,231.3458)"
                       style="stroke-width:2.7127769">
                      <path
                         inkscape:connector-curvature="0"
                         id="path830"
                         style="fill:#ffffff;fill-opacity:1;fill-rule:nonzero;stroke:none;stroke-width:2.7127769"
                         d="m 0,0 c -1.614,0.088 -2.539,-0.572 -2.999,-1.439 0.229,-0.722 0.836,-1.746 2.445,-1.858 2.512,-0.175 8.348,-0.507 9.271,-0.434 0.773,0.062 0.654,2.11 1.454,3.147 C 7.215,-0.411 0.962,-0.053 0,0" />
                    </g>
                  </g>
                </g>
              </g>
              <g
                 transform="translate(292.3186,140.678)"
                 id="g946"
                 style="stroke-width:2.7127769">
                <path
                   inkscape:connector-curvature="0"
                   id="path948"
                   style="fill:#d1ccbe;fill-opacity:1;fill-rule:nonzero;stroke:none;stroke-width:2.7127769"
                   d="M 0,0 C -16.508,0 -41.186,-2.817 -39.852,-13.304 -38.518,-23.791 0,-24.104 0,-24.104 c 0,0 38.518,0.313 39.852,10.8 C 41.186,-2.817 16.508,0 0,0" />
              </g>
              <g
                 id="g950"
                 style="stroke-width:2.7127769">
                <g
                   id="g952"
                   style="stroke-width:2.7127769" />
                <g
                   id="g964"
                   style="stroke-width:2.7127769">
                  <g
                     style="opacity:0.10000598;stroke-width:2.7127769"
                     id="g962"
                     clip-path="url(#clipPath956)">
                    <g
                       id="g960"
                       transform="translate(292.3186,140.678)"
                       style="stroke-width:2.7127769">
                      <path
                         inkscape:connector-curvature="0"
                         id="path958"
                         style="fill:#231f20;fill-opacity:1;fill-rule:nonzero;stroke:none;stroke-width:2.7127769"
                         d="m 0,0 c -3.061,0 -6.402,-0.097 -9.806,-0.322 l -10.279,-11.196 c 19.976,-12.759 45.055,2.38 44.805,-3.915 -0.216,-5.435 -22.993,-7.948 -29.21,-8.533 2.749,-0.123 4.49,-0.138 4.49,-0.138 0,0 38.518,0.313 39.852,10.8 C 41.186,-2.817 16.508,0 0,0" />
                    </g>
                  </g>
                </g>
              </g>
              <g
                 transform="translate(272.8096,153.5913)"
                 id="g966"
                 style="stroke-width:2.7127769">
                <path
                   inkscape:connector-curvature="0"
                   id="path968"
                   style="fill:#d1ccbe;fill-opacity:1;fill-rule:nonzero;stroke:none;stroke-width:2.7127769"
                   d="m 0,0 c 0,0 -3.168,-10.171 -3.835,-21.01 0,0 2.001,-7.336 23.344,-7.336 21.343,0 23.344,7.003 23.344,7.003 0,0 -2.835,18.175 -3.835,21.343 0,0 -17.842,5.669 -39.018,0" />
              </g>
              <g
                 transform="translate(315.6627,132.2482)"
                 id="g970"
                 style="stroke-width:2.7127769">
                <path
                   inkscape:connector-curvature="0"
                   id="path972"
                   style="fill:#594a42;fill-opacity:1;fill-rule:nonzero;stroke:none;stroke-width:2.7127769"
                   d="M 0,0 C 0,0 -0.409,2.621 -0.97,6.044 -2.956,4.509 -8.617,1.667 -23.344,1.667 c -13.377,0 -19.933,2.345 -22.835,3.926 -0.221,-1.707 -0.399,-3.474 -0.509,-5.26 0,0 2.001,-7.336 23.344,-7.336 C -2.001,-7.003 0,0 0,0" />
              </g>
              <g
                 id="g974"
                 style="stroke-width:2.7127769">
                <g
                   id="g976"
                   style="stroke-width:2.7127769" />
                <g
                   id="g988"
                   style="stroke-width:2.7127769">
                  <g
                     style="opacity:0.10000598;stroke-width:2.7127769"
                     id="g986"
                     clip-path="url(#clipPath980)">
                    <g
                       id="g984"
                       transform="translate(279.3679,126.461)"
                       style="stroke-width:2.7127769">
                      <path
                         inkscape:connector-curvature="0"
                         id="path982"
                         style="fill:#231f20;fill-opacity:1;fill-rule:nonzero;stroke:none;stroke-width:2.7127769"
                         d="m 0,0 c 3.23,-0.725 7.442,-1.216 12.951,-1.216 21.343,0 23.344,7.003 23.344,7.003 0,0 -2.835,18.175 -3.835,21.343 0,0 -6.672,2.115 -16.69,2.467 -0.101,-0.207 0.338,-0.462 1.518,-0.779 C 25.293,26.671 33.168,16.709 28.666,7.455 24.231,-1.662 0.699,-0.05 0,0" />
                    </g>
                  </g>
                </g>
              </g>
              <g
                 transform="translate(272.8096,153.5913)"
                 id="g990"
                 style="stroke-width:2.7127769">
                <path
                   inkscape:connector-curvature="0"
                   id="path992"
                   style="fill:#e4dece;fill-opacity:1;fill-rule:nonzero;stroke:none;stroke-width:2.7127769"
                   d="M 0,0 C 0,0 3.502,4.335 19.009,4.836 34.516,5.336 39.018,0 39.018,0 39.018,0 26.512,3.835 0,0" />
              </g>
            </g>
          </g>
        </g>
      </g>
    </g>
  </g>
</svg>
