<?xml version="1.0" encoding="UTF-8" standalone="no"?>
<!-- Created with Inkscape (http://www.inkscape.org/) -->

<svg
   xmlns:dc="http://purl.org/dc/elements/1.1/"
   xmlns:cc="http://creativecommons.org/ns#"
   xmlns:rdf="http://www.w3.org/1999/02/22-rdf-syntax-ns#"
   xmlns:svg="http://www.w3.org/2000/svg"
   xmlns="http://www.w3.org/2000/svg"
   xmlns:xlink="http://www.w3.org/1999/xlink"
   xmlns:sodipodi="http://sodipodi.sourceforge.net/DTD/sodipodi-0.dtd"
   xmlns:inkscape="http://www.inkscape.org/namespaces/inkscape"
   width="558.40735"
   height="1115.031"
   viewBox="0 0 147.74527 295.01863"
   version="1.1"
   id="svg4718"
   inkscape:version="0.92.3 (2405546, 2018-03-11)"
   sodipodi:docname="ogworld_logo.svg">
  <defs
     id="defs4712">
    <linearGradient
       inkscape:collect="always"
       xlink:href="#linearGradient2205"
       id="linearGradient865"
       x1="-348.25806"
       y1="238.50993"
       x2="-295.07205"
       y2="238.50993"
       gradientUnits="userSpaceOnUse"
       gradientTransform="matrix(3.2271284,0,0,3.2271284,872.41014,-428.40788)" />
    <linearGradient
       id="linearGradient2205"
       inkscape:collect="always">
      <stop
         id="stop2201"
         offset="0"
         style="stop-color:#dd2ac0;stop-opacity:1" />
      <stop
         id="stop2203"
         offset="1"
         style="stop-color:#ec794f;stop-opacity:0.99215686" />
    </linearGradient>
    <linearGradient
       inkscape:collect="always"
       xlink:href="#linearGradient2205"
       id="linearGradient4653"
       x1="50.495316"
       y1="878.63782"
       x2="608.90265"
       y2="35.478481"
       gradientUnits="userSpaceOnUse" />
    <linearGradient
       inkscape:collect="always"
       xlink:href="#linearGradient2205"
       id="linearGradient4663"
       gradientUnits="userSpaceOnUse"
       x1="568.36914"
       y1="708.35938"
       x2="268.33591"
       y2="796.60748" />
  </defs>
  <sodipodi:namedview
     id="base"
     pagecolor="#ffffff"
     bordercolor="#666666"
     borderopacity="1.0"
     inkscape:pageopacity="0.0"
     inkscape:pageshadow="2"
     inkscape:zoom="0.35"
     inkscape:cx="1077.7751"
     inkscape:cy="654.70858"
     inkscape:document-units="px"
     inkscape:current-layer="layer1"
     showgrid="false"
     units="px"
     fit-margin-top="-0.1"
     fit-margin-left="0"
     fit-margin-right="0"
     fit-margin-bottom="0"
     inkscape:window-width="1890"
     inkscape:window-height="1051"
     inkscape:window-x="30"
     inkscape:window-y="0"
     inkscape:window-maximized="1" />
  <metadata
     id="metadata4715">
    <rdf:RDF>
      <cc:Work
         rdf:about="">
        <dc:format>image/svg+xml</dc:format>
        <dc:type
           rdf:resource="http://purl.org/dc/dcmitype/StillImage" />
        <dc:title></dc:title>
      </cc:Work>
    </rdf:RDF>
  </metadata>
  <g
     inkscape:label="Layer 1"
     inkscape:groupmode="layer"
     id="layer1"
     transform="translate(340.72383,184.62704)">
    <g
       transform="matrix(0.91516576,0,0,0.91516576,-107.5896,-215.29655)"
       style="display:inline"
       id="g4670"
       inkscape:export-xdpi="96"
       inkscape:export-ydpi="96">
      <text
         xml:space="preserve"
         style="font-style:normal;font-weight:normal;font-size:37.31977081px;line-height:1.25;font-family:sans-serif;letter-spacing:0px;word-spacing:0px;opacity:1;fill:url(#linearGradient865);fill-opacity:1;stroke:#cccccc;stroke-width:0;stroke-miterlimit:4;stroke-dasharray:none"
         x="-253.55896"
         y="355.20709"
         id="text849"><tspan
           sodipodi:role="line"
           id="tspan847"
           x="-253.55896"
           y="355.20709"
           style="font-style:normal;font-variant:normal;font-weight:normal;font-stretch:normal;font-size:37.3196907px;font-family:'Baloo Thambi';-inkscape-font-specification:'Baloo Thambi, Normal';font-variant-ligatures:normal;font-variant-caps:normal;font-variant-numeric:normal;font-feature-settings:normal;text-align:start;writing-mode:lr-tb;text-anchor:start;fill:url(#linearGradient865);fill-opacity:1;stroke:#cccccc;stroke-width:0;stroke-miterlimit:4;stroke-dasharray:none">OG World</tspan></text>
      <g
         transform="translate(9.8113244,-9.8542635)"
         id="g4661">
        <path
           style="fill:url(#linearGradient4653);fill-opacity:1;stroke:none;stroke-width:1px;stroke-linecap:butt;stroke-linejoin:miter;stroke-opacity:1"
           d="m 329.52344,35.478516 c -2.37657,0.0012 -4.7593,0.03413 -7.14844,0.0957 C 169.47021,39.514647 47.909998,166.40685 50.537109,319.33984 c 2.627112,152.933 128.470011,275.58119 281.419921,274.26758 27.1284,-0.23298 53.32958,-4.36783 78.0918,-11.83789 8.13577,-1.81659 16.5646,-2.89401 25.22461,-3.11719 71.43292,-1.84085 130.5594,53.83358 133.01367,125.24805 a 20.269157,20.269157 0 0 0 0.19141,2.28125 20.269157,20.269157 0 0 0 -0.10938,2.17774 c 0,71.45665 -57.18271,129.13045 -128.63672,129.74414 -0.44397,0.004 -0.88518,-0.005 -1.32812,-0.006 l -0.0684,40.53125 c 0.58117,8.9e-4 1.15972,0.0126 1.74218,0.008 C 533.31454,877.836 608.9023,801.59931 608.9023,708.35943 a 20.269157,20.269157 0 0 0 -0.1914,-2.90235 20.269157,20.269157 0 0 0 0.0879,-2.94531 C 606.22287,627.55552 555.14636,565.28346 486.75195,545.03516 560.31691,494.70856 608.62891,410.12803 608.62891,314.54883 a 20.269157,20.269157 0 0 0 -0.52344,-4.78321 20.269157,20.269157 0 0 0 0.35351,-4.79687 C 603.28783,154.49197 479.24725,35.404617 329.52344,35.478516 Z m 0.0215,40.541015 C 457.92144,75.932756 563.5202,177.30891 567.95508,306.35547 a 20.269157,20.269157 0 0 0 0.51758,4.14062 20.269157,20.269157 0 0 0 -0.37696,4.05274 c 0,107.337 -70.52842,197.95418 -168.02734,227.96484 -2.31458,0.53893 -4.61737,1.10822 -6.89453,1.74024 l 0.0684,0.25 c -19.63354,5.40422 -40.28779,8.38699 -61.63281,8.57031 C 200.44187,554.20074 93.315473,449.79944 91.0625,318.64648 88.809527,187.49353 192.28725,79.478855 323.41602,76.099609 c 2.04888,-0.0528 4.09118,-0.0787 6.1289,-0.08008 z"
           id="path4629"
           inkscape:connector-curvature="0"
           transform="matrix(0.28910974,0,0,0.28910974,-279.15537,33.080698)" />
        <path
           style="fill:url(#linearGradient4663);fill-opacity:1;stroke:none;stroke-width:1px;stroke-linecap:butt;stroke-linejoin:miter;stroke-opacity:1"
           d="m 393.17383,544.25391 c -73.00543,20.26231 -126.17009,87.99725 -124.8125,167.02734 1.58641,92.35056 77.04832,166.7251 169.09961,167.33594 a 20.269157,20.269157 0 0 0 0.875,0.0273 c 33.95648,-0.14766 61.99332,25.44597 64.93164,59.27539 2.93832,33.82946 -20.26677,63.88082 -53.74024,69.58992 -33.47346,5.7091 -65.32635,-14.95099 -73.76757,-47.84187 a 20.269157,20.269157 0 1 0 -39.26368,10.07617 c 13.59341,52.9663 65.94133,86.9105 119.84571,77.7168 53.90437,-9.1936 92.04424,-58.56922 87.3125,-113.04688 -4.72472,-54.39637 -50.67505,-96.41413 -105.25,-96.30273 v -0.0137 C 367.56009,838.00149 310.10836,781.58997 308.88867,710.58782 307.84748,649.9768 348.12399,598.58402 403.97656,583.2636 Z"
           transform="matrix(0.28910974,0,0,0.28910974,-279.15537,33.080698)"
           id="path4634"
           inkscape:connector-curvature="0" />
      </g>
    </g>
  </g>
</svg>
